<?xml version="1.0" standalone="no"?>
<!DOCTYPE svg PUBLIC "-//W3C//DTD SVG 1.1//EN" "http://www.w3.org/Graphics/SVG/1.1/DTD/svg11.dtd" >
<svg xmlns="http://www.w3.org/2000/svg" xmlns:xlink="http://www.w3.org/1999/xlink" version="1.1">
<metadata>
Created by FontForge 20200427 at Thu Dec  4 22:14:11 2014
 By www
Copyright (c) 2011 by Nate Piekos. Blambot.com. All rights reserved.
</metadata>
<defs>
<font id="ImaginaryFriendBBW00-Rg" horiz-adv-x="437" >
  <font-face 
    font-family="ImaginaryFriendBBW00-Rg"
    font-weight="400"
    font-stretch="normal"
    units-per-em="1000"
    panose-1="2 0 5 6 0 0 0 2 0 4"
    ascent="800"
    descent="-200"
    x-height="626"
    cap-height="664.5"
    bbox="-90.5 -310.28 1055.14 945.286"
    underline-thickness="50"
    underline-position="-175"
    unicode-range="U+0020-E033"
  />
<missing-glyph horiz-adv-x="418" 
d="M42 660h340v-660h-340v660zM145 40h134v575h-134v-575z" />
    <glyph glyph-name="uniE000" unicode="AA" horiz-adv-x="776" 
d="M386 72q2 -18 -4 -30.5t-24 -20.5q-16 -6 -30.5 -1t-19.5 22t-5.5 34.5t-4.5 34.5q-4 15 -4.5 33.5t-7.5 32.5q-3 5 -10 7t-15 2t-16 -1t-13 -1q-16 -1 -32 -1t-31 -1q-17 -1 -33.5 -6.5t-21.5 -25.5q-4 -22 -8 -43.5t-9 -43.5q-3 -17 -8 -32.5t-20 -26.5
q-14 -11 -29 -5.5t-24 18.5q-11 17 -4 33t11 34q10 48 15.5 96t14.5 97q6 34 12 69.5t11 70.5q3 26 3 50.5t5 50.5q3 20 5 38.5t5 38.5q3 17 5 32.5t14 28.5q13 14 30 17.5t32 0.5q19 -3 27 -16t16 -29q10 -18 20.5 -35t18.5 -37q20 -52 38.5 -104.5t34.5 -106.5
q9 -28 16 -57t13 -59q2 -14 4 -26.5t6 -25.5q2 -9 5 -19t5 -19q4 -17 4.5 -34t2.5 -34zM215 257h14.5t16.5 2t13.5 6.5t5.5 14.5q-8 29 -14 58t-15 57q-13 38 -32 74q-7 14 -14.5 33t-21.5 27q-4 -5 -7 -13t-5 -18t-3 -19.5t-1 -15.5q-1 -18 -1 -35.5t-2 -36.5
q-1 -5 -3.5 -24t-4.5 -40.5t-3.5 -39.5t0.5 -20q4 -8 9.5 -8h13.5q13 -1 26.5 -1.5t27.5 -0.5zM789 43q2 -11 5.5 -21.5t3.5 -21.5q0 -8 -3 -16.5t-11 -16.5q-14 -14 -32 -9.5t-30 16.5q-13 13 -12.5 32t-1.5 36q-2 13 -4.5 27t-8.5 28q-5 11 -18 11.5t-24 1.5
q-17 2 -33.5 1.5t-33.5 -2.5q-15 -1 -30 -0.5t-30 -1.5q-12 -2 -23.5 -5t-11.5 -20v-33q0 -13 -1 -26t-5.5 -23.5t-12.5 -17.5t-22 -8q-28 -2 -37 10t-9 31q0 17 4 36.5t5 36.5q4 53 13 102t15 102q7 57 11 116t22 115q8 14 10.5 36t-2.5 39q-3 14 -0.5 27.5t11.5 24.5
q6 8 20 13t28 5q19 0 27 -9q12 -6 18 -22q5 -17 13.5 -32.5t16.5 -33.5q8 -21 20.5 -40.5t20.5 -40.5q5 -14 9 -27.5t9 -27.5q6 -14 11.5 -29.5t10.5 -29.5q10 -29 18.5 -58t17.5 -58q11 -40 25 -81t20 -83q2 -14 4.5 -27t6.5 -26zM640 193q15 2 17 10t0 22q0 2 -2 10
q-12 37 -23 71.5t-22 72.5q-6 22 -16 44.5t-18 43.5q-5 16 -11 34.5t-17 31.5q-1 -15 -4.5 -30t-6.5 -29q-2 -16 -4.5 -31t-2.5 -32q0 -23 -3 -48.5t-6.5 -52t-6.5 -51.5t-4 -47q-1 -17 5.5 -20t23.5 -3h25.5t25.5 1q12 1 25 1t25 2z" />
    <glyph glyph-name="uniE001" unicode="aa" horiz-adv-x="782" 
d="M402 43q2 -11 5.5 -21.5t3.5 -21.5q0 -8 -3 -16.5t-11 -16.5q-14 -14 -32 -9.5t-30 16.5q-13 13 -12.5 32t-1.5 36q-2 13 -4.5 27t-8.5 28q-5 11 -18 11.5t-24 1.5q-17 2 -33.5 1.5t-33.5 -2.5q-15 -1 -30 -0.5t-30 -1.5q-12 -2 -23.5 -5t-11.5 -20v-33q0 -13 -1 -26
t-5.5 -23.5t-12.5 -17.5t-22 -8q-28 -2 -37 10t-9 31q0 17 4 36.5t5 36.5q4 53 13 102t15 102q7 57 11 116t22 115q8 14 10.5 36t-2.5 39q-3 14 -0.5 27.5t11.5 24.5q6 8 20 13t28 5q19 0 27 -9q12 -6 18 -22q5 -17 13.5 -32.5t16.5 -33.5q8 -21 20.5 -40.5t20.5 -40.5
q5 -14 9 -27.5t9 -27.5q6 -14 11.5 -29.5t10.5 -29.5q10 -29 18.5 -58t17.5 -58q11 -40 25 -81t20 -83q2 -14 4.5 -27t6.5 -26zM253 193q15 2 17 10t0 22q0 2 -2 10q-12 37 -23 71.5t-22 72.5q-6 22 -16 44.5t-18 43.5q-5 16 -11 34.5t-17 31.5q-1 -15 -4.5 -30t-6.5 -29
q-2 -16 -4.5 -31t-2.5 -32q0 -23 -3 -48.5t-6.5 -52t-6.5 -51.5t-4 -47q-1 -17 5.5 -20t23.5 -3h25.5t25.5 1q12 1 25 1t25 2zM804 72q2 -18 -4 -30.5t-24 -20.5q-16 -6 -30.5 -1t-19.5 22t-5.5 34.5t-4.5 34.5q-4 15 -4.5 33.5t-7.5 32.5q-3 5 -10 7t-15 2t-16 -1t-13 -1
q-16 -1 -32 -1t-31 -1q-17 -1 -33.5 -6.5t-21.5 -25.5q-4 -22 -8 -43.5t-9 -43.5q-3 -17 -8 -32.5t-20 -26.5q-14 -11 -29 -5.5t-24 18.5q-11 17 -4 33t11 34q10 48 15.5 96t14.5 97q6 34 12 69.5t11 70.5q3 26 3 50.5t5 50.5q3 20 5 38.5t5 38.5q3 17 5 32.5t14 28.5
q13 14 30 17.5t32 0.5q19 -3 27 -16t16 -29q10 -18 20.5 -35t18.5 -37q20 -52 38.5 -104.5t34.5 -106.5q9 -28 16 -57t13 -59q2 -14 4 -26.5t6 -25.5q2 -9 5 -19t5 -19q4 -17 4.5 -34t2.5 -34zM633 257h14.5t16.5 2t13.5 6.5t5.5 14.5q-8 29 -14 58t-15 57q-13 38 -32 74
q-7 14 -14.5 33t-21.5 27q-4 -5 -7 -13t-5 -18t-3 -19.5t-1 -15.5q-1 -18 -1 -35.5t-2 -36.5q-1 -5 -3.5 -24t-4.5 -40.5t-3.5 -39.5t0.5 -20q4 -8 9.5 -8h13.5q13 -1 26.5 -1.5t27.5 -0.5z" />
    <glyph glyph-name="uniE002" unicode="BB" horiz-adv-x="908" 
d="M438 220q15 -22 20.5 -47.5t1.5 -51.5q-5 -26 -13.5 -49.5t-31.5 -40.5q-22 -15 -50.5 -29t-54.5 -19q-29 -7 -66 -7q-28 0 -55.5 5.5t-52.5 17.5q-33 16 -48.5 40.5t-21.5 52.5t-7 59t-6 61q-2 16 -5 31.5t-3 32.5q0 30 -0.5 61.5t-3.5 61.5q-3 26 -5.5 50.5t-5.5 50.5
q-2 23 -4 48.5t-11 46.5q-4 11 -8 23.5t-4 25.5q0 11 3.5 20t13.5 17q7 6 19 9t25.5 4.5t27 2t22.5 -0.5q26 -2 50 -10.5t47 -16.5q26 -9 50 -24t45 -33q40 -35 74.5 -77.5t45.5 -95.5q4 -15 4 -33q0 -31 -15 -61q-10 -21 -27 -37.5t-29 -36.5q19 -8 43 -21t36 -30zM140 299
q2 -9 11 -12t20 -3t22.5 1.5t19.5 2.5q29 3 52 14t41 35q12 17 21.5 35.5t9.5 38.5q0 8 -2 16.5t-7 16.5q-16 27 -34.5 55t-42.5 48q-12 11 -27 17t-29 14q-12 8 -25.5 16.5t-27.5 11.5q-5 1 -14.5 2t-13.5 -2q-6 -4 -6 -12.5v-13.5q1 -15 1.5 -30.5t2.5 -29.5
q2 -16 3.5 -31.5t3.5 -30.5q5 -26 6.5 -52t4.5 -52q2 -14 4 -27.5t6 -27.5zM349 97q8 9 16 24t4 29q-3 14 -15.5 24t-23.5 16t-25.5 8.5t-29.5 2.5q-17 0 -32.5 -2t-29.5 -4q-12 -2 -30.5 -2.5t-27.5 -10.5q-5 -6 -6 -14.5t-0.5 -18.5t2 -19.5t1.5 -16.5q-1 -14 5.5 -27.5
t20.5 -19.5q13 -6 28.5 -10t29.5 -3q28 2 60.5 11.5t52.5 32.5zM876 220q15 -17 26 -37.5t7 -45.5q-5 -30 -24 -58.5t-45.5 -52t-57 -39.5t-59.5 -20q-35 -6 -70 -6q-18 0 -36 1.5t-36 6.5q-7 0 -13.5 4t-11.5 9q-14 12 -24 25t-12 30q-1 10 -1 23.5t-0.5 27t-0.5 27
t-1 23.5q-2 11 -4.5 23.5t-2.5 25.5q-1 28 -3 56.5t-4 57.5q-1 11 -1 21t-1 21q0 46 -7 90t-7 95q0 15 1 29t-10 25q-11 9 -15.5 17t-2.5 24q2 14 10.5 24.5t21.5 16.5q14 7 26.5 6t26.5 -3q8 -2 16.5 -0.5t16.5 1.5q8 1 16 0l16 -2q15 -1 30 -4.5t30 -6.5q14 -4 29 -8
t29 -10q14 -7 25.5 -19.5t21.5 -23.5q30 -33 50 -69q9 -16 13.5 -34t12.5 -35q14 -31 14 -62q0 -14 -3.5 -29t-11.5 -29q-17 -30 -40 -55q-3 -4 -5.5 -8t-4.5 -9q17 -14 39 -21t37 -23zM568 584q-3 -1 -4 -14.5t-1 -35.5q0 -29 2 -68t5 -75t7.5 -63.5t9.5 -33.5
q5 -8 14.5 -10t20.5 -2q12 0 24 1.5t21 1.5q25 -1 43 3t35 25q13 15 24.5 36.5t11.5 41.5q-1 37 -16 72.5t-40 63t-58 44t-70 16.5q-14 0 -29 -3zM769 69q22 14 37 34t15 40q0 13 -7.5 24.5t-25.5 19.5q-20 11 -45.5 16t-48.5 4q-11 0 -27 -1.5t-32 -5.5t-28.5 -11
t-16.5 -19q-4 -10 -3 -26.5t0 -27.5v-9.5v-14t0.5 -13.5t2.5 -9q2 -5 7.5 -11t7.5 -8q6 -5 16.5 -7.5t21.5 -3.5t22 -1.5t19 -1.5q22 -3 43.5 8.5t41.5 23.5z" />
    <glyph glyph-name="uniE003" unicode="bb" horiz-adv-x="921" 
d="M425 220q15 -17 26 -37.5t7 -45.5q-5 -30 -24 -58.5t-45.5 -52t-57 -39.5t-59.5 -20q-35 -6 -70 -6q-18 0 -36 1.5t-36 6.5q-7 0 -13.5 4t-11.5 9q-14 12 -24 25t-12 30q-1 10 -1 23.5t-0.5 27t-0.5 27t-1 23.5q-2 11 -4.5 23.5t-2.5 25.5q-1 28 -3 56.5t-4 57.5
q-1 11 -1 21t-1 21q0 46 -7 90t-7 95q0 15 1 29t-10 25q-11 9 -15.5 17t-2.5 24q2 14 10.5 24.5t21.5 16.5q14 7 26.5 6t26.5 -3q8 -2 16.5 -0.5t16.5 1.5q8 1 16 0l16 -2q15 -1 30 -4.5t30 -6.5q14 -4 29 -8t29 -10q14 -7 25.5 -19.5t21.5 -23.5q30 -33 50 -69
q9 -16 13.5 -34t12.5 -35q14 -31 14 -62q0 -14 -3.5 -29t-11.5 -29q-17 -30 -40 -55q-3 -4 -5.5 -8t-4.5 -9q17 -14 39 -21t37 -23zM117 584q-3 -1 -4 -14.5t-1 -35.5q0 -29 2 -68t5 -75t7.5 -63.5t9.5 -33.5q5 -8 14.5 -10t20.5 -2q12 0 24 1.5t21 1.5q25 -1 43 3t35 25
q13 15 24.5 36.5t11.5 41.5q-1 37 -16 72.5t-40 63t-58 44t-70 16.5q-14 0 -29 -3zM318 69q22 14 37 34t15 40q0 13 -7.5 24.5t-25.5 19.5q-20 11 -45.5 16t-48.5 4q-11 0 -27 -1.5t-32 -5.5t-28.5 -11t-16.5 -19q-4 -10 -3 -26.5t0 -27.5v-9.5v-14t0.5 -13.5t2.5 -9
q2 -5 7.5 -11t7.5 -8q6 -5 16.5 -7.5t21.5 -3.5t22 -1.5t19 -1.5q22 -3 43.5 8.5t41.5 23.5zM884 220q15 -22 20.5 -47.5t1.5 -51.5q-5 -26 -13.5 -49.5t-31.5 -40.5q-22 -15 -50.5 -29t-54.5 -19q-29 -7 -66 -7q-28 0 -55.5 5.5t-52.5 17.5q-33 16 -48.5 40.5t-21.5 52.5
t-7 59t-6 61q-2 16 -5 31.5t-3 32.5q0 30 -0.5 61.5t-3.5 61.5q-3 26 -5.5 50.5t-5.5 50.5q-2 23 -4 48.5t-11 46.5q-4 11 -8 23.5t-4 25.5q0 11 3.5 20t13.5 17q7 6 19 9t25.5 4.5t27 2t22.5 -0.5q26 -2 50 -10.5t47 -16.5q26 -9 50 -24t45 -33q40 -35 74.5 -77.5
t45.5 -95.5q4 -15 4 -33q0 -31 -15 -61q-10 -21 -27 -37.5t-29 -36.5q19 -8 43 -21t36 -30zM586 299q2 -9 11 -12t20 -3t22.5 1.5t19.5 2.5q29 3 52 14t41 35q12 17 21.5 35.5t9.5 38.5q0 8 -2 16.5t-7 16.5q-16 27 -34.5 55t-42.5 48q-12 11 -27 17t-29 14
q-12 8 -25.5 16.5t-27.5 11.5q-5 1 -14.5 2t-13.5 -2q-6 -4 -6 -12.5v-13.5q1 -15 1.5 -30.5t2.5 -29.5q2 -16 3.5 -31.5t3.5 -30.5q5 -26 6.5 -52t4.5 -52q2 -14 4 -27.5t6 -27.5zM795 97q8 9 16 24t4 29q-3 14 -15.5 24t-23.5 16t-25.5 8.5t-29.5 2.5q-17 0 -32.5 -2
t-29.5 -4q-12 -2 -30.5 -2.5t-27.5 -10.5q-5 -6 -6 -14.5t-0.5 -18.5t2 -19.5t1.5 -16.5q-1 -14 5.5 -27.5t20.5 -19.5q13 -6 28.5 -10t29.5 -3q28 2 60.5 11.5t52.5 32.5z" />
    <glyph glyph-name="uniE004" unicode="CC" horiz-adv-x="913" 
d="M104 669q8 7 19 13q20 14 44 20.5t49 6.5q47 0 86 -21q20 -11 37 -27t28 -37q8 -15 13.5 -37t5.5 -43q0 -17 -4 -28q-7 -16 -20.5 -25.5t-31.5 -7.5q-14 2 -23 13q-6 7 -4.5 15t-0.5 16q-2 18 -5 34.5t-16 29.5q-10 11 -22 21.5t-27 10.5q-9 0 -20 -2t-22 -5t-20.5 -8.5
t-14.5 -12.5q-12 -17 -24 -42.5t-16 -45.5q-3 -15 -4 -32.5t-1 -37.5q0 -47 4 -96t6 -86q1 -19 2.5 -41.5t6 -45.5t12 -44t19.5 -36q17 -23 41.5 -30t50.5 -7q10 0 19.5 0.5t19.5 1.5q16 2 36.5 6.5t33.5 14.5q6 5 9 13t4 17.5t1 19t1 17.5l3 33q0 8 -1 16.5t4 16.5
q8 13 25.5 15.5t29.5 -5.5q13 -9 15 -27.5t4 -32.5q1 -10 1.5 -19t0.5 -18q0 -17 -3 -33q-4 -17 -7.5 -33t-15.5 -30q-11 -13 -28 -23t-33 -18q-21 -11 -43.5 -14.5t-45.5 -3.5q-14 0 -26.5 -0.5t-25.5 -0.5q-14 0 -28 1t-29 5q-14 4 -25.5 12t-22.5 17q-12 8 -22.5 15.5
t-17.5 20.5q-13 25 -20 52.5t-12 54.5q-3 17 -9.5 34t-8.5 34q-2 18 -4.5 35t-3.5 35q0 8 -0.5 16.5t-0.5 18.5q0 38 1.5 81t0.5 73q-1 27 3 54.5t14 54t24.5 50t34.5 41.5zM813 592q8 -9 15.5 -20t10.5 -23q3 -10 6 -21.5t4 -21.5q0 -11 -5 -24t-16 -18.5t-25 -3.5
q-16 1 -22.5 8t-9 17t-5 21t-10.5 20q-14 15 -38.5 24t-47.5 9q-8 0 -16 -1t-14 -4q-15 -7 -26 -13t-18.5 -13.5t-12 -17.5t-7.5 -26q-3 -22 -5.5 -51t-2.5 -54q0 -12 -0.5 -26.5t-0.5 -30.5t0.5 -31t2.5 -26q2 -20 5.5 -49t8.5 -48q5 -16 7 -33.5t12 -31.5q5 -7 10.5 -9
t11.5 -7q6 -4 10.5 -8.5t11.5 -6.5q14 -6 35.5 -9t36.5 -1q26 2 51.5 17t42.5 36q7 9 11 22t7 24q1 7 1.5 13.5t1.5 12t4 9.5t11 5q12 2 27 -2t24 -12q10 -9 9 -23.5t-2 -26.5q-2 -22 -8.5 -38.5t-21.5 -33.5q-11 -11 -21.5 -22.5t-22.5 -22.5q-23 -19 -51.5 -28t-59.5 -9
q-14 0 -26 0.5t-26 4.5q-16 4 -31 4t-31 2q-19 2 -39 17t-29 32q-22 37 -29 76q-2 15 -3 30.5t-4 30.5q-3 17 -6 44.5t-5 44.5q-1 16 -3 36t-3.5 40t-2.5 39.5t1 35.5q2 30 7 57.5t17 54.5q8 20 17.5 41t25.5 35q17 17 36.5 25t42.5 13q13 3 26 2t25.5 -4.5t25.5 -8t26 -7.5
q23 -5 43 -12t36 -24z" />
    <glyph glyph-name="uniE005" unicode="cc" horiz-adv-x="907" 
d="M357 592q8 -9 15.5 -20t10.5 -23q3 -10 6 -21.5t4 -21.5q0 -11 -5 -24t-16 -18.5t-25 -3.5q-16 1 -22.5 8t-9 17t-5 21t-10.5 20q-14 15 -38.5 24t-47.5 9q-8 0 -16 -1t-14 -4q-15 -7 -26 -13t-18.5 -13.5t-12 -17.5t-7.5 -26q-3 -22 -5.5 -51t-2.5 -54q0 -12 -0.5 -26.5
t-0.5 -30.5t0.5 -31t2.5 -26q2 -20 5.5 -49t8.5 -48q5 -16 7 -33.5t12 -31.5q5 -7 10.5 -9t11.5 -7q6 -4 10.5 -8.5t11.5 -6.5q14 -6 35.5 -9t36.5 -1q26 2 51.5 17t42.5 36q7 9 11 22t7 24q1 7 1.5 13.5t1.5 12t4 9.5t11 5q12 2 27 -2t24 -12q10 -9 9 -23.5t-2 -26.5
q-2 -22 -8.5 -38.5t-21.5 -33.5q-11 -11 -21.5 -22.5t-22.5 -22.5q-23 -19 -51.5 -28t-59.5 -9q-14 0 -26 0.5t-26 4.5q-16 4 -31 4t-31 2q-19 2 -39 17t-29 32q-22 37 -29 76q-2 15 -3 30.5t-4 30.5q-3 17 -6 44.5t-5 44.5q-1 16 -3 36t-3.5 40t-2.5 39.5t1 35.5
q2 30 7 57.5t17 54.5q8 20 17.5 41t25.5 35q17 17 36.5 25t42.5 13q13 3 26 2t25.5 -4.5t25.5 -8t26 -7.5q23 -5 43 -12t36 -24zM544 669q8 7 19 13q20 14 44 20.5t49 6.5q47 0 86 -21q20 -11 37 -27t28 -37q8 -15 13.5 -37t5.5 -43q0 -17 -4 -28q-7 -16 -20.5 -25.5
t-31.5 -7.5q-14 2 -23 13q-6 7 -4.5 15t-0.5 16q-2 18 -5 34.5t-16 29.5q-10 11 -22 21.5t-27 10.5q-9 0 -20 -2t-22 -5t-20.5 -8.5t-14.5 -12.5q-12 -17 -24 -42.5t-16 -45.5q-3 -15 -4 -32.5t-1 -37.5q0 -47 4 -96t6 -86q1 -19 2.5 -41.5t6 -45.5t12 -44t19.5 -36
q17 -23 41.5 -30t50.5 -7q10 0 19.5 0.5t19.5 1.5q16 2 36.5 6.5t33.5 14.5q6 5 9 13t4 17.5t1 19t1 17.5l3 33q0 8 -1 16.5t4 16.5q8 13 25.5 15.5t29.5 -5.5q13 -9 15 -27.5t4 -32.5q1 -10 1.5 -19t0.5 -18q0 -17 -3 -33q-4 -17 -7.5 -33t-15.5 -30q-11 -13 -28 -23
t-33 -18q-21 -11 -43.5 -14.5t-45.5 -3.5q-14 0 -26.5 -0.5t-25.5 -0.5q-14 0 -28 1t-29 5q-14 4 -25.5 12t-22.5 17q-12 8 -22.5 15.5t-17.5 20.5q-13 25 -20 52.5t-12 54.5q-3 17 -9.5 34t-8.5 34q-2 18 -4.5 35t-3.5 35q0 8 -0.5 16.5t-0.5 18.5q0 38 1.5 81t0.5 73
q-1 27 3 54.5t14 54t24.5 50t34.5 41.5z" />
    <glyph glyph-name="uniE006" unicode="DD" horiz-adv-x="921" 
d="M423 221q0 -20 -0.5 -40.5t-1.5 -40.5q-3 -50 -34.5 -82.5t-79.5 -46.5q-26 -8 -56 -12t-61 -4q-22 0 -42.5 2.5t-38.5 7.5q-15 5 -20.5 11.5t-8.5 22.5q-2 14 -6.5 26.5t-6.5 26.5t-1 27.5t-1 27.5t-2 28.5t-1 28.5q-4 33 -5.5 66.5t-4.5 66.5q-5 55 -4 110t-1 111
q-1 10 -1 23.5t-3 22.5q-4 12 -12 14t-14 10q-8 11 -4.5 20.5t12 16t20 10t20.5 3.5q22 -1 46 -5t47.5 -11.5t45 -19t38.5 -27.5q24 -23 47 -43t40 -49q8 -15 17.5 -29.5t17.5 -29.5q8 -16 11.5 -33t10.5 -34q14 -35 24.5 -71.5t12.5 -74.5v-30zM342 182q5 42 -4.5 84
t-18.5 83q-9 44 -32.5 77t-49.5 69l-15 18t-23 23.5t-26.5 20t-24.5 8.5q-8 0 -13.5 -5t-7.5 -19q-3 -21 -0.5 -45t2.5 -46q0 -17 -0.5 -34t-0.5 -34v-16.5t1 -16.5q2 -20 7.5 -39t4.5 -37q-1 -10 -1.5 -19t-0.5 -19t0.5 -19.5t1.5 -18.5q2 -11 4 -21t4 -21q1 -11 1.5 -21.5
t5.5 -19.5q11 -19 33 -22t42 -1q46 5 76 24.5t35 66.5zM888 342q3 -16 4 -37t1 -43q0 -24 -0.5 -47.5t-2.5 -40.5q-2 -26 -7.5 -55t-19.5 -49t-29 -35t-35 -25q-25 -12 -55 -22.5t-58 -13.5q-31 -4 -61 -4.5t-60 -6.5q-12 -2 -26 -2.5t-25 7.5q-8 6 -9.5 12.5t-1 14t2 15.5
t0.5 16q-2 9 -4 17.5t-2 18.5v29v29q0 14 -0.5 29t-1.5 30q-2 17 -6.5 30.5t-8.5 28.5q-2 9 -3 24t-1.5 31.5t-1 31.5t-1.5 25q-9 67 -12 137q-2 36 -5.5 71t-13.5 68q-10 35 15 50q17 11 31 11t31 -2q60 -3 118 -23.5t100 -70.5q24 -29 49.5 -56t48.5 -58q20 -26 32 -64
t18 -71zM803 162q6 21 11.5 41.5t3.5 43.5q-2 20 -7 44.5t-12 49.5t-15.5 48t-17.5 41q-16 33 -41 60t-48 53q-14 16 -30 22t-35 14q-8 3 -17 8t-19 9t-19.5 6.5t-17.5 1.5q-5 -12 -3.5 -27t3.5 -28q2 -15 2.5 -35.5t1.5 -36.5q2 -30 5.5 -59.5t6.5 -59.5q1 -12 1.5 -30
t1.5 -36.5t2.5 -36t4.5 -29.5q6 -29 6 -57q0 -15 1 -29.5t1 -29.5t4.5 -32t6.5 -31q47 -2 95 8.5t88 37.5q14 11 22.5 31t13.5 38z" />
    <glyph glyph-name="uniE007" unicode="dd" horiz-adv-x="902" 
d="M459 342q3 -16 4 -37t1 -43q0 -24 -0.5 -47.5t-2.5 -40.5q-2 -26 -7.5 -55t-19.5 -49t-29 -35t-35 -25q-25 -12 -55 -22.5t-58 -13.5q-31 -4 -61 -4.5t-60 -6.5q-12 -2 -26 -2.5t-25 7.5q-8 6 -9.5 12.5t-1 14t2 15.5t0.5 16q-2 9 -4 17.5t-2 18.5v29v29q0 14 -0.5 29
t-1.5 30q-2 17 -6.5 30.5t-8.5 28.5q-2 9 -3 24t-1.5 31.5t-1 31.5t-1.5 25q-9 67 -12 137q-2 36 -5.5 71t-13.5 68q-10 35 15 50q17 11 31 11t31 -2q60 -3 118 -23.5t100 -70.5q24 -29 49.5 -56t48.5 -58q20 -26 32 -64t18 -71zM374 162q6 21 11.5 41.5t3.5 43.5
q-2 20 -7 44.5t-12 49.5t-15.5 48t-17.5 41q-16 33 -41 60t-48 53q-14 16 -30 22t-35 14q-8 3 -17 8t-19 9t-19.5 6.5t-17.5 1.5q-5 -12 -3.5 -27t3.5 -28q2 -15 2.5 -35.5t1.5 -36.5q2 -30 5.5 -59.5t6.5 -59.5q1 -12 1.5 -30t1.5 -36.5t2.5 -36t4.5 -29.5q6 -29 6 -57
q0 -15 1 -29.5t1 -29.5t4.5 -32t6.5 -31q47 -2 95 8.5t88 37.5q14 11 22.5 31t13.5 38zM887 221q0 -20 -0.5 -40.5t-1.5 -40.5q-3 -50 -34.5 -82.5t-79.5 -46.5q-26 -8 -56 -12t-61 -4q-22 0 -42.5 2.5t-38.5 7.5q-15 5 -20.5 11.5t-8.5 22.5q-2 14 -6.5 26.5t-6.5 26.5
t-1 27.5t-1 27.5t-2 28.5t-1 28.5q-4 33 -5.5 66.5t-4.5 66.5q-5 55 -4 110t-1 111q-1 10 -1 23.5t-3 22.5q-4 12 -12 14t-14 10q-8 11 -4.5 20.5t12 16t20 10t20.5 3.5q22 -1 46 -5t47.5 -11.5t45 -19t38.5 -27.5q24 -23 47 -43t40 -49q8 -15 17.5 -29.5t17.5 -29.5
q8 -16 11.5 -33t10.5 -34q14 -35 24.5 -71.5t12.5 -74.5v-30zM806 182q5 42 -4.5 84t-18.5 83q-9 44 -32.5 77t-49.5 69l-15 18t-23 23.5t-26.5 20t-24.5 8.5q-8 0 -13.5 -5t-7.5 -19q-3 -21 -0.5 -45t2.5 -46q0 -17 -0.5 -34t-0.5 -34v-16.5t1 -16.5q2 -20 7.5 -39t4.5 -37
q-1 -10 -1.5 -19t-0.5 -19t0.5 -19.5t1.5 -18.5q2 -11 4 -21t4 -21q1 -11 1.5 -21.5t5.5 -19.5q11 -19 33 -22t42 -1q46 5 76 24.5t35 66.5z" />
    <glyph glyph-name="uniE008" unicode="EE" horiz-adv-x="811" 
d="M343 12q-10 -8 -21.5 -10.5t-23.5 -2.5q-15 0 -30.5 2.5t-29.5 4.5q-17 2 -46 -3t-56 -5q-20 0 -34 5.5t-19 20.5q-2 9 0 21t2 20q0 11 -1 20.5t-3 20.5q-6 51 -14.5 102.5t-16.5 103t-14 103.5t-6 104q0 29 -4 58.5t0 55.5t17.5 34t31.5 8q16 0 31 -3q28 -5 57.5 -8
t56.5 -8q26 -5 53.5 -5.5t48.5 -14.5q14 -10 14 -30q0 -17 -10.5 -31.5t-29.5 -16.5q-12 -1 -24.5 2t-26 7l-27 8t-26.5 5q-20 2 -38.5 3t-38.5 1q-7 -17 -7 -39q0 -20 3.5 -39.5t5.5 -36.5q3 -29 2 -59.5t4 -59.5q2 -11 3.5 -21t3.5 -21q5 -14 14 -17t25 -3q17 0 32.5 1
t32.5 2q16 1 32 -0.5t32 0.5q15 2 27 -1t18 -21q6 -17 -3 -30.5t-24 -21.5q-19 -10 -42 -10q-19 0 -38 3.5t-36 3.5q-5 0 -12 0.5t-15 0t-14.5 -2.5t-9.5 -6q-5 -14 -1.5 -30.5t4.5 -30.5q2 -17 3.5 -29t6.5 -20.5t16 -12t31 -2.5q30 2 54 3t54 1q10 0 24 -8.5t21 -22.5
q8 -14 -0.5 -24.5t-18.5 -17.5zM802 6q-4 -5 -12 -7t-17 -2q-15 0 -31 3t-26 5q-24 4 -48 3.5t-48 2.5t-40.5 -1t-38.5 -10q-15 -5 -36 -8.5t-37 4.5q-14 8 -18.5 17.5t-4.5 20.5q0 9 1.5 17.5t2.5 17.5q2 21 -2 46.5t-6 47.5q-2 27 -3.5 54.5t-3.5 55.5q-4 39 -6 78.5
t-7 78.5q-2 17 -3 35t-3 36q-2 20 -4.5 44t-10.5 43q-5 10 -9.5 18.5t-5.5 19.5q-1 21 14 26t33 3q40 -2 79 -5.5t79 -9.5q23 -4 44.5 -9.5t44.5 -9.5q11 -2 22.5 -2.5t22 -2.5t19.5 -6.5t17 -14.5q11 -16 11 -28q0 -23 -25 -31q-17 -6 -42 0t-44 11q-23 7 -44.5 11t-44.5 6
q-10 1 -23 3.5t-25 2.5q-20 0 -28 -13q-4 -8 -4.5 -20t1 -25t3.5 -26t2 -22q1 -23 -0.5 -44.5t0.5 -44.5q2 -17 4 -33.5t4 -33.5l6 -14t8 -10q8 -4 19.5 -4.5t19.5 -2.5q8 -1 15.5 -1.5t15.5 -0.5q14 0 28.5 1t28.5 3q11 2 25.5 4t28.5 2q18 0 32 -6q18 -8 27.5 -28.5
t-2.5 -38.5q-11 -16 -31 -16q-12 0 -24 3t-23 4q-9 1 -17.5 1.5t-17.5 0.5q-14 0 -27 -0.5t-27 -1.5q-12 0 -23 -0.5t-20 -3.5t-15.5 -10.5t-9.5 -20.5q-3 -16 0 -31.5t8 -30.5q3 -8 12 -12t20.5 -5t23.5 -0.5t21 0.5q21 0 44 -0.5t43 -2.5q12 0 23.5 -1t22.5 -1q9 0 24 0.5
t23 -3.5q11 -6 16.5 -19.5t5.5 -27.5q0 -18 -7 -28z" />
    <glyph glyph-name="uniE009" unicode="ee" horiz-adv-x="811" 
d="M424 6q-4 -5 -12 -7t-17 -2q-15 0 -31 3t-26 5q-24 4 -48 3.5t-48 2.5t-40.5 -1t-38.5 -10q-15 -5 -36 -8.5t-37 4.5q-14 8 -18.5 17.5t-4.5 20.5q0 9 1.5 17.5t2.5 17.5q2 21 -2 46.5t-6 47.5q-2 27 -3.5 54.5t-3.5 55.5q-4 39 -6 78.5t-7 78.5q-2 17 -3 35t-3 36
q-2 20 -4.5 44t-10.5 43q-5 10 -9.5 18.5t-5.5 19.5q-1 21 14 26t33 3q40 -2 79 -5.5t79 -9.5q23 -4 44.5 -9.5t44.5 -9.5q11 -2 22.5 -2.5t22 -2.5t19.5 -6.5t17 -14.5q11 -16 11 -28q0 -23 -25 -31q-17 -6 -42 0t-44 11q-23 7 -44.5 11t-44.5 6q-10 1 -23 3.5t-25 2.5
q-20 0 -28 -13q-4 -8 -4.5 -20t1 -25t3.5 -26t2 -22q1 -23 -0.5 -44.5t0.5 -44.5q2 -17 4 -33.5t4 -33.5l6 -14t8 -10q8 -4 19.5 -4.5t19.5 -2.5q8 -1 15.5 -1.5t15.5 -0.5q14 0 28.5 1t28.5 3q11 2 25.5 4t28.5 2q18 0 32 -6q18 -8 27.5 -28.5t-2.5 -38.5q-11 -16 -31 -16
q-12 0 -24 3t-23 4q-9 1 -17.5 1.5t-17.5 0.5q-14 0 -27 -0.5t-27 -1.5q-12 0 -23 -0.5t-20 -3.5t-15.5 -10.5t-9.5 -20.5q-3 -16 0 -31.5t8 -30.5q3 -8 12 -12t20.5 -5t23.5 -0.5t21 0.5q21 0 44 -0.5t43 -2.5q12 0 23.5 -1t22.5 -1q9 0 24 0.5t23 -3.5q11 -6 16.5 -19.5
t5.5 -27.5q0 -18 -7 -28zM776 12q-10 -8 -21.5 -10.5t-23.5 -2.5q-15 0 -30.5 2.5t-29.5 4.5q-17 2 -46 -3t-56 -5q-20 0 -34 5.5t-19 20.5q-2 9 0 21t2 20q0 11 -1 20.5t-3 20.5q-6 51 -14.5 102.5t-16.5 103t-14 103.5t-6 104q0 29 -4 58.5t0 55.5t17.5 34t31.5 8
q16 0 31 -3q28 -5 57.5 -8t56.5 -8q26 -5 53.5 -5.5t48.5 -14.5q14 -10 14 -30q0 -17 -10.5 -31.5t-29.5 -16.5q-12 -1 -24.5 2t-26 7l-27 8t-26.5 5q-20 2 -38.5 3t-38.5 1q-7 -17 -7 -39q0 -20 3.5 -39.5t5.5 -36.5q3 -29 2 -59.5t4 -59.5q2 -11 3.5 -21t3.5 -21
q5 -14 14 -17t25 -3q17 0 32.5 1t32.5 2q16 1 32 -0.5t32 0.5q15 2 27 -1t18 -21q6 -17 -3 -30.5t-24 -21.5q-19 -10 -42 -10q-19 0 -38 3.5t-36 3.5q-5 0 -12 0.5t-15 0t-14.5 -2.5t-9.5 -6q-5 -14 -1.5 -30.5t4.5 -30.5q2 -17 3.5 -29t6.5 -20.5t16 -12t31 -2.5q30 2 54 3
t54 1q10 0 24 -8.5t21 -22.5q8 -14 -0.5 -24.5t-18.5 -17.5z" />
    <glyph glyph-name="uniE00A" unicode="FF" horiz-adv-x="776" 
d="M348 241q-11 -3 -25 1t-25 5q-14 0 -29.5 0.5t-29.5 3.5q-8 2 -19 3t-24 1q-18 0 -34 -4t-22 -18q-2 -5 -3 -10.5t-1 -11.5q3 -41 6.5 -81t12.5 -78q7 -29 -6.5 -42.5t-31.5 -13.5q-17 0 -32 11t-18 33q-4 24 -4 47.5t-2 46.5q-2 19 -2.5 38t-0.5 38v77q0 26 -1 52.5
t-6 52.5q-6 32 -9.5 63t-6.5 63q-2 25 -5 49t-5 48q-1 10 1 21t8 20.5t15 15t22 5.5q11 0 21 -6t21 -8q13 -2 25.5 -2t25.5 -2q22 -5 43.5 -10t44.5 -8q24 -4 52 -3t51 -9q11 -5 17.5 -18t6.5 -27q0 -17 -9 -27q-6 -8 -13 -11t-15 -3q-14 0 -29 5.5t-29 7.5q-23 4 -47.5 6.5
t-48.5 6.5q-10 2 -20 3.5t-20 1.5q-14 0 -24 -5.5t-13 -22.5q-2 -12 -1 -24t3 -24t4.5 -24t3.5 -24q2 -23 2.5 -45t2.5 -45q1 -8 2 -14.5t4 -8.5q8 -9 23 -9.5t26 -1.5q14 -1 28 -1.5t28 -0.5t28.5 -0.5t28.5 -0.5q13 0 27.5 -0.5t26.5 -3.5q13 -4 19.5 -15t6.5 -24
t-6.5 -24t-19.5 -15zM747 240q-11 -11 -23 -11.5t-26 1.5t-27 3t-27 2q-14 2 -27 1t-27 1q-11 1 -28 2.5t-26 -5.5q-10 -10 -8 -23.5t3 -24.5q2 -26 1 -52.5t6 -52.5q4 -16 8.5 -33.5t4.5 -34.5q0 -18 -7 -33q-6 -13 -14.5 -18.5t-17.5 -5.5q-11 0 -21 8.5t-15 24.5
q-9 31 -12 64t-4.5 66t-2.5 66.5t-5 65.5q-5 38 -4.5 76.5t-4.5 76.5q-3 32 -7 62t-6 62q-2 26 -9 53.5t-2 54.5q2 9 7.5 21.5t14.5 17.5q10 6 23.5 1t24.5 -7q26 -7 51.5 -15.5t52.5 -15.5q26 -7 51.5 -10.5t51.5 -7.5q13 -2 26 -4.5t20 -13.5q8 -12 4 -26.5t-14 -23.5
q-18 -17 -41 -17q-14 0 -29 4.5t-30 8.5q-23 5 -44 10t-44 10q-25 5 -32 -5t-7 -27q0 -8 0.5 -16t1.5 -16q2 -27 6.5 -53.5t6.5 -52.5q2 -14 2 -28.5t3 -28.5q2 -14 10.5 -19.5t22.5 -6.5q14 0 27 -2t27 -3t27 -2t27 -3t27.5 -0.5t27.5 1.5q19 -1 30 -11.5t11 -24.5
q0 -17 -15 -30z" />
    <glyph glyph-name="uniE00B" unicode="ff" horiz-adv-x="776" 
d="M357 240q-11 -11 -23 -11.5t-26 1.5t-27 3t-27 2q-14 2 -27 1t-27 1q-11 1 -28 2.5t-26 -5.5q-10 -10 -8 -23.5t3 -24.5q2 -26 1 -52.5t6 -52.5q4 -16 8.5 -33.5t4.5 -34.5q0 -18 -7 -33q-6 -13 -14.5 -18.5t-17.5 -5.5q-11 0 -21 8.5t-15 24.5q-9 31 -12 64t-4.5 66
t-2.5 66.5t-5 65.5q-5 38 -4.5 76.5t-4.5 76.5q-3 32 -7 62t-6 62q-2 26 -9 53.5t-2 54.5q2 9 7.5 21.5t14.5 17.5q10 6 23.5 1t24.5 -7q26 -7 51.5 -15.5t52.5 -15.5q26 -7 51.5 -10.5t51.5 -7.5q13 -2 26 -4.5t20 -13.5q8 -12 4 -26.5t-14 -23.5q-18 -17 -41 -17
q-14 0 -29 4.5t-30 8.5q-23 5 -44 10t-44 10q-25 5 -32 -5t-7 -27q0 -8 0.5 -16t1.5 -16q2 -27 6.5 -53.5t6.5 -52.5q2 -14 2 -28.5t3 -28.5q2 -14 10.5 -19.5t22.5 -6.5q14 0 27 -2t27 -3t27 -2t27 -3t27.5 -0.5t27.5 1.5q19 -1 30 -11.5t11 -24.5q0 -17 -15 -30zM734 241
q-11 -3 -25 1t-25 5q-14 0 -29.5 0.5t-29.5 3.5q-8 2 -19 3t-24 1q-18 0 -34 -4t-22 -18q-2 -5 -3 -10.5t-1 -11.5q3 -41 6.5 -81t12.5 -78q7 -29 -6.5 -42.5t-31.5 -13.5q-17 0 -32 11t-18 33q-4 24 -4 47.5t-2 46.5q-2 19 -2.5 38t-0.5 38v77q0 26 -1 52.5t-6 52.5
q-6 32 -9.5 63t-6.5 63q-2 25 -5 49t-5 48q-1 10 1 21t8 20.5t15 15t22 5.5q11 0 21 -6t21 -8q13 -2 25.5 -2t25.5 -2q22 -5 43.5 -10t44.5 -8q24 -4 52 -3t51 -9q11 -5 17.5 -18t6.5 -27q0 -17 -9 -27q-6 -8 -13 -11t-15 -3q-14 0 -29 5.5t-29 7.5q-23 4 -47.5 6.5
t-48.5 6.5q-10 2 -20 3.5t-20 1.5q-14 0 -24 -5.5t-13 -22.5q-2 -12 -1 -24t3 -24t4.5 -24t3.5 -24q2 -23 2.5 -45t2.5 -45q1 -8 2 -14.5t4 -8.5q8 -9 23 -9.5t26 -1.5q14 -1 28 -1.5t28 -0.5t28.5 -0.5t28.5 -0.5q13 0 27.5 -0.5t26.5 -3.5q13 -4 19.5 -15t6.5 -24
t-6.5 -24t-19.5 -15z" />
    <glyph glyph-name="uniE00C" unicode="GG" horiz-adv-x="921" 
d="M392 618q11 -12 16 -31t5 -39q0 -23 -6 -44t-17 -34q-21 -24 -50 -7q-12 7 -16 14t-4 15q0 9 2.5 19t3.5 21q2 26 -12 37t-39 14q-11 1 -19 2.5t-15.5 2.5t-15.5 2t-19 1q-8 0 -17 1t-18 1q-13 0 -24.5 -3.5t-19.5 -14.5q-13 -17 -14 -38.5t-1 -42.5q-1 -24 -2.5 -48
t-0.5 -50q2 -51 3.5 -100.5t11.5 -99.5q2 -10 2.5 -21.5t3 -22.5t7 -21t13.5 -17q2 -2 13 -5t23.5 -6t25 -5.5t17.5 -2.5q18 0 36.5 1.5t37.5 2.5q11 0 21.5 -2.5t21.5 -0.5q14 3 19 12t5 20q0 10 -2.5 20t-5.5 19q-7 21 -18 28t-25 7t-30 -4t-32 -4q-11 0 -21 3.5t-19 12.5
q-5 5 -7.5 12.5t-2.5 15.5q0 14 7 25.5t20 12.5q23 2 45.5 2t45.5 2q10 1 19 2t19 1q13 0 24.5 -3t22.5 -13q18 -15 23.5 -34t11.5 -39q7 -23 12.5 -45t11.5 -45q2 -10 6 -21.5t6.5 -24t2.5 -24t-5 -21.5q-4 -7 -13 -13t-20 -9t-21 -3t-15 6t-6.5 10t-3 7t-4.5 5t-12 4
t-18 1t-20 -1q-38 1 -67.5 -5t-62.5 -6q-11 0 -21.5 1t-22.5 3q-24 5 -47 11t-40 27q-15 17 -21 40t-10 44q-11 59 -15 119.5t-9 120.5q-2 24 -3 48.5t-1 49.5t1 49t4 48q2 21 10 42t21 37.5t31.5 26.5t42.5 9q49 -3 90 -9t86 -22q21 -7 43.5 -13t36.5 -23zM918 -17
q-7 -7 -18 -9.5t-20 -0.5q-11 1 -18 6t-18 7q-12 2 -29 -1t-31 -2q-15 -2 -30 -3t-31 -2q-20 -1 -38.5 2t-38.5 4h-17t-17 3t-15.5 10t-14.5 12q-15 11 -23 24t-14 30t-12.5 33t-11.5 33q-6 20 -9 38t-5 38q-3 23 -5 52t-3.5 60.5t-2.5 63t-1 58.5v30q2 45 19 90t53 73
q17 13 39 23.5t45 11.5q26 2 50.5 -4.5t50.5 -11.5q20 -4 44 -8.5t41 -17.5q24 -20 32 -44.5t9 -52.5q2 -23 -5.5 -43.5t-34.5 -22.5q-5 0 -16 1.5t-16 3.5q-10 5 -10 11.5v15.5q0 15 -3.5 31t-13.5 27q-14 17 -39 24t-49 7q-18 0 -33 -3q-18 -4 -30.5 -16.5t-21 -30
t-13.5 -36.5t-7 -35q-3 -19 -8.5 -40.5t-3.5 -41.5q1 -11 3 -30t3.5 -40t3 -40.5t2.5 -30.5q2 -20 5 -38.5t8 -37.5q1 -6 4 -14.5t6 -18t6.5 -17.5t6.5 -12q6 -9 21.5 -16.5t25.5 -9.5q16 -5 31.5 -7.5t32.5 -1.5q17 0 33.5 3t33.5 4q2 1 6 1q12 4 19.5 9t5.5 23
q0 9 -1.5 20.5t-4 23.5t-5.5 22.5t-7 18.5q-5 9 -14.5 12t-20.5 3t-21 -1.5t-18 -3.5q-11 -2 -19 -4.5t-20 2.5q-9 5 -14.5 12t-10.5 18q-8 20 -5 35.5t25 22.5q8 2 19 0.5t19 -2.5q11 -1 20.5 0.5t19.5 3.5l22 4t22 2q20 0 33 -9q17 -12 25.5 -24t13.5 -35q4 -20 8.5 -41
t7.5 -41q6 -44 18 -86q2 -11 5 -22t3 -22q0 -20 -13 -32z" />
    <glyph glyph-name="uniE00D" unicode="gg" horiz-adv-x="921" 
d="M451 -17q-7 -7 -18 -9.5t-20 -0.5q-11 1 -18 6t-18 7q-12 2 -29 -1t-31 -2q-15 -2 -30 -3t-31 -2q-20 -1 -38.5 2t-38.5 4h-17t-17 3t-15.5 10t-14.5 12q-15 11 -23 24t-14 30t-12.5 33t-11.5 33q-6 20 -9 38t-5 38q-3 23 -5 52t-3.5 60.5t-2.5 63t-1 58.5v30q2 45 19 90
t53 73q17 13 39 23.5t45 11.5q26 2 50.5 -4.5t50.5 -11.5q20 -4 44 -8.5t41 -17.5q24 -20 32 -44.5t9 -52.5q2 -23 -5.5 -43.5t-34.5 -22.5q-5 0 -16 1.5t-16 3.5q-10 5 -10 11.5v15.5q0 15 -3.5 31t-13.5 27q-14 17 -39 24t-49 7q-18 0 -33 -3q-18 -4 -30.5 -16.5t-21 -30
t-13.5 -36.5t-7 -35q-3 -19 -8.5 -40.5t-3.5 -41.5q1 -11 3 -30t3.5 -40t3 -40.5t2.5 -30.5q2 -20 5 -38.5t8 -37.5q1 -6 4 -14.5t6 -18t6.5 -17.5t6.5 -12q6 -9 21.5 -16.5t25.5 -9.5q16 -5 31.5 -7.5t32.5 -1.5q17 0 33.5 3t33.5 4q2 1 6 1q12 4 19.5 9t5.5 23
q0 9 -1.5 20.5t-4 23.5t-5.5 22.5t-7 18.5q-5 9 -14.5 12t-20.5 3t-21 -1.5t-18 -3.5q-11 -2 -19 -4.5t-20 2.5q-9 5 -14.5 12t-10.5 18q-8 20 -5 35.5t25 22.5q8 2 19 0.5t19 -2.5q11 -1 20.5 0.5t19.5 3.5l22 4t22 2q20 0 33 -9q17 -12 25.5 -24t13.5 -35q4 -20 8.5 -41
t7.5 -41q6 -44 18 -86q2 -11 5 -22t3 -22q0 -20 -13 -32zM846 618q11 -12 16 -31t5 -39q0 -23 -6 -44t-17 -34q-21 -24 -50 -7q-12 7 -16 14t-4 15q0 9 2.5 19t3.5 21q2 26 -12 37t-39 14q-11 1 -19 2.5t-15.5 2.5t-15.5 2t-19 1q-8 0 -17 1t-18 1q-13 0 -24.5 -3.5
t-19.5 -14.5q-13 -17 -14 -38.5t-1 -42.5q-1 -24 -2.5 -48t-0.5 -50q2 -51 3.5 -100.5t11.5 -99.5q2 -10 2.5 -21.5t3 -22.5t7 -21t13.5 -17q2 -2 13 -5t23.5 -6t25 -5.5t17.5 -2.5q18 0 36.5 1.5t37.5 2.5q11 0 21.5 -2.5t21.5 -0.5q14 3 19 12t5 20q0 10 -2.5 20t-5.5 19
q-7 21 -18 28t-25 7t-30 -4t-32 -4q-11 0 -21 3.5t-19 12.5q-5 5 -7.5 12.5t-2.5 15.5q0 14 7 25.5t20 12.5q23 2 45.5 2t45.5 2q10 1 19 2t19 1q13 0 24.5 -3t22.5 -13q18 -15 23.5 -34t11.5 -39q7 -23 12.5 -45t11.5 -45q2 -10 6 -21.5t6.5 -24t2.5 -24t-5 -21.5
q-4 -7 -13 -13t-20 -9t-21 -3t-15 6t-6.5 10t-3 7t-4.5 5t-12 4t-18 1t-20 -1q-38 1 -67.5 -5t-62.5 -6q-11 0 -21.5 1t-22.5 3q-24 5 -47 11t-40 27q-15 17 -21 40t-10 44q-11 59 -15 119.5t-9 120.5q-2 24 -3 48.5t-1 49.5t1 49t4 48q2 21 10 42t21 37.5t31.5 26.5t42.5 9
q49 -3 90 -9t86 -22q21 -7 43.5 -13t36.5 -23z" />
    <glyph glyph-name="uniE00E" unicode="HH" horiz-adv-x="873" 
d="M408 13q-8 -13 -22.5 -15.5t-28.5 2.5q-15 4 -22.5 15.5t-11.5 26t-4.5 30.5t-0.5 28v36t-1 37q0 8 0.5 16.5t-0.5 17.5q-3 25 -26 26q-24 3 -52 3q-10 0 -19.5 -0.5t-18.5 -1.5q-10 -1 -21.5 -1.5t-20.5 -6.5q-8 -5 -7.5 -17t0.5 -20v-10.5t1 -10.5q3 -21 5 -42t3 -42
q1 -14 3 -30t-5 -30t-24 -16q-5 -1 -15 -0.5t-15 2.5q-16 6 -17 22t-2 30q-1 17 -2.5 33.5t-5.5 33.5q-5 24 -7.5 48.5t-6.5 49.5l-10 54t-7 54q-3 48 -6.5 93t-8.5 92q-1 8 -0.5 17t-1.5 29q-1 8 -1.5 17t0.5 17q0 8 -2 14.5t2 14.5q3 7 9.5 11.5t14.5 7.5q14 5 27.5 0
t21.5 -16q5 -7 7.5 -11.5t2.5 -14.5q1 -8 0.5 -15.5t-0.5 -15.5q0 -49 2.5 -98.5t6.5 -98.5q1 -5 1.5 -11t1.5 -11q2 -7 3 -13t4 -12q5 -9 9.5 -11t14.5 -4q11 -2 21.5 -1t21.5 1q11 -1 22 -1t22 2q11 1 22 2.5t20 4.5t15 10t6 21q0 20 -1.5 35.5t-2.5 30.5q-5 45 -7.5 90
t-6.5 90q-3 30 14 55q6 10 22.5 16.5t27.5 1.5q14 -7 18.5 -20.5t4.5 -30.5t-2 -34t-1 -29q2 -40 2.5 -80t6.5 -80q8 -46 13 -93.5t5 -95.5q0 -17 -1 -36.5t-1 -38.5q0 -17 1.5 -34t5.5 -33q3 -12 8 -28.5t-3 -27.5zM849 -10q-11 -6 -28 -3.5t-26 12.5q-10 11 -12 29t-4 32
q-4 24 -6.5 49.5t-8.5 48.5q-5 20 -12 33.5t-29 15.5q-21 2 -42.5 0.5t-41.5 -3.5q-11 -1 -23 -1.5t-22.5 -3t-17.5 -9t-7 -20.5q1 -18 1.5 -37.5t6.5 -36.5q5 -14 11.5 -26.5t8.5 -27.5q2 -19 -4.5 -27.5t-22.5 -17.5q-14 -8 -28.5 -2.5t-24.5 18.5q-9 13 -11 27t-4 29
q-3 31 -3 65q1 13 -1.5 26t-5.5 25q-8 34 -9 67.5t-1 67.5q-1 29 -5 59t-7 59q-2 19 -4 32.5t-4 25t-3.5 24.5t-2.5 32q-1 6 -1 15t2 15q2 4 8.5 9.5t10.5 8.5q13 8 28.5 4.5t26.5 -11.5q8 -6 10 -9.5t2 -12.5t1 -18t0 -18q0 -11 -1 -15.5t-2 -8t-1 -8.5v-15q2 -45 9 -89
t10 -89q2 -8 5 -15t8 -10q6 -4 16.5 -5.5t21.5 -1.5t21.5 1t17.5 2q11 1 21 2l20 2q8 1 19 0.5t19 4.5q7 4 10.5 12t5 17.5t1.5 19.5v18q-3 20 -7.5 40.5t-9.5 40.5q-9 45 -12 92q-1 17 -4.5 34t-2.5 33q1 14 8.5 29t18.5 25q11 9 27 7.5t24 -12.5q9 -12 7.5 -30t0.5 -33
q2 -20 4.5 -40.5t4.5 -41.5q4 -51 10 -101.5t15 -100.5q9 -48 12 -97.5t11 -97.5q3 -16 6 -30.5t8 -29.5q5 -16 2.5 -30.5t-19.5 -23.5z" />
    <glyph glyph-name="uniE00F" unicode="hh" horiz-adv-x="873" 
d="M412 -10q-11 -6 -28 -3.5t-26 12.5q-10 11 -12 29t-4 32q-4 24 -6.5 49.5t-8.5 48.5q-5 20 -12 33.5t-29 15.5q-21 2 -42.5 0.5t-41.5 -3.5q-11 -1 -23 -1.5t-22.5 -3t-17.5 -9t-7 -20.5q1 -18 1.5 -37.5t6.5 -36.5q5 -14 11.5 -26.5t8.5 -27.5q2 -19 -4.5 -27.5
t-22.5 -17.5q-14 -8 -28.5 -2.5t-24.5 18.5q-9 13 -11 27t-4 29q-3 31 -3 65q1 13 -1.5 26t-5.5 25q-8 34 -9 67.5t-1 67.5q-1 29 -5 59t-7 59q-2 19 -4 32.5t-4 25t-3.5 24.5t-2.5 32q-1 6 -1 15t2 15q2 4 8.5 9.5t10.5 8.5q13 8 28.5 4.5t26.5 -11.5q8 -6 10 -9.5t2 -12.5
t1 -18t0 -18q0 -11 -1 -15.5t-2 -8t-1 -8.5v-15q2 -45 9 -89t10 -89q2 -8 5 -15t8 -10q6 -4 16.5 -5.5t21.5 -1.5t21.5 1t17.5 2q11 1 21 2l20 2q8 1 19 0.5t19 4.5q7 4 10.5 12t5 17.5t1.5 19.5v18q-3 20 -7.5 40.5t-9.5 40.5q-9 45 -12 92q-1 17 -4.5 34t-2.5 33
q1 14 8.5 29t18.5 25q11 9 27 7.5t24 -12.5q9 -12 7.5 -30t0.5 -33q2 -20 4.5 -40.5t4.5 -41.5q4 -51 10 -101.5t15 -100.5q9 -48 12 -97.5t11 -97.5q3 -16 6 -30.5t8 -29.5q5 -16 2.5 -30.5t-19.5 -23.5zM844 13q-8 -13 -22.5 -15.5t-28.5 2.5q-15 4 -22.5 15.5t-11.5 26
t-4.5 30.5t-0.5 28v36t-1 37q0 8 0.5 16.5t-0.5 17.5q-3 25 -26 26q-24 3 -52 3q-10 0 -19.5 -0.5t-18.5 -1.5q-10 -1 -21.5 -1.5t-20.5 -6.5q-8 -5 -7.5 -17t0.5 -20v-10.5t1 -10.5q3 -21 5 -42t3 -42q1 -14 3 -30t-5 -30t-24 -16q-5 -1 -15 -0.5t-15 2.5q-16 6 -17 22
t-2 30q-1 17 -2.5 33.5t-5.5 33.5q-5 24 -7.5 48.5t-6.5 49.5l-10 54t-7 54q-3 48 -6.5 93t-8.5 92q-1 8 -0.5 17t-1.5 29q-1 8 -1.5 17t0.5 17q0 8 -2 14.5t2 14.5q3 7 9.5 11.5t14.5 7.5q14 5 27.5 0t21.5 -16q5 -7 7.5 -11.5t2.5 -14.5q1 -8 0.5 -15.5t-0.5 -15.5
q0 -49 2.5 -98.5t6.5 -98.5q1 -5 1.5 -11t1.5 -11q2 -7 3 -13t4 -12q5 -9 9.5 -11t14.5 -4q11 -2 21.5 -1t21.5 1q11 -1 22 -1t22 2q11 1 22 2.5t20 4.5t15 10t6 21q0 20 -1.5 35.5t-2.5 30.5q-5 45 -7.5 90t-6.5 90q-3 30 14 55q6 10 22.5 16.5t27.5 1.5q14 -7 18.5 -20.5
t4.5 -30.5t-2 -34t-1 -29q2 -40 2.5 -80t6.5 -80q8 -46 13 -93.5t5 -95.5q0 -17 -1 -36.5t-1 -38.5q0 -17 1.5 -34t5.5 -33q3 -12 8 -28.5t-3 -27.5z" />
    <glyph glyph-name="uniE010" unicode="II" horiz-adv-x="863" 
d="M329 19q-16 2 -33.5 3.5t-33.5 0.5q-17 0 -32.5 1.5t-32.5 1.5q-14 0 -26 -4.5t-26 -9.5t-24.5 -4t-23.5 8t-21 16.5t-6 26.5q2 14 10.5 26.5t23.5 13.5q14 1 28 -1.5t28 -2.5q10 0 25.5 1.5t22.5 10.5q6 8 4 24t-1 27q1 14 -3 27.5t-6 27.5q-6 34 -8 68t-2 68v68.5
t-4 68.5q-2 12 -1 27.5t-4 27.5q-5 13 -12.5 18.5t-21.5 7.5q-12 2 -22.5 5.5t-23.5 3.5q-7 1 -16 1t-17 1q-7 1 -14 -1.5t-13 -0.5q-11 2 -15.5 11.5t-4.5 20.5q0 15 6.5 30t16.5 20q11 5 26 6.5t26 -0.5q19 -3 38.5 -5t38.5 -4q33 -3 65.5 -7t65.5 -6q15 -1 29.5 -2.5
t26.5 -6t21.5 -14t14.5 -25.5q4 -11 0 -24t-16 -18q-12 -6 -25 -4t-27 3q-11 1 -28.5 2t-27.5 -4q-13 -7 -12.5 -20.5t2.5 -25.5q8 -77 11 -154t14 -154q2 -14 2 -29t2 -29q2 -15 7 -25.5t20 -11.5q15 0 29 -2t28 -2q15 -1 26.5 -1t22.5 -14q8 -10 9 -25t-4 -26
q-7 -15 -19.5 -18.5t-26.5 -3.5q-16 0 -28.5 4.5t-27.5 6.5zM556 652q16 -2 33.5 -3.5t33.5 -0.5q17 0 32.5 -1.5t32.5 -1.5q14 0 26 4.5t26 9.5t24.5 4t23.5 -8t21 -16.5t6 -26.5q-2 -14 -10.5 -26.5t-23.5 -13.5q-14 -1 -28 1.5t-28 2.5q-10 0 -25.5 -1.5t-22.5 -10.5
q-6 -8 -4 -24t1 -27q-1 -14 3 -27.5t6 -27.5q6 -34 8 -68t2 -68v-68.5t4 -68.5q2 -12 1 -27.5t4 -27.5q5 -13 12.5 -18.5t21.5 -7.5q12 -2 22.5 -5.5t23.5 -3.5q7 -1 16 -1t17 -1q7 -1 14 1.5t13 0.5q11 -2 15.5 -11.5t4.5 -20.5q0 -15 -6.5 -30t-16.5 -20q-11 -5 -26 -6.5
t-26 0.5q-19 3 -38.5 5t-38.5 4q-33 3 -65.5 7t-65.5 6q-15 1 -29.5 2.5t-26.5 6t-21.5 13.5t-14.5 26q-4 11 0 24t16 18q12 6 25 4t27 -3q11 -1 28.5 -2t27.5 4q13 7 12.5 20.5t-2.5 25.5q-8 77 -11 154t-14 154q-2 14 -2 29t-2 29q-2 15 -7 25.5t-20 11.5q-15 0 -29 2
t-28 2q-15 1 -26.5 1t-22.5 14q-8 10 -9 25t4 26q7 15 19.5 18.5t26.5 3.5q16 0 28.5 -4.5t27.5 -6.5z" />
    <glyph glyph-name="uniE011" unicode="ii" horiz-adv-x="338" 
d="M113 350q1 -19 5.5 -36.5t6.5 -35.5q2 -17 4 -32t4 -31q3 -14 1.5 -28t0.5 -28q2 -16 3.5 -31t4.5 -31q3 -15 9 -32.5t4 -33.5q-2 -14 -13.5 -25.5t-25.5 -13.5q-17 -3 -30 11t-15 30q-8 85 -17 170t-17 170q-2 24 -5.5 48t-6.5 48q-4 25 -8.5 49.5t1.5 50.5q4 14 18 29
t31 11q15 -4 26 -14.5t12 -25.5q1 -9 1 -18.5v-19.5q0 -15 -0.5 -30t-0.5 -30v-19.5t1 -18.5q2 -20 3.5 -41t2.5 -42zM222 295q-1 19 -5.5 36.5t-6.5 35.5q-2 17 -4 32t-4 31q-3 14 -1.5 28t-0.5 28q-2 16 -3.5 31t-4.5 31q-3 15 -9 32.5t-4 33.5q2 14 13.5 25.5t25.5 13.5
q17 3 30 -11t15 -30q8 -85 17 -170t17 -170q2 -24 5.5 -48t6.5 -48q4 -25 8.5 -49.5t-1.5 -50.5q-4 -14 -18 -29t-31 -11q-15 4 -26 14.5t-12 25.5q-1 9 -1 18.5v19.5q0 15 0.5 30t0.5 30v19.5t-1 18.5q-2 20 -3.5 41t-2.5 42z" />
    <glyph glyph-name="uniE012" unicode="JJ" horiz-adv-x="792" 
d="M285 472q0 -31 4.5 -61t7.5 -61q5 -60 14.5 -122t8.5 -119q-2 -67 -43 -96t-107 -25q-12 0 -27 0.5t-30 2t-29.5 5t-25.5 9.5t-18.5 18.5t-12 27.5t-6.5 30.5t-3 27.5q-2 32 9 47t26 15q14 0 26 -13t12.5 -26.5t1.5 -25.5t6.5 -21.5t27.5 -14.5q11 -3 23 -5t23 -2
q14 0 26 3.5t23 12.5q13 11 17.5 25.5t4.5 30.5q0 19 -5 42q-6 29 -5 58.5t-4 60.5t-7.5 60t-4.5 59q-2 27 -3.5 56t-6.5 57q-2 15 -2.5 27.5t-4.5 22t-15 16t-34 9.5q-12 2 -27.5 -0.5t-30.5 -2.5q-13 0 -24 4t-18 15q-9 16 -6.5 28t11.5 20.5t22 13.5t25 5q26 1 56 -4.5
t56 -10.5q27 -6 52.5 -9t54.5 -8q10 -2 18.5 -9t12.5 -16.5t3 -20.5t-9 -20q-7 -8 -16 -7t-18 3.5t-17 3.5t-13 -6q-2 -2 -2.5 -8.5t-0.5 -14t1 -15t1 -10.5q2 -16 2 -31.5v-30.5zM825 521q-7 -12 -22 -19t-30 -5q-7 2 -13 6t-13 6q-11 3 -20 5t-16 -5q-4 -6 -3.5 -14.5
t0.5 -15.5q-1 -35 2 -73t8 -74q4 -37 8.5 -74t8.5 -74q2 -19 3.5 -37t5.5 -36q2 -15 2.5 -32.5t-2.5 -31.5q-4 -14 -7.5 -32t-11.5 -30q-10 -14 -32.5 -18.5t-39.5 -9.5q-23 -5 -47.5 -9t-47.5 -2q-20 3 -40 8t-39 10q-35 11 -56 33.5t-32 54.5q-4 11 -7 22.5t-3 23.5
q0 18 10.5 30t39.5 8q24 -4 28 -16t7 -30q3 -13 12 -29t21 -24q15 -10 35 -12t37 -2q11 0 19 3t18 5q9 2 18.5 3t17.5 5q14 8 14.5 26t0.5 32q0 16 -2 34.5t-5 34.5q-3 20 -6 38.5t-5 37.5q-2 24 -2.5 48t-2.5 47q-3 38 -4.5 76.5t-9.5 75.5q-5 22 -21.5 28.5t-34.5 11.5
q-4 1 -17 1q-8 -1 -17 -1.5t-17 1.5q-14 2 -25.5 11t-16.5 21q-8 17 -5.5 29t17.5 25q14 12 28 9.5t31 -4.5q19 -3 37 -3.5t37 -2.5q11 -2 22.5 -3t22.5 -2q11 -2 22.5 -2t22.5 -2t22.5 -5.5t23.5 -5.5q16 -4 30 -8.5t28 -13.5q13 -8 17.5 -23.5t-4.5 -28.5z" />
    <glyph glyph-name="uniE013" unicode="jj" horiz-adv-x="792" 
d="M460 521q-7 -12 -22 -19t-30 -5q-7 2 -13 6t-13 6q-11 3 -20 5t-16 -5q-4 -6 -3.5 -14.5t0.5 -15.5q-1 -35 2 -73t8 -74q4 -37 8.5 -74t8.5 -74q2 -19 3.5 -37t5.5 -36q2 -15 2.5 -32.5t-2.5 -31.5q-4 -14 -7.5 -32t-11.5 -30q-10 -14 -32.5 -18.5t-39.5 -9.5
q-23 -5 -47.5 -9t-47.5 -2q-20 3 -40 8t-39 10q-35 11 -56 33.5t-32 54.5q-4 11 -7 22.5t-3 23.5q0 18 10.5 30t39.5 8q24 -4 28 -16t7 -30q3 -13 12 -29t21 -24q15 -10 35 -12t37 -2q11 0 19 3t18 5q9 2 18.5 3t17.5 5q14 8 14.5 26t0.5 32q0 16 -2 34.5t-5 34.5
q-3 20 -6 38.5t-5 37.5q-2 24 -2.5 48t-2.5 47q-3 38 -4.5 76.5t-9.5 75.5q-5 22 -21.5 28.5t-34.5 11.5q-4 1 -17 1q-8 -1 -17 -1.5t-17 1.5q-14 2 -25.5 11t-16.5 21q-8 17 -5.5 29t17.5 25q14 12 28 9.5t31 -4.5q19 -3 37 -3.5t37 -2.5q11 -2 22.5 -3t22.5 -2
q11 -2 22.5 -2t22.5 -2t22.5 -5.5t23.5 -5.5q16 -4 30 -8.5t28 -13.5q13 -8 17.5 -23.5t-4.5 -28.5zM712 472q0 -31 4.5 -61t7.5 -61q5 -60 14.5 -122t8.5 -119q-2 -67 -43 -96t-107 -25q-12 0 -27 0.5t-30 2t-29.5 5t-25.5 9.5t-18.5 18.5t-12 27.5t-6.5 30.5t-3 27.5
q-2 32 9 47t26 15q14 0 26 -13t12.5 -26.5t1.5 -25.5t6.5 -21.5t27.5 -14.5q11 -3 23 -5t23 -2q14 0 26 3.5t23 12.5q13 11 17.5 25.5t4.5 30.5q0 19 -5 42q-6 29 -5 58.5t-4 60.5t-7.5 60t-4.5 59q-2 27 -3.5 56t-6.5 57q-2 15 -2.5 27.5t-4.5 22t-15 16t-34 9.5
q-12 2 -27.5 -0.5t-30.5 -2.5q-13 0 -24 4t-18 15q-9 16 -6.5 28t11.5 20.5t22 13.5t25 5q26 1 56 -4.5t56 -10.5q27 -6 52.5 -9t54.5 -8q10 -2 18.5 -9t12.5 -16.5t3 -20.5t-9 -20q-7 -8 -16 -7t-18 3.5t-17 3.5t-13 -6q-2 -2 -2.5 -8.5t-0.5 -14t1 -15t1 -10.5
q2 -16 2 -31.5v-30.5z" />
    <glyph glyph-name="uniE014" unicode="KK" horiz-adv-x="799" 
d="M389 -33q-9 -7 -17.5 -7t-16.5 4t-14.5 11.5t-10.5 16.5q-16 37 -31 66t-31 67q-8 20 -14.5 40.5t-14.5 39.5q-5 14 -15 32t-25 24q-11 5 -20 4.5t-14 -9.5q-11 -19 -16.5 -35t-7.5 -38l-3 -42q2 -22 3.5 -42.5t5.5 -42.5q1 -6 4 -15t4.5 -19t1 -19t-4.5 -15
q-8 -11 -25.5 -14t-28.5 3q-15 7 -17.5 19.5t-4.5 26.5q-8 46 -12.5 93.5t-8.5 95.5q-2 17 -2 33v33v45q0 25 -2.5 49.5t-4.5 49.5q-4 38 -9.5 76t-9.5 76q-2 10 -3.5 22t-1.5 25q0 20 8 35.5t33 14.5q14 -1 27 -10.5t15 -23.5q3 -17 3 -33.5t1 -33.5q3 -50 6 -98t13 -94
q3 -14 7.5 -13.5t10 8t10.5 18t9 16.5q22 35 42.5 71t40.5 71q12 20 23.5 39.5t22.5 39.5q10 17 16 34t16 34t32 17q8 0 16.5 -4t14.5 -15q11 -18 2.5 -40.5t-17.5 -39.5q-27 -48 -53.5 -91.5t-49.5 -88.5q-5 -14 -7.5 -28.5t-2.5 -28.5q0 -27 12 -52q19 -38 34 -78.5
t31 -79.5q14 -36 29.5 -65.5t29.5 -67.5q3 -8 5.5 -17t2.5 -17q0 -9 -3.5 -17.5t-12.5 -15.5zM658 351q-4 -16 -4 -33t4 -33.5t12 -33.5q8 -15 13.5 -31t13.5 -30q9 -15 18.5 -29t17.5 -31q7 -14 12.5 -29.5t11.5 -29.5q5 -12 14 -28.5t9 -29.5q-1 -16 -12 -26.5t-26 -12.5
q-18 -2 -26 4.5t-15 23.5q-14 29 -29 59.5t-26 62.5q-5 17 -14.5 31t-17.5 29q-5 8 -10.5 16t-11.5 14q-8 8 -10 8t-11 -3q-11 -4 -16 -14.5t-8 -20.5q-2 -12 -3.5 -21.5t-1.5 -21.5q-1 -11 1 -21.5t2 -21.5q1 -17 3.5 -32.5t4.5 -32.5q0 -7 1.5 -15t1.5 -16t-2 -15t-8 -13
q-11 -10 -29 -10t-28 9q-14 12 -16.5 27.5t-4.5 31.5q-2 23 -0.5 47t-0.5 47q-2 28 -5 55.5t-6 54.5q-5 30 -8.5 60t-5.5 60q-2 28 -4.5 55t-5.5 54q-2 19 -2.5 38.5t-1.5 38.5q0 20 1.5 35t22.5 26q12 6 29.5 4t28.5 -11q7 -6 8.5 -12.5t0 -13.5t-3.5 -14t-3 -13
q-2 -20 -1 -40t1 -40q1 -23 6 -44t6 -44q0 -18 4.5 -28.5t8.5 -15.5q8 2 16 15t13 21q8 13 18 27.5t18 26.5q8 13 11.5 18.5t6.5 9.5t7 10t13 22q17 29 32 58t29 60q7 15 12.5 26.5t23.5 13.5q12 1 26.5 -3.5t21.5 -17.5q7 -14 -0.5 -29.5t-15.5 -27.5q-10 -17 -17 -30
t-15 -31q-5 -12 -10 -20.5t-9.5 -16t-9.5 -15t-11 -19.5q-11 -21 -22.5 -39.5t-16.5 -38.5z" />
    <glyph glyph-name="uniE015" unicode="kk" horiz-adv-x="799" 
d="M248 351q-4 -16 -4 -33t4 -33.5t12 -33.5q8 -15 13.5 -31t13.5 -30q9 -15 18.5 -29t17.5 -31q7 -14 12.5 -29.5t11.5 -29.5q5 -12 14 -28.5t9 -29.5q-1 -16 -12 -26.5t-26 -12.5q-18 -2 -26 4.5t-15 23.5q-14 29 -29 59.5t-26 62.5q-5 17 -14.5 31t-17.5 29
q-5 8 -10.5 16t-11.5 14q-8 8 -10 8t-11 -3q-11 -4 -16 -14.5t-8 -20.5q-2 -12 -3.5 -21.5t-1.5 -21.5q-1 -11 1 -21.5t2 -21.5q1 -17 3.5 -32.5t4.5 -32.5q0 -7 1.5 -15t1.5 -16t-2 -15t-8 -13q-11 -10 -29 -10t-28 9q-14 12 -16.5 27.5t-4.5 31.5q-2 23 -0.5 47t-0.5 47
q-2 28 -5 55.5t-6 54.5q-5 30 -8.5 60t-5.5 60q-2 28 -4.5 55t-5.5 54q-2 19 -2.5 38.5t-1.5 38.5q0 20 1.5 35t22.5 26q12 6 29.5 4t28.5 -11q7 -6 8.5 -12.5t0 -13.5t-3.5 -14t-3 -13q-2 -20 -1 -40t1 -40q1 -23 6 -44t6 -44q0 -18 4.5 -28.5t8.5 -15.5q8 2 16 15t13 21
q8 13 18 27.5t18 26.5q8 13 11.5 18.5t6.5 9.5t7 10t13 22q17 29 32 58t29 60q7 15 12.5 26.5t23.5 13.5q12 1 26.5 -3.5t21.5 -17.5q7 -14 -0.5 -29.5t-15.5 -27.5q-10 -17 -17 -30t-15 -31q-5 -12 -10 -20.5t-9.5 -16t-9.5 -15t-11 -19.5q-11 -21 -22.5 -39.5t-16.5 -38.5
zM778 -33q-9 -7 -17.5 -7t-16.5 4t-14.5 11.5t-10.5 16.5q-16 37 -31 66t-31 67q-8 20 -14.5 40.5t-14.5 39.5q-5 14 -15 32t-25 24q-11 5 -20 4.5t-14 -9.5q-11 -19 -16.5 -35t-7.5 -38l-3 -42q2 -22 3.5 -42.5t5.5 -42.5q1 -6 4 -15t4.5 -19t1 -19t-4.5 -15
q-8 -11 -25.5 -14t-28.5 3q-15 7 -17.5 19.5t-4.5 26.5q-8 46 -12.5 93.5t-8.5 95.5q-2 17 -2 33v33v45q0 25 -2.5 49.5t-4.5 49.5q-4 38 -9.5 76t-9.5 76q-2 10 -3.5 22t-1.5 25q0 20 8 35.5t33 14.5q14 -1 27 -10.5t15 -23.5q3 -17 3 -33.5t1 -33.5q3 -50 6 -98t13 -94
q3 -14 7.5 -13.5t10 8t10.5 18t9 16.5q22 35 42.5 71t40.5 71q12 20 23.5 39.5t22.5 39.5q10 17 16 34t16 34t32 17q8 0 16.5 -4t14.5 -15q11 -18 2.5 -40.5t-17.5 -39.5q-27 -48 -53.5 -91.5t-49.5 -88.5q-5 -14 -7.5 -28.5t-2.5 -28.5q0 -27 12 -52q19 -38 34 -78.5
t31 -79.5q14 -36 29.5 -65.5t29.5 -67.5q3 -8 5.5 -17t2.5 -17q0 -9 -3.5 -17.5t-12.5 -15.5z" />
    <glyph glyph-name="uniE016" unicode="LL" horiz-adv-x="774" 
d="M129 333q4 -35 9.5 -68.5t7.5 -68.5q1 -10 2 -19t3 -18q2 -14 3 -32t9 -30q10 -14 26.5 -12.5t31.5 0.5q17 -1 32 1t31 4q10 1 20 2.5t20 1.5q15 0 29 -6q15 -7 19.5 -22.5t-2.5 -31.5q-8 -17 -26 -22.5t-40 -5.5q-17 0 -34 1.5t-29 1.5q-18 0 -36 -0.5t-36 -5.5
q-20 -5 -33 -5q-18 0 -35 8t-19 25l-4 34q-2 18 -3.5 36.5t-2.5 36.5q-2 46 -8.5 91t-10.5 90q-5 47 -11.5 92t-9.5 91q-1 20 -3.5 39t-2.5 40q0 10 -1 21t-1 22q0 19 5 29q8 17 24 20t32 -1q10 -2 15.5 -7.5t8 -12.5t3 -15t1.5 -17q2 -43 3.5 -85.5t3.5 -85.5
q2 -29 4.5 -58t4.5 -58zM413 260q-5 33 -7 66.5t-2 67.5q-1 8 -1 14.5v14.5v30q-2 15 -5.5 30t-5.5 30q-2 18 -3.5 35.5t-1.5 35.5q0 30 32 38q11 3 28.5 -1t22.5 -16t3 -29t-2 -30q0 -20 0.5 -38t0.5 -38q0 -24 3 -47t8 -47q5 -22 5.5 -44.5t1.5 -45.5q2 -23 4.5 -44
t5.5 -43q2 -17 4 -35t6 -35q5 -17 17 -21.5t29 -5.5q19 -1 37 -1.5t38 -0.5h42t43 1q13 1 33.5 -1t31.5 -10q10 -8 10 -25t-5 -28q-2 -6 -7 -15t-11 -11q-5 -2 -13 -0.5t-14 2.5q-16 2 -30.5 4.5t-29.5 6.5q-9 2 -17.5 2.5t-17.5 0.5q-11 0 -21 -0.5t-21 0.5
q-16 1 -31.5 0.5t-32.5 -2.5q-10 -2 -18 -6t-18 -6q-8 -2 -16 -3t-16 -3t-13.5 -2.5t-12.5 4.5q-5 5 -10 12t-7 12q-5 14 -2.5 30.5t2.5 30.5q-2 19 -3.5 37.5t-1.5 38.5q0 23 -3.5 45t-7.5 45z" />
    <glyph glyph-name="uniE017" unicode="ll" horiz-adv-x="752" 
d="M52 260q-5 33 -7 66.5t-2 67.5q-1 8 -1 14.5v14.5v30q-2 15 -5.5 30t-5.5 30q-2 18 -3.5 35.5t-1.5 35.5q0 30 32 38q11 3 28.5 -1t22.5 -16t3 -29t-2 -30q0 -20 0.5 -38t0.5 -38q0 -24 3 -47t8 -47q5 -22 5.5 -44.5t1.5 -45.5q2 -23 4.5 -44t5.5 -43q2 -17 4 -35t6 -35
q5 -17 17 -21.5t29 -5.5q19 -1 37 -1.5t38 -0.5h42t43 1q13 1 33.5 -1t31.5 -10q10 -8 10 -25t-5 -28q-2 -6 -7 -15t-11 -11q-5 -2 -13 -0.5t-14 2.5q-16 2 -30.5 4.5t-29.5 6.5q-9 2 -17.5 2.5t-17.5 0.5q-11 0 -21 -0.5t-21 0.5q-16 1 -31.5 0.5t-32.5 -2.5q-10 -2 -18 -6
t-18 -6q-8 -2 -16 -3t-16 -3t-13.5 -2.5t-12.5 4.5q-5 5 -10 12t-7 12q-5 14 -2.5 30.5t2.5 30.5q-2 19 -3.5 37.5t-1.5 38.5q0 23 -3.5 45t-7.5 45zM524 333q4 -35 9.5 -68.5t7.5 -68.5q1 -10 2 -19t3 -18q2 -14 3 -32t9 -30q10 -14 26.5 -12.5t31.5 0.5q17 -1 32 1t31 4
q10 1 20 2.5t20 1.5q15 0 29 -6q15 -7 19.5 -22.5t-2.5 -31.5q-8 -17 -26 -22.5t-40 -5.5q-17 0 -34 1.5t-29 1.5q-18 0 -36 -0.5t-36 -5.5q-20 -5 -33 -5q-18 0 -35 8t-19 25l-4 34q-2 18 -3.5 36.5t-2.5 36.5q-2 46 -8.5 91t-10.5 90q-5 47 -11.5 92t-9.5 91
q-1 20 -3.5 39t-2.5 40q0 10 -1 21t-1 22q0 19 5 29q8 17 24 20t32 -1q10 -2 15.5 -7.5t8 -12.5t3 -15t1.5 -17q2 -43 3.5 -85.5t3.5 -85.5q2 -29 4.5 -58t4.5 -58z" />
    <glyph glyph-name="uniE018" unicode="MM" horiz-adv-x="1075" 
d="M509 6q-10 -10 -20 -11.5t-18.5 3.5t-14.5 15t-7 23q-6 42 -10 83t-4 80q-1 15 -1.5 30t-0.5 29v15.5t-5 11.5q-7 6 -17.5 -12.5t-20 -43.5t-17 -48.5t-8.5 -29.5q-5 -20 -7 -44t-13 -42q-6 -8 -18 -13t-26 -5q-9 0 -17.5 2.5t-13.5 7.5q-7 6 -6.5 16t-1.5 18
q-2 10 -6.5 19t-7.5 18q-7 20 -12.5 39t-15.5 37q-18 37 -40 71q-10 15 -16.5 32t-23.5 27q-8 -8 -5 -19.5t4 -19.5q5 -40 8.5 -78t8.5 -76q4 -25 6.5 -49.5t4.5 -50.5q1 -11 0 -21.5t-12 -18.5q-8 -5 -23 -7t-24 3q-12 6 -17.5 20.5t-7 31.5t-1.5 34t-2 29q-3 20 -7 38.5
t-7 38.5q-8 72 -13 143.5t-16 143.5q-4 24 -4.5 50t-1.5 51q0 11 -1.5 23t-1.5 24q0 13 3 24t12 19q12 9 28 11q1 1 12 -1.5t21 -12.5q5 -22 7 -37t4 -28.5t6 -28t15 -35.5q20 -39 41.5 -76.5t41.5 -75.5q11 -21 20.5 -42.5t19.5 -42.5q9 -20 20 -36t24 -33q7 14 15 33.5
t15.5 40.5t14 40.5t9.5 32.5q12 44 21 87t18 87q5 21 6.5 34.5t1.5 33.5q0 17 1.5 25.5t5.5 13.5q7 11 19 17t25 6q9 0 17 -4t13 -13q5 -10 3 -24t-1 -25q1 -14 2.5 -25.5t3.5 -24.5q5 -42 4 -82.5t1 -82.5q2 -34 5.5 -67t4.5 -67q0 -18 3.5 -35.5t4.5 -35.5l4 -52t2 -52
q0 -11 -1 -23.5t1 -24.5q2 -15 0.5 -19.5t-13.5 -16.5zM1037 -11q-4 -4 -11.5 -8.5t-12.5 -6.5q-8 -2 -12.5 2.5t-10.5 9.5q-5 5 -10.5 9.5t-10.5 10.5q-4 6 -4 11.5v11.5q-1 16 -1 31t-2 31q-2 20 -3.5 41.5t-4.5 41.5q-3 23 -3 45t-2 45q-2 20 -2.5 39.5t-1.5 39.5
q-2 -5 -3.5 -10.5t-3.5 -10.5q-11 -33 -23 -67t-20 -68q-5 -19 -9.5 -37t-7.5 -38q-2 -8 -3.5 -16t-2.5 -17q0 -8 1 -17.5t-1 -18.5q-2 -21 -15.5 -25.5t-30.5 -2.5q-37 5 -50 39q-12 31 -28.5 62.5t-30.5 63.5q-8 17 -13.5 31.5t-14.5 30.5q-4 7 -12 20t-13 18
q2 -16 3.5 -39.5t2.5 -40.5q2 -18 3 -36t2 -37q1 -14 1.5 -26t0.5 -25q1 -14 2.5 -24.5t3.5 -19.5t3.5 -19.5t1.5 -24.5v-17t-5 -15q-3 -4 -11 -6t-13 -3q-14 -2 -24 -1t-20 15q-9 13 -9 25.5t2 27.5q1 10 0 17t-2.5 13t-3.5 12.5t-2 17.5q-2 54 -2.5 107t-11.5 106
q-5 27 -7 54.5t-3.5 54.5t-3 54.5t-6.5 54.5q-4 20 -3.5 39.5t-2.5 38.5q-2 17 0 31.5t13 27.5q10 12 31 12q15 0 29 -7.5t18 -21.5q2 -8 2 -18.5t-1 -20.5q1 -15 2 -29t4 -28q5 -17 9 -34t11 -34t12 -34.5t11 -35.5q8 -24 22.5 -45t23.5 -44q8 -20 18 -37t19 -36
q2 -5 5 -13.5t7 -17.5t8.5 -15.5t10.5 -6.5q2 15 9 29.5t11 28.5q5 18 9.5 35t7.5 35q6 33 18.5 66.5t23.5 66.5q5 18 11.5 33.5t8.5 34.5q2 17 2 35.5t2 35.5q1 5 1 9t1 9q-2 19 7 35q8 11 20 17.5t25 6.5q11 0 21.5 -5.5t15.5 -17.5q5 -10 3 -22t-3 -23q-1 -14 -1.5 -28.5
t-0.5 -28.5q0 -21 3.5 -41.5t3.5 -42.5q0 -26 5 -49t3 -46q0 -13 3 -25.5t5 -24.5q4 -20 5 -41.5t1 -42.5v-62q1 -16 1.5 -32t2.5 -33q2 -14 6 -26.5t6 -25.5q2 -12 -1.5 -25t-13.5 -22z" />
    <glyph glyph-name="uniE019" unicode="mm" horiz-adv-x="1075" 
d="M494 -11q-4 -4 -11.5 -8.5t-12.5 -6.5q-8 -2 -12.5 2.5t-10.5 9.5q-5 5 -10.5 9.5t-10.5 10.5q-4 6 -4 11.5v11.5q-1 16 -1 31t-2 31q-2 20 -3.5 41.5t-4.5 41.5q-3 23 -3 45t-2 45q-2 20 -2.5 39.5t-1.5 39.5q-2 -5 -3.5 -10.5t-3.5 -10.5q-11 -33 -23 -67t-20 -68
q-5 -19 -9.5 -37t-7.5 -38q-2 -8 -3.5 -16t-2.5 -17q0 -8 1 -17.5t-1 -18.5q-2 -21 -15.5 -25.5t-30.5 -2.5q-37 5 -50 39q-12 31 -28.5 62.5t-30.5 63.5q-8 17 -13.5 31.5t-14.5 30.5q-4 7 -12 20t-13 18q2 -16 3.5 -39.5t2.5 -40.5q2 -18 3 -36t2 -37q1 -14 1.5 -26
t0.5 -25q1 -14 2.5 -24.5t3.5 -19.5t3.5 -19.5t1.5 -24.5v-17t-5 -15q-3 -4 -11 -6t-13 -3q-14 -2 -24 -1t-20 15q-9 13 -9 25.5t2 27.5q1 10 0 17t-2.5 13t-3.5 12.5t-2 17.5q-2 54 -2.5 107t-11.5 106q-5 27 -7 54.5t-3.5 54.5t-3 54.5t-6.5 54.5q-4 20 -3.5 39.5
t-2.5 38.5q-2 17 0 31.5t13 27.5q10 12 31 12q15 0 29 -7.5t18 -21.5q2 -8 2 -18.5t-1 -20.5q1 -15 2 -29t4 -28q5 -17 9 -34t11 -34t12 -34.5t11 -35.5q8 -24 22.5 -45t23.5 -44q8 -20 18 -37t19 -36q2 -5 5 -13.5t7 -17.5t8.5 -15.5t10.5 -6.5q2 15 9 29.5t11 28.5
q5 18 9.5 35t7.5 35q6 33 18.5 66.5t23.5 66.5q5 18 11.5 33.5t8.5 34.5q2 17 2 35.5t2 35.5q1 5 1 9t1 9q-2 19 7 35q8 11 20 17.5t25 6.5q11 0 21.5 -5.5t15.5 -17.5q5 -10 3 -22t-3 -23q-1 -14 -1.5 -28.5t-0.5 -28.5q0 -21 3.5 -41.5t3.5 -42.5q0 -26 5 -49t3 -46
q0 -13 3 -25.5t5 -24.5q4 -20 5 -41.5t1 -42.5v-62q1 -16 1.5 -32t2.5 -33q2 -14 6 -26.5t6 -25.5q2 -12 -1.5 -25t-13.5 -22zM1041 6q-10 -10 -20 -11.5t-18.5 3.5t-14.5 15t-7 23q-6 42 -10 83t-4 80q-1 15 -1.5 30t-0.5 29v15.5t-5 11.5q-7 6 -17.5 -12.5t-20 -43.5
t-17 -48.5t-8.5 -29.5q-5 -20 -7 -44t-13 -42q-6 -8 -18 -13t-26 -5q-9 0 -17.5 2.5t-13.5 7.5q-7 6 -6.5 16t-1.5 18q-2 10 -6.5 19t-7.5 18q-7 20 -12.5 39t-15.5 37q-18 37 -40 71q-10 15 -16.5 32t-23.5 27q-8 -8 -5 -19.5t4 -19.5q5 -40 8.5 -78t8.5 -76
q4 -25 6.5 -49.5t4.5 -50.5q1 -11 0 -21.5t-12 -18.5q-8 -5 -23 -7t-24 3q-12 6 -17.5 20.5t-7 31.5t-1.5 34t-2 29q-3 20 -7 38.5t-7 38.5q-8 72 -13 143.5t-16 143.5q-4 24 -4.5 50t-1.5 51q0 11 -1.5 23t-1.5 24q0 13 3 24t12 19q12 9 28 11q1 1 12 -1.5t21 -12.5
q5 -22 7 -37t4 -28.5t6 -28t15 -35.5q20 -39 41.5 -76.5t41.5 -75.5q11 -21 20.5 -42.5t19.5 -42.5q9 -20 20 -36t24 -33q7 14 15 33.5t15.5 40.5t14 40.5t9.5 32.5q12 44 21 87t18 87q5 21 6.5 34.5t1.5 33.5q0 17 1.5 25.5t5.5 13.5q7 11 19 17t25 6q9 0 17 -4t13 -13
q5 -10 3 -24t-1 -25q1 -14 2.5 -25.5t3.5 -24.5q5 -42 4 -82.5t1 -82.5q2 -34 5.5 -67t4.5 -67q0 -18 3.5 -35.5t4.5 -35.5l4 -52t2 -52q0 -11 -1 -23.5t1 -24.5q2 -15 0.5 -19.5t-13.5 -16.5z" />
    <glyph glyph-name="uniE01A" unicode="NN" horiz-adv-x="877" 
d="M419 -6q-18 -20 -41 -11q-13 1 -20.5 10.5t-12.5 21.5t-9 25.5t-9 22.5q-17 30 -34.5 50t-32.5 43q-18 26 -37 47.5t-36 48.5q-39 62 -51 62q-10 0 -10 -36q0 -10 0.5 -22t1.5 -27q2 -34 3 -69t9 -68q2 -11 7 -24t5 -24q0 -14 -10 -23.5t-22 -11.5q-13 -3 -24 5t-20 16
t-11 22t-3 26q-1 22 -1 43.5t-1 42.5q-1 11 -3 21t-3 21q-3 31 -6.5 60.5t-6.5 60.5q-3 25 -6 49t-3 49q0 41 -6.5 79.5t-8.5 78.5q-1 13 6 24.5t18 17.5q11 5 26 3.5t24 -9.5q7 -5 8.5 -14t1.5 -18q3 -32 7.5 -64t17.5 -59q9 -19 21 -35.5t25.5 -32t27.5 -31t25 -32.5
q11 -16 25 -27t25 -27q8 -14 15.5 -27t18.5 -25q7 -7 7 7t-3 36.5t-7.5 46t-5.5 36.5q-4 35 -8 68.5t-9 68.5q-2 21 -6.5 45.5t-4.5 48.5q0 25 7 45q4 10 11 22.5t16.5 20.5t20.5 9t23 -11q11 -10 10.5 -21.5t-1.5 -25.5q-1 -8 -1.5 -14.5t-0.5 -14.5t0.5 -15t1.5 -14
q2 -23 2.5 -45t5.5 -45q4 -23 6.5 -44.5t7.5 -44.5q6 -24 5.5 -48.5t5.5 -49.5q6 -24 8 -47q2 -20 5.5 -40t5.5 -40q1 -11 1 -21t2 -21q2 -20 6.5 -39t6.5 -39q1 -11 0 -25t-8 -22zM496 201q-2 9 -2.5 19t-1.5 20q-2 23 -5.5 45.5t-4.5 45.5q-2 45 -10 88t-10 87
q-1 14 -4 28.5t-5.5 29t-3 28.5t2.5 28q2 11 11 16.5t20 5.5t21 -4.5t16 -11.5q14 -15 17.5 -40t8.5 -45q5 -25 16.5 -49t25.5 -45q21 -29 38 -51.5t37 -52.5q4 -6 10 -14t12.5 -17t12.5 -17.5t10 -14.5q5 -8 16 -24t16 -25t8.5 -6.5t5.5 10.5t2.5 18t-0.5 16q-2 15 -2.5 30
t-2.5 30q-2 21 -3 40t-1.5 37t-1.5 37t-4 40q-2 19 -4.5 38t-3.5 38q-1 14 -1.5 29t4.5 28q3 10 11.5 19.5t19 15.5t22 6.5t20.5 -8.5q8 -8 7.5 -20.5t1.5 -22.5q2 -17 3 -34.5t0 -34.5q-1 -8 -1 -16.5v-16.5q0 -14 0.5 -27t1.5 -27q1 -20 1 -40.5t3 -40.5q11 -80 15 -161
q1 -32 4 -70.5t3 -71.5q0 -25 3 -48.5t7 -46.5q2 -16 -9 -23t-25 -7q-10 0 -19.5 3t-14.5 8q-15 15 -20.5 37t-14.5 41l-24 48t-25 48q-3 6 -8 14t-11 16.5t-11 16.5t-8 14q-7 12 -14.5 21.5t-15.5 20.5q-8 12 -15.5 24.5t-16.5 24.5q-23 31 -29 31q-7 0 -7 -39
q2 -15 3.5 -30t3.5 -30q3 -32 6.5 -70t6.5 -70q1 -8 2.5 -18.5t1.5 -20.5q0 -14 -5.5 -25.5t-22.5 -13.5q-24 -3 -41 11q-11 8 -11 20.5t-1 24.5v17.5t-2 16.5q-2 15 -3.5 33t-3.5 32q-1 13 -3.5 27t-4.5 27z" />
    <glyph glyph-name="uniE01B" unicode="nn" horiz-adv-x="877" 
d="M59 201q-2 9 -2.5 19t-1.5 20q-2 23 -5.5 45.5t-4.5 45.5q-2 45 -10 88t-10 87q-1 14 -4 28.5t-5.5 29t-3 28.5t2.5 28q2 11 11 16.5t20 5.5t21 -4.5t16 -11.5q14 -15 17.5 -40t8.5 -45q5 -25 16.5 -49t25.5 -45q21 -29 38 -51.5t37 -52.5q4 -6 10 -14t12.5 -17
t12.5 -17.5t10 -14.5q5 -8 16 -24t16 -25t8.5 -6.5t5.5 10.5t2.5 18t-0.5 16q-2 15 -2.5 30t-2.5 30q-2 21 -3 40t-1.5 37t-1.5 37t-4 40q-2 19 -4.5 38t-3.5 38q-1 14 -1.5 29t4.5 28q3 10 11.5 19.5t19 15.5t22 6.5t20.5 -8.5q8 -8 7.5 -20.5t1.5 -22.5q2 -17 3 -34.5
t0 -34.5q-1 -8 -1 -16.5v-16.5q0 -14 0.5 -27t1.5 -27q1 -20 1 -40.5t3 -40.5q11 -80 15 -161q1 -32 4 -70.5t3 -71.5q0 -25 3 -48.5t7 -46.5q2 -16 -9 -23t-25 -7q-10 0 -19.5 3t-14.5 8q-15 15 -20.5 37t-14.5 41l-24 48t-25 48q-3 6 -8 14t-11 16.5t-11 16.5t-8 14
q-7 12 -14.5 21.5t-15.5 20.5q-8 12 -15.5 24.5t-16.5 24.5q-23 31 -29 31q-7 0 -7 -39q2 -15 3.5 -30t3.5 -30q3 -32 6.5 -70t6.5 -70q1 -8 2.5 -18.5t1.5 -20.5q0 -14 -5.5 -25.5t-22.5 -13.5q-24 -3 -41 11q-11 8 -11 20.5t-1 24.5v17.5t-2 16.5q-2 15 -3.5 33t-3.5 32
q-1 13 -3.5 27t-4.5 27zM859 -6q-18 -20 -41 -11q-13 1 -20.5 10.5t-12.5 21.5t-9 25.5t-9 22.5q-17 30 -34.5 50t-32.5 43q-18 26 -37 47.5t-36 48.5q-39 62 -51 62q-10 0 -10 -36q0 -10 0.5 -22t1.5 -27q2 -34 3 -69t9 -68q2 -11 7 -24t5 -24q0 -14 -10 -23.5t-22 -11.5
q-13 -3 -24 5t-20 16t-11 22t-3 26q-1 22 -1 43.5t-1 42.5q-1 11 -3 21t-3 21q-3 31 -6.5 60.5t-6.5 60.5q-3 25 -6 49t-3 49q0 41 -6.5 79.5t-8.5 78.5q-1 13 6 24.5t18 17.5q11 5 26 3.5t24 -9.5q7 -5 8.5 -14t1.5 -18q3 -32 7.5 -64t17.5 -59q9 -19 21 -35.5t25.5 -32
t27.5 -31t25 -32.5q11 -16 25 -27t25 -27q8 -14 15.5 -27t18.5 -25q7 -7 7 7t-3 36.5t-7.5 46t-5.5 36.5q-4 35 -8 68.5t-9 68.5q-2 21 -6.5 45.5t-4.5 48.5q0 25 7 45q4 10 11 22.5t16.5 20.5t20.5 9t23 -11q11 -10 10.5 -21.5t-1.5 -25.5q-1 -8 -1.5 -14.5t-0.5 -14.5
t0.5 -15t1.5 -14q2 -23 2.5 -45t5.5 -45q4 -23 6.5 -44.5t7.5 -44.5q6 -24 5.5 -48.5t5.5 -49.5q6 -24 8 -47q2 -20 5.5 -40t5.5 -40q1 -11 1 -21t2 -21q2 -20 6.5 -39t6.5 -39q1 -11 0 -25t-8 -22z" />
    <glyph glyph-name="uniE01C" unicode="OO" horiz-adv-x="932" 
d="M434 403q3 -35 3 -69q-1 -23 0 -47t1 -47v-25t-2 -24q-2 -17 -3.5 -37.5t-5 -40.5t-10.5 -38.5t-20 -31.5q-36 -36 -83 -47.5t-97 -11.5q-8 0 -15.5 0.5t-15.5 0.5q-29 2 -53.5 9t-44.5 32q-18 23 -28 48.5t-15 54.5q-11 68 -14 136.5t-8 137.5q-1 11 -1.5 22t-0.5 22
q0 21 1.5 42t5.5 41q5 23 15 51t27 44q29 28 71 40.5t85 12.5q39 0 71 -9q24 -7 46.5 -18.5t39.5 -31.5q17 -19 21 -45t9 -50q6 -31 12.5 -60t8.5 -61zM349 125q5 29 7 58t2 58q0 13 -0.5 25.5t-0.5 25.5q-1 25 -3 49t-5 48q-3 23 -4 46t-6 46q-4 19 -9.5 37.5t-14.5 34.5
t-22.5 28t-33.5 17t-33 5q-19 0 -36 -6.5t-36 -17.5q-22 -13 -27 -32t-10 -43q-5 -21 -7 -44t-2 -46q0 -27 1.5 -54t3.5 -53q4 -46 7.5 -94t23.5 -91q7 -14 15 -28t22 -22q12 -8 32.5 -10t34.5 -3q17 -1 33.5 3.5t30.5 12.5q17 11 25 20.5t12 29.5zM906 272q2 -29 0 -59.5
t-4 -59.5q-2 -24 -6.5 -43t-24.5 -36q-35 -31 -80 -51t-95 -20q-27 0 -57 8q-41 11 -64.5 31t-37 46t-20 57.5t-13.5 66.5q-7 34 -12 75.5t-5 84.5q0 49 9 95.5t31.5 82.5t61 57.5t97.5 18.5q13 -1 29 -3.5t32 -6t31 -8.5t26 -11q28 -16 42.5 -35.5t24.5 -48.5t18 -58
t10 -60t3.5 -61.5t3.5 -61.5zM826 197q1 14 -0.5 27t-1.5 27q1 10 2 19t0 18q-2 10 -3 18.5t-1 19.5q1 11 -2 23t-2 23q0 13 -2.5 25.5t-5.5 24.5q-6 25 -16 48q-6 11 -10 21.5t-15 18.5t-19 14.5t-22 8.5q-12 2 -24 2t-24 2q-13 2 -24 2t-22 -5q-14 -5 -22 -12t-16 -19
q-8 -11 -10 -23t-4 -25q-3 -16 -5.5 -31.5t-4.5 -31.5q-2 -19 -0.5 -38t2.5 -39q0 -17 2 -34l4 -34t6.5 -33.5t9.5 -33.5q4 -13 8 -25t13 -23t20.5 -18t22.5 -16q9 -8 21.5 -10t23.5 -3q13 -1 24 2t21.5 8.5t20 11.5t20.5 11q10 5 16.5 14t10.5 20t5.5 22.5t2.5 22.5z" />
    <glyph glyph-name="uniE01D" unicode="oo" horiz-adv-x="932" 
d="M445 272q2 -29 0 -59.5t-4 -59.5q-2 -24 -6.5 -43t-24.5 -36q-35 -31 -80 -51t-95 -20q-27 0 -57 8q-41 11 -64.5 31t-37 46t-20 57.5t-13.5 66.5q-7 34 -12 75.5t-5 84.5q0 49 9 95.5t31.5 82.5t61 57.5t97.5 18.5q13 -1 29 -3.5t32 -6t31 -8.5t26 -11
q28 -16 42.5 -35.5t24.5 -48.5t18 -58t10 -60t3.5 -61.5t3.5 -61.5zM365 197q1 14 -0.5 27t-1.5 27q1 10 2 19t0 18q-2 10 -3 18.5t-1 19.5q1 11 -2 23t-2 23q0 13 -2.5 25.5t-5.5 24.5q-6 25 -16 48q-6 11 -10 21.5t-15 18.5t-19 14.5t-22 8.5q-12 2 -24 2t-24 2
q-13 2 -24 2t-22 -5q-14 -5 -22 -12t-16 -19q-8 -11 -10 -23t-4 -25q-3 -16 -5.5 -31.5t-4.5 -31.5q-2 -19 -0.5 -38t2.5 -39q0 -17 2 -34l4 -34t6.5 -33.5t9.5 -33.5q4 -13 8 -25t13 -23t20.5 -18t22.5 -16q9 -8 21.5 -10t23.5 -3q13 -1 24 2t21.5 8.5t20 11.5t20.5 11
q10 5 16.5 14t10.5 20t5.5 22.5t2.5 22.5zM905 403q3 -35 3 -69q-1 -23 0 -47t1 -47v-25t-2 -24q-2 -17 -3.5 -37.5t-5 -40.5t-10.5 -38.5t-20 -31.5q-36 -36 -83 -47.5t-97 -11.5q-8 0 -15.5 0.5t-15.5 0.5q-29 2 -53.5 9t-44.5 32q-18 23 -28 48.5t-15 54.5
q-11 68 -14 136.5t-8 137.5q-1 11 -1.5 22t-0.5 22q0 21 1.5 42t5.5 41q5 23 15 51t27 44q29 28 71 40.5t85 12.5q39 0 71 -9q24 -7 46.5 -18.5t39.5 -31.5q17 -19 21 -45t9 -50q6 -31 12.5 -60t8.5 -61zM820 125q5 29 7 58t2 58q0 13 -0.5 25.5t-0.5 25.5q-1 25 -3 49
t-5 48q-3 23 -4 46t-6 46q-4 19 -9.5 37.5t-14.5 34.5t-22.5 28t-33.5 17t-33 5q-19 0 -36 -6.5t-36 -17.5q-22 -13 -27 -32t-10 -43q-5 -21 -7 -44t-2 -46q0 -27 1.5 -54t3.5 -53q4 -46 7.5 -94t23.5 -91q7 -14 15 -28t22 -22q12 -8 32.5 -10t34.5 -3q17 -1 33.5 3.5
t30.5 12.5q17 11 25 20.5t12 29.5z" />
    <glyph glyph-name="uniE01E" unicode="PP" horiz-adv-x="799" 
d="M384 400q8 -27 8 -52q0 -34 -13 -65.5t-40 -53.5q-34 -28 -76.5 -44t-83.5 -27q-8 -2 -19 -4.5t-16 -10.5q-4 -7 -2.5 -20t2.5 -21q2 -20 4 -39t4 -39q1 -9 1.5 -18.5t-1.5 -18t-7.5 -14t-16.5 -5.5q-19 -1 -37 10t-23 28q-5 19 -4.5 39.5t-1.5 40.5q-5 50 -8 98t-7 98
q-2 35 -4.5 69.5t-4.5 69.5q-1 44 -6 88.5t-10 86.5q-1 8 -2.5 16.5t-1.5 16.5q0 10 3.5 19.5t12.5 16.5q9 6 32 6q15 0 30.5 -1.5t23.5 -3.5q20 -2 42 -13t39 -23q20 -15 41.5 -27.5t39.5 -31.5q17 -18 35.5 -36.5t30.5 -41.5q11 -23 20 -46.5t16 -46.5zM293 322
q5 10 4.5 22t-1.5 23q-1 22 -9 45t-19 41q-11 21 -26 37t-30 33q-14 15 -33.5 27t-39.5 13q-14 1 -17.5 -11.5t-3.5 -28.5q0 -11 1 -21.5t1 -16.5q1 -14 1.5 -27t2.5 -26q1 -11 1 -22.5t1 -22.5q0 -10 -0.5 -19.5t1.5 -19.5l6 -36q1 -11 2.5 -22.5t2.5 -22.5
q1 -13 4.5 -19.5t17.5 -4.5q24 5 53 15.5t49 25.5q9 8 17.5 17.5t13.5 20.5zM775 459q3 -17 5.5 -34t1.5 -34q-1 -16 -4.5 -32.5t-8.5 -31.5q-5 -14 -9.5 -29t-13.5 -27q-20 -26 -50 -45.5t-61 -30.5q-27 -8 -55 -21q-5 -2 -13 -5.5t-12 -7.5q-3 -5 -3 -13.5t-1 -14.5
q-5 -32 -6 -63q-1 -14 3.5 -28.5t8.5 -28.5q8 -24 -4.5 -38t-31.5 -14q-21 0 -37 17q-12 12 -12 27.5t-2 31.5q-1 8 -0.5 17t-0.5 17q-2 36 -7.5 73.5t-3.5 73.5q2 14 2.5 28.5t-1.5 28.5t-5 26t-3 26q-2 48 -3.5 96t-4.5 97q-1 14 -2.5 28t-9.5 25q-4 5 -9.5 9.5t-7.5 10.5
q-3 7 -1.5 14.5t3.5 14.5q4 17 9.5 27t22.5 15t33 3.5t33 -3.5q33 -3 65.5 -12t61.5 -26q17 -11 36 -18.5t33 -22.5q13 -13 23 -28.5t21 -29.5q13 -17 15.5 -32.5t5.5 -35.5zM687 334q5 15 8 28.5t3 28.5q0 31 -5 59t-28 51q-11 11 -24 18.5t-27 15.5q-13 8 -24 16.5
t-25 16.5q-6 3 -12.5 5.5t-14.5 0.5q-10 -2 -11 -5t-1 -11q-1 -14 -0.5 -28.5t1.5 -28.5q2 -28 1.5 -55.5t1.5 -55.5q1 -11 0.5 -21t0.5 -21l4 -18t3 -18q1 -12 4 -24t5 -24q2 -8 2.5 -12.5t9.5 -2.5q7 1 14.5 4.5t14.5 5.5q15 5 29.5 14t28.5 17q14 10 24.5 19t16.5 25z
" />
    <glyph glyph-name="uniE01F" unicode="pp" horiz-adv-x="799" 
d="M369 459q3 -17 5.5 -34t1.5 -34q-1 -16 -4.5 -32.5t-8.5 -31.5q-5 -14 -9.5 -29t-13.5 -27q-20 -26 -50 -45.5t-61 -30.5q-27 -8 -55 -21q-5 -2 -13 -5.5t-12 -7.5q-3 -5 -3 -13.5t-1 -14.5q-5 -32 -6 -63q-1 -14 3.5 -28.5t8.5 -28.5q8 -24 -4.5 -38t-31.5 -14
q-21 0 -37 17q-12 12 -12 27.5t-2 31.5q-1 8 -0.5 17t-0.5 17q-2 36 -7.5 73.5t-3.5 73.5q2 14 2.5 28.5t-1.5 28.5t-5 26t-3 26q-2 48 -3.5 96t-4.5 97q-1 14 -2.5 28t-9.5 25q-4 5 -9.5 9.5t-7.5 10.5q-3 7 -1.5 14.5t3.5 14.5q4 17 9.5 27t22.5 15t33 3.5t33 -3.5
q33 -3 65.5 -12t61.5 -26q17 -11 36 -18.5t33 -22.5q13 -13 23 -28.5t21 -29.5q13 -17 15.5 -32.5t5.5 -35.5zM281 334q5 15 8 28.5t3 28.5q0 31 -5 59t-28 51q-11 11 -24 18.5t-27 15.5q-13 8 -24 16.5t-25 16.5q-6 3 -12.5 5.5t-14.5 0.5q-10 -2 -11 -5t-1 -11
q-1 -14 -0.5 -28.5t1.5 -28.5q2 -28 1.5 -55.5t1.5 -55.5q1 -11 0.5 -21t0.5 -21l4 -18t3 -18q1 -12 4 -24t5 -24q2 -8 2.5 -12.5t9.5 -2.5q7 1 14.5 4.5t14.5 5.5q15 5 29.5 14t28.5 17q14 10 24.5 19t16.5 25zM777 400q8 -27 8 -52q0 -34 -13 -65.5t-40 -53.5
q-34 -28 -76.5 -44t-83.5 -27q-8 -2 -19 -4.5t-16 -10.5q-4 -7 -2.5 -20t2.5 -21q2 -20 4 -39t4 -39q1 -9 1.5 -18.5t-1.5 -18t-7.5 -14t-16.5 -5.5q-19 -1 -37 10t-23 28q-5 19 -4.5 39.5t-1.5 40.5q-5 50 -8 98t-7 98q-2 35 -4.5 69.5t-4.5 69.5q-1 44 -6 88.5t-10 86.5
q-1 8 -2.5 16.5t-1.5 16.5q0 10 3.5 19.5t12.5 16.5q9 6 32 6q15 0 30.5 -1.5t23.5 -3.5q20 -2 42 -13t39 -23q20 -15 41.5 -27.5t39.5 -31.5q17 -18 35.5 -36.5t30.5 -41.5q11 -23 20 -46.5t16 -46.5zM686 322q5 10 4.5 22t-1.5 23q-1 22 -9 45t-19 41q-11 21 -26 37
t-30 33q-14 15 -33.5 27t-39.5 13q-14 1 -17.5 -11.5t-3.5 -28.5q0 -11 1 -21.5t1 -16.5q1 -14 1.5 -27t2.5 -26q1 -11 1 -22.5t1 -22.5q0 -10 -0.5 -19.5t1.5 -19.5l6 -36q1 -11 2.5 -22.5t2.5 -22.5q1 -13 4.5 -19.5t17.5 -4.5q24 5 53 15.5t49 25.5q9 8 17.5 17.5
t13.5 20.5z" />
    <glyph glyph-name="uniE020" unicode="QQ" horiz-adv-x="929" 
d="M415 131q-15 -37 -45 -63q-6 -11 -6.5 -21.5t2 -21t7.5 -21t9 -19.5q5 -11 9 -25.5t4 -28.5q0 -13 -5.5 -24t-20.5 -16q-12 -5 -28.5 -1t-23.5 16q-3 7 -3 13.5t-2 13.5q-2 8 -4.5 14.5t-4.5 13.5q-4 11 -5 12.5t-4 12.5q-3 9 -6 22t-11 18q-2 2 -7.5 3.5t-26.5 1.5
q-13 1 -29 3t-32 6t-31 9t-25 11q-29 16 -43.5 35.5t-24.5 48.5t-18 58t-10 60t-3.5 61.5t-3.5 61.5q-2 29 0 59.5t4 59.5q2 23 6.5 42t24.5 36q35 32 80 52t95 20q27 0 57 -8q40 -11 64 -31t37.5 -46.5t20.5 -58t14 -65.5t11.5 -74.5t4.5 -83.5q0 -42 -6 -82t-21 -74z
M135 187q6 -11 10 -21.5t15 -19.5q11 -8 19 -14.5t22 -8.5q8 -1 16 -1t16 -1q9 4 11 12t0 17.5t-5.5 19.5t-6.5 17q-4 11 -11 24.5t-4 24.5q4 14 18.5 21.5t30.5 7.5q12 0 21.5 -4.5t14.5 -15.5q5 -13 7.5 -26.5t7.5 -27.5q2 -6 4.5 -12.5t6 -9.5t7 -1.5t7.5 12.5
q6 20 8.5 41.5t6.5 43.5q2 19 0.5 38t-2.5 38q0 18 -2 34.5t-4 33.5t-6.5 33.5t-9.5 33.5q-4 14 -8 26t-13 23t-20.5 18t-22.5 15q-9 8 -21.5 10.5t-23.5 3.5q-13 1 -24 -2t-21.5 -8.5t-20.5 -11.5t-20 -11t-16.5 -14.5t-10.5 -20.5t-5.5 -22.5t-2.5 -21.5q-1 -14 0.5 -27
t1.5 -27q-2 -30 1.5 -59t4.5 -62q0 -13 2.5 -25.5t5.5 -24.5q3 -13 7 -25t9 -23zM907 -82q2 -11 -7 -26t-18 -20q-11 -6 -27.5 -4.5t-24.5 12.5q-7 11 -14.5 24.5t-13.5 25.5q-7 14 -11 24t-19 18q-5 2 -12 2h-15q-11 -2 -21.5 -3.5t-24.5 -1.5q-69 -3 -121 34l-2 1
q-16 12 -29 27t-23 34q-3 11 -5 21.5t-4 21.5q-5 18 -9.5 36t-7.5 36q-3 15 -5 36t-3.5 44.5t-2 48.5t-0.5 49q0 21 0.5 39.5t1.5 32.5q2 35 8 70t17 67q6 16 16.5 28t23.5 20.5t28 15t29 11.5q18 7 36.5 11.5t37.5 7.5t39 7.5t39 -2.5q23 -9 50.5 -29.5t42.5 -40.5
q10 -14 13.5 -28t5 -28.5t2.5 -30t4 -30.5q4 -19 7 -36.5t3 -37.5v-65q0 -20 0.5 -38t2.5 -27q4 -18 5.5 -37t2.5 -37q1 -14 2 -27t1 -27q0 -23 -4 -42q-5 -24 -13.5 -43t-28.5 -39q-8 -8 -8 -17q1 -10 10.5 -22.5t15.5 -20.5q7 -9 17.5 -21t12.5 -24zM602 109
q10 -29 36.5 -38t55.5 -11q10 0 17 4q1 9 -3 19t-10.5 19.5t-13.5 18t-11 15.5q-9 15 -9 29q0 23 28 39q13 7 28 3.5t23 -17.5q3 -6 4.5 -14t3.5 -15q3 -7 6.5 -12.5t7.5 -12.5q3 -5 8 -13.5t11 -14t12.5 -4t11.5 16.5q5 16 6.5 32t2.5 33q1 15 0 39.5t-2 51t-2.5 51
t-1.5 39.5q0 8 0.5 15.5t0.5 15.5q0 17 -2.5 31.5t-5.5 31.5l-4 30t-8 29q-5 11 -15 20t-19 17q-11 10 -26 13.5t-29 5.5q-16 2 -29.5 -2t-27.5 -9t-30 -12t-24 -19t-14 -29.5t-8 -31.5q-3 -20 -4 -41.5t1 -41.5q1 -10 1 -29.5v-41.5v-42t2 -30q1 -12 3.5 -24.5t5.5 -25.5
q2 -15 5.5 -29.5t7.5 -28.5q3 -18 10 -30z" />
    <glyph glyph-name="uniE021" unicode="qq" horiz-adv-x="929" 
d="M446 -82q2 -11 -7 -26t-18 -20q-11 -6 -27.5 -4.5t-24.5 12.5q-7 11 -14.5 24.5t-13.5 25.5q-7 14 -11 24t-19 18q-5 2 -12 2h-15q-11 -2 -21.5 -3.5t-24.5 -1.5q-69 -3 -121 34l-2 1q-16 12 -29 27t-23 34q-3 11 -5 21.5t-4 21.5q-5 18 -9.5 36t-7.5 36q-3 15 -5 36
t-3.5 44.5t-2 48.5t-0.5 49q0 21 0.5 39.5t1.5 32.5q2 35 8 70t17 67q6 16 16.5 28t23.5 20.5t28 15t29 11.5q18 7 36.5 11.5t37.5 7.5t39 7.5t39 -2.5q23 -9 50.5 -29.5t42.5 -40.5q10 -14 13.5 -28t5 -28.5t2.5 -30t4 -30.5q4 -19 7 -36.5t3 -37.5v-65q0 -20 0.5 -38
t2.5 -27q4 -18 5.5 -37t2.5 -37q1 -14 2 -27t1 -27q0 -23 -4 -42q-5 -24 -13.5 -43t-28.5 -39q-8 -8 -8 -17q1 -10 10.5 -22.5t15.5 -20.5q7 -9 17.5 -21t12.5 -24zM141 109q10 -29 36.5 -38t55.5 -11q10 0 17 4q1 9 -3 19t-10.5 19.5t-13.5 18t-11 15.5q-9 15 -9 29
q0 23 28 39q13 7 28 3.5t23 -17.5q3 -6 4.5 -14t3.5 -15q3 -7 6.5 -12.5t7.5 -12.5q3 -5 8 -13.5t11 -14t12.5 -4t11.5 16.5q5 16 6.5 32t2.5 33q1 15 0 39.5t-2 51t-2.5 51t-1.5 39.5q0 8 0.5 15.5t0.5 15.5q0 17 -2.5 31.5t-5.5 31.5l-4 30t-8 29q-5 11 -15 20t-19 17
q-11 10 -26 13.5t-29 5.5q-16 2 -29.5 -2t-27.5 -9t-30 -12t-24 -19t-14 -29.5t-8 -31.5q-3 -20 -4 -41.5t1 -41.5q1 -10 1 -29.5v-41.5v-42t2 -30q1 -12 3.5 -24.5t5.5 -25.5q2 -15 5.5 -29.5t7.5 -28.5q3 -18 10 -30zM883 131q-15 -37 -45 -63q-6 -11 -6.5 -21.5t2 -21
t7.5 -21t9 -19.5q5 -11 9 -25.5t4 -28.5q0 -13 -5.5 -24t-20.5 -16q-12 -5 -28.5 -1t-23.5 16q-3 7 -3 13.5t-2 13.5q-2 8 -4.5 14.5t-4.5 13.5q-4 11 -5 12.5t-4 12.5q-3 9 -6 22t-11 18q-2 2 -7.5 3.5t-26.5 1.5q-13 1 -29 3t-32 6t-31 9t-25 11q-29 16 -43.5 35.5
t-24.5 48.5t-18 58t-10 60t-3.5 61.5t-3.5 61.5q-2 29 0 59.5t4 59.5q2 23 6.5 42t24.5 36q35 32 80 52t95 20q27 0 57 -8q40 -11 64 -31t37.5 -46.5t20.5 -58t14 -65.5t11.5 -74.5t4.5 -83.5q0 -42 -6 -82t-21 -74zM603 187q6 -11 10 -21.5t15 -19.5q11 -8 19 -14.5
t22 -8.5q8 -1 16 -1t16 -1q9 4 11 12t0 17.5t-5.5 19.5t-6.5 17q-4 11 -11 24.5t-4 24.5q4 14 18.5 21.5t30.5 7.5q12 0 21.5 -4.5t14.5 -15.5q5 -13 7.5 -26.5t7.5 -27.5q2 -6 4.5 -12.5t6 -9.5t7 -1.5t7.5 12.5q6 20 8.5 41.5t6.5 43.5q2 19 0.5 38t-2.5 38q0 18 -2 34.5
t-4 33.5t-6.5 33.5t-9.5 33.5q-4 14 -8 26t-13 23t-20.5 18t-22.5 15q-9 8 -21.5 10.5t-23.5 3.5q-13 1 -24 -2t-21.5 -8.5t-20.5 -11.5t-20 -11t-16.5 -14.5t-10.5 -20.5t-5.5 -22.5t-2.5 -21.5q-1 -14 0.5 -27t1.5 -27q-2 -30 1.5 -59t4.5 -62q0 -13 2.5 -25.5t5.5 -24.5
q3 -13 7 -25t9 -23z" />
    <glyph glyph-name="uniE022" unicode="RR" horiz-adv-x="836" 
d="M366 74q12 -16 26.5 -36t14.5 -40q0 -9 -4.5 -17.5t-15.5 -16.5q-18 -12 -31.5 -5.5t-24 20.5t-18.5 31t-14 28q-15 28 -31.5 59t-39.5 54q-16 14 -27.5 10.5t-31.5 -8.5l-18 -3q-8 -5 -9.5 -12.5t-2.5 -18.5q-1 -23 4 -55.5t7 -55.5q1 -9 0.5 -18.5t-4 -17t-10.5 -11
t-20 -0.5q-21 5 -30.5 13.5t-10.5 28.5q-1 21 -6.5 51t-9.5 51q-8 44 -9 90.5t-7 90.5q-4 27 -4 56.5t-1 56.5q-2 26 -4 51.5t-4 51.5q-1 23 -1 46.5t-5 45.5q-2 12 -5.5 24t-3.5 23q0 16 11 31q6 8 16 11t21 3t23 -2t21 -4q48 -8 92 -33q11 -5 22.5 -11.5t20.5 -14.5
q11 -9 19 -20t19 -19q36 -28 62 -68t35 -85q6 -30 6 -56q0 -32 -10.5 -61t-33.5 -58q-16 -20 -39 -37v-8.5t2 -9.5q11 -32 27 -64t37 -61zM117 596q-4 -1 -6.5 -5.5t-3.5 -10.5t-1.5 -12t-0.5 -10q0 -40 4.5 -79t6.5 -79q2 -37 4 -71.5t13 -70.5q7 -20 26 -20q13 0 27 6
t25 10q48 17 72.5 55.5t18.5 83.5q-5 43 -28.5 77.5t-59.5 60.5q-17 13 -27 27t-30 23q-3 1 -8.5 4t-11.5 5.5t-11.5 4.5t-8.5 1zM786 72q4 -7 11.5 -15.5t14.5 -17.5t12.5 -18.5t5.5 -18.5q0 -14 -16 -24q-15 -9 -28.5 -6.5t-24.5 11.5t-20.5 21.5t-16.5 23.5
q-9 13 -17.5 25t-16.5 25q-8 14 -14 28t-14 26q-9 13 -22 16.5t-27 1.5q-13 -2 -30.5 -4t-27.5 -11q-4 -4 -6.5 -11.5t-3.5 -16.5t-1 -17.5v-13.5q-2 -32 3 -60q1 -10 5 -23t-2 -23q-7 -11 -19.5 -9.5t-21.5 4.5q-21 8 -31 29q-9 24 -9 50q0 17 -2 34.5t-4 34.5
q-1 23 -3.5 45.5t-4.5 45.5q-2 15 -2 30v30v40q0 12 -1 29.5t-2 36t-2.5 35.5t-2.5 29q-3 26 -3.5 52.5t-0.5 52.5q0 8 -1 16t-3 15q-2 3 -6.5 5.5t-9.5 5.5t-9 7.5t-3 13.5q4 13 7.5 29t17.5 22q7 2 14.5 2t15.5 1q8 2 16 1.5t16 0.5q17 1 33.5 -2.5t33.5 -5.5
q16 -3 33.5 -4.5t32.5 -8.5q33 -14 58.5 -35t47.5 -49q11 -14 22 -29t18 -31t15.5 -30t13.5 -31q4 -14 6 -34t2 -40q0 -23 -3 -44.5t-10 -36.5t-17 -25.5t-22 -21.5q-10 -8 -21 -19t-9 -25q2 -13 9 -27.5t12 -26.5q8 -16 17.5 -31t17.5 -29zM725 339q3 16 0 35t-9.5 39
t-15 38.5t-16.5 33.5q-6 11 -10.5 17t-9 10t-11 7.5t-15.5 10.5q-11 8 -24 15.5t-26 13.5q-5 2 -13.5 5t-18 5t-18 2t-12.5 -4t-6 -11.5t-2.5 -16t-0.5 -16.5v-14q2 -21 4 -48t3.5 -54.5t3 -54.5t2.5 -48q1 -11 3 -21.5t3 -21.5q2 -18 9 -28t26 -6q14 4 29.5 8t29.5 9
q17 7 30.5 17t26.5 23q11 12 22.5 25t15.5 30z" />
    <glyph glyph-name="uniE023" unicode="rr" horiz-adv-x="836" 
d="M380 72q4 -7 11.5 -15.5t14.5 -17.5t12.5 -18.5t5.5 -18.5q0 -14 -16 -24q-15 -9 -28.5 -6.5t-24.5 11.5t-20.5 21.5t-16.5 23.5q-9 13 -17.5 25t-16.5 25q-8 14 -14 28t-14 26q-9 13 -22 16.5t-27 1.5q-13 -2 -30.5 -4t-27.5 -11q-4 -4 -6.5 -11.5t-3.5 -16.5t-1 -17.5
v-13.5q-2 -32 3 -60q1 -10 5 -23t-2 -23q-7 -11 -19.5 -9.5t-21.5 4.5q-21 8 -31 29q-9 24 -9 50q0 17 -2 34.5t-4 34.5q-1 23 -3.5 45.5t-4.5 45.5q-2 15 -2 30v30v40q0 12 -1 29.5t-2 36t-2.5 35.5t-2.5 29q-3 26 -3.5 52.5t-0.5 52.5q0 8 -1 16t-3 15q-2 3 -6.5 5.5
t-9.5 5.5t-9 7.5t-3 13.5q4 13 7.5 29t17.5 22q7 2 14.5 2t15.5 1q8 2 16 1.5t16 0.5q17 1 33.5 -2.5t33.5 -5.5q16 -3 33.5 -4.5t32.5 -8.5q33 -14 58.5 -35t47.5 -49q11 -14 22 -29t18 -31t15.5 -30t13.5 -31q4 -14 6 -34t2 -40q0 -23 -3 -44.5t-10 -36.5t-17 -25.5
t-22 -21.5q-10 -8 -21 -19t-9 -25q2 -13 9 -27.5t12 -26.5q8 -16 17.5 -31t17.5 -29zM319 339q3 16 0 35t-9.5 39t-15 38.5t-16.5 33.5q-6 11 -10.5 17t-9 10t-11 7.5t-15.5 10.5q-11 8 -24 15.5t-26 13.5q-5 2 -13.5 5t-18 5t-18 2t-12.5 -4t-6 -11.5t-2.5 -16t-0.5 -16.5
v-14q2 -21 4 -48t3.5 -54.5t3 -54.5t2.5 -48q1 -11 3 -21.5t3 -21.5q2 -18 9 -28t26 -6q14 4 29.5 8t29.5 9q17 7 30.5 17t26.5 23q11 12 22.5 25t15.5 30zM796 74q12 -16 26.5 -36t14.5 -40q0 -9 -4.5 -17.5t-15.5 -16.5q-18 -12 -31.5 -5.5t-24 20.5t-18.5 31t-14 28
q-15 28 -31.5 59t-39.5 54q-16 14 -27.5 10.5t-31.5 -8.5l-18 -3q-8 -5 -9.5 -12.5t-2.5 -18.5q-1 -23 4 -55.5t7 -55.5q1 -9 0.5 -18.5t-4 -17t-10.5 -11t-20 -0.5q-21 5 -30.5 13.5t-10.5 28.5q-1 21 -6.5 51t-9.5 51q-8 44 -9 90.5t-7 90.5q-4 27 -4 56.5t-1 56.5
q-2 26 -4 51.5t-4 51.5q-1 23 -1 46.5t-5 45.5q-2 12 -5.5 24t-3.5 23q0 16 11 31q6 8 16 11t21 3t23 -2t21 -4q48 -8 92 -33q11 -5 22.5 -11.5t20.5 -14.5q11 -9 19 -20t19 -19q36 -28 62 -68t35 -85q6 -30 6 -56q0 -32 -10.5 -61t-33.5 -58q-16 -20 -39 -37v-8.5t2 -9.5
q11 -32 27 -64t37 -61zM547 596q-4 -1 -6.5 -5.5t-3.5 -10.5t-1.5 -12t-0.5 -10q0 -40 4.5 -79t6.5 -79q2 -37 4 -71.5t13 -70.5q7 -20 26 -20q13 0 27 6t25 10q48 17 72.5 55.5t18.5 83.5q-5 43 -28.5 77.5t-59.5 60.5q-17 13 -27 27t-30 23q-3 1 -8.5 4t-11.5 5.5
t-11.5 4.5t-8.5 1z" />
    <glyph glyph-name="uniE024" unicode="SS" horiz-adv-x="816" 
d="M261 623q15 -10 29.5 -30t14.5 -40q0 -19 -15 -31q-11 -9 -30 -9q-22 0 -34 15q-5 7 -8 16t-10 16q-8 8 -23.5 15.5t-26.5 6.5q-8 -1 -20 -5.5t-23 -11.5t-19 -16.5t-6 -19.5q1 -8 7 -19t14 -22.5t16 -21.5t14 -14q9 -8 26 -21.5t35 -29t34.5 -30t25.5 -23.5l33 -33
t27 -29q29 -35 50 -74t18 -83q-2 -42 -21.5 -75t-55.5 -54q-47 -28 -98 -28q-38 0 -84 16q-18 7 -38 23t-35 36.5t-20.5 42.5t5.5 42q8 14 25 21.5t31 -5.5q7 -8 9.5 -16.5t4 -17t5 -17t13.5 -15.5q35 -26 75 -26q26 0 48.5 11t38.5 33q9 12 12.5 23.5t3.5 22.5q0 27 -17 51
t-36 47q-30 37 -66 63.5t-71 59.5q-8 7 -22.5 22t-30 31.5t-29 32t-19.5 24.5q-14 23 -14 54q0 19 6 36q17 47 57 69.5t87 22.5q26 0 55.5 -10t51.5 -26zM669 629q6 -6 13.5 -16t13.5 -21.5t10 -24t4 -24.5q0 -22 -15 -34q-12 -8 -24 -10q-11 -2 -27 5t-19 18q-2 11 -1.5 21
t-4.5 20q-5 11 -9.5 17t-15.5 7q-7 1 -14.5 1.5t-15.5 0.5q-19 0 -38 -4.5t-30 -18.5q-8 -10 -9 -21.5t-1 -23.5q0 -15 3 -28t12 -25q14 -20 31.5 -38.5t35.5 -38.5q5 -5 11 -9.5t12 -9.5q31 -23 62.5 -41.5t63.5 -39.5q11 -8 23.5 -16t20.5 -19q8 -10 14 -20.5t12 -21.5
q14 -26 21 -53t4 -57q-6 -62 -56 -97q-33 -23 -78 -31.5t-85 -6.5q-21 1 -44 6.5t-43 13.5q-33 12 -55 40q-14 17 -25 40t-3 46q5 11 15 17.5t22 5.5q15 0 19 -3.5t11 -17.5q11 -20 32 -36t43 -22q8 -2 16.5 -3t16.5 -1q22 0 40 3q16 2 31 7t29 14q13 8 18 20t5 25
q0 20 -9 40q-7 15 -17.5 27.5t-22.5 23.5q-18 17 -38 29t-40 27q-11 9 -23.5 16t-23.5 17q-23 17 -43 34q-20 18 -38.5 36.5t-35.5 40.5q-14 18 -23.5 42t-14.5 47q-4 20 0 38.5t11 37.5q6 15 13 28t21 23q16 11 37 18.5t40 11.5q10 2 20.5 3t21.5 1q22 0 45 -5
q17 -4 36.5 -11t31.5 -20z" />
    <glyph glyph-name="uniE025" unicode="ss" horiz-adv-x="785" 
d="M278 629q6 -6 13.5 -16t13.5 -21.5t10 -24t4 -24.5q0 -22 -15 -34q-12 -8 -24 -10q-11 -2 -27 5t-19 18q-2 11 -1.5 21t-4.5 20q-5 11 -9.5 17t-15.5 7q-7 1 -14.5 1.5t-15.5 0.5q-19 0 -38 -4.5t-30 -18.5q-8 -10 -9 -21.5t-1 -23.5q0 -15 3 -28t12 -25
q14 -20 31.5 -38.5t35.5 -38.5q5 -5 11 -9.5t12 -9.5q31 -23 62.5 -41.5t63.5 -39.5q11 -8 23.5 -16t20.5 -19q8 -10 14 -20.5t12 -21.5q14 -26 21 -53t4 -57q-6 -62 -56 -97q-33 -23 -78 -31.5t-85 -6.5q-21 1 -44 6.5t-43 13.5q-33 12 -55 40q-14 17 -25 40t-3 46
q5 11 15 17.5t22 5.5q15 0 19 -3.5t11 -17.5q11 -20 32 -36t43 -22q8 -2 16.5 -3t16.5 -1q22 0 40 3q16 2 31 7t29 14q13 8 18 20t5 25q0 20 -9 40q-7 15 -17.5 27.5t-22.5 23.5q-18 17 -38 29t-40 27q-11 9 -23.5 16t-23.5 17q-23 17 -43 34q-20 18 -38.5 36.5t-35.5 40.5
q-14 18 -23.5 42t-14.5 47q-4 20 0 38.5t11 37.5q6 15 13 28t21 23q16 11 37 18.5t40 11.5q10 2 20.5 3t21.5 1q22 0 45 -5q17 -4 36.5 -11t31.5 -20zM681 623q15 -10 29.5 -30t14.5 -40q0 -19 -15 -31q-11 -9 -30 -9q-22 0 -34 15q-5 7 -8 16t-10 16q-8 8 -23.5 15.5
t-26.5 6.5q-8 -1 -20 -5.5t-23 -11.5t-19 -16.5t-6 -19.5q1 -8 7 -19t14 -22.5t16 -21.5t14 -14q9 -8 26 -21.5t35 -29t34.5 -30t25.5 -23.5l33 -33t27 -29q29 -35 50 -74t18 -83q-2 -42 -21.5 -75t-55.5 -54q-47 -28 -98 -28q-38 0 -84 16q-18 7 -38 23t-35 36.5
t-20.5 42.5t5.5 42q8 14 25 21.5t31 -5.5q7 -8 9.5 -16.5t4 -17t5 -17t13.5 -15.5q35 -26 75 -26q26 0 48.5 11t38.5 33q9 12 12.5 23.5t3.5 22.5q0 27 -17 51t-36 47q-30 37 -66 63.5t-71 59.5q-8 7 -22.5 22t-30 31.5t-29 32t-19.5 24.5q-14 23 -14 54q0 19 6 36
q17 47 57 69.5t87 22.5q26 0 55.5 -10t51.5 -26z" />
    <glyph glyph-name="uniE026" unicode="TT" horiz-adv-x="789" 
d="M230 403q-2 -38 4 -75.5t4 -75.5q-1 -11 -1 -24v-27q0 -29 1.5 -59t3.5 -55q2 -14 4.5 -26.5t5.5 -26.5q4 -16 3.5 -26t-13.5 -20q-13 -11 -24.5 -14t-26.5 7q-14 10 -15.5 22t-2.5 26q-2 17 -5 34.5t-5 34.5q-2 22 0.5 53.5t1.5 53.5q-2 50 -6.5 98.5t-7.5 97.5
q-1 21 -2.5 42t-3.5 41q-1 17 -3 34.5t-4 34.5q-1 9 -9 12t-19 3t-24.5 -1.5t-24.5 -2.5q-14 -1 -30 4t-22 18q-5 12 -1.5 31t12.5 29q11 11 27 12t30 0q13 -1 21 -1t15.5 -0.5t15.5 -1.5t20 -3q23 -3 46.5 -6.5t46.5 -4.5q20 -1 39.5 -3t38.5 -8q17 -5 28 -13.5t12 -27.5
q1 -11 -6.5 -25.5t-18.5 -19.5q-13 -6 -27.5 -2.5t-28.5 6.5q-5 1 -13 2.5t-16 2.5t-14.5 0t-9.5 -5q-4 -5 -5 -13t-1 -16t0.5 -16.5t0.5 -14.5q0 -22 5 -42.5t4 -42.5zM727 536q-7 1 -19 4t-25.5 6t-26 3.5t-18.5 -4.5q-6 -4 -7.5 -11t-1 -14.5t2 -15.5t1.5 -14
q2 -18 1 -37t0 -38q2 -21 3.5 -42t3.5 -42q2 -36 4 -72.5t2 -73.5q0 -32 1 -64t4 -63q2 -14 5 -28.5t4 -28.5q1 -16 -8 -26t-23 -18q-11 -5 -29 0t-24 16q-7 14 -4.5 27.5t2.5 27.5q0 38 -4.5 75.5t-7.5 75.5q-2 20 0 41t0 41q-2 25 -5.5 49t-3.5 49t2 49.5t-1 48.5
q-6 37 -14 73q-1 7 -3 16t-7 14t-11.5 4.5t-14.5 -0.5q-14 0 -23.5 1.5t-23.5 -0.5q-15 -2 -30 0t-29 10q-15 11 -17 23.5t3 28.5t16.5 21.5t26.5 5.5q18 0 37 -4t33 -5t26.5 -0.5t25.5 -2.5q9 -2 18 -4.5t18 -5.5q13 -3 30 -4.5t35 -2.5t35.5 -1.5t30.5 -1.5q18 -2 37 -4.5
t27 -22.5q4 -11 7 -27.5t-7 -25.5q-9 -8 -26 -7.5t-28 1.5z" />
    <glyph glyph-name="uniE027" unicode="tt" horiz-adv-x="792" 
d="M344 536q-7 1 -19 4t-25.5 6t-26 3.5t-18.5 -4.5q-6 -4 -7.5 -11t-1 -14.5t2 -15.5t1.5 -14q2 -18 1 -37t0 -38q2 -21 3.5 -42t3.5 -42q2 -36 4 -72.5t2 -73.5q0 -32 1 -64t4 -63q2 -14 5 -28.5t4 -28.5q1 -16 -8 -26t-23 -18q-11 -5 -29 0t-24 16q-7 14 -4.5 27.5
t2.5 27.5q0 38 -4.5 75.5t-7.5 75.5q-2 20 0 41t0 41q-2 25 -5.5 49t-3.5 49t2 49.5t-1 48.5q-6 37 -14 73q-1 7 -3 16t-7 14t-11.5 4.5t-14.5 -0.5q-14 0 -23.5 1.5t-23.5 -0.5q-15 -2 -30 0t-29 10q-15 11 -17 23.5t3 28.5t16.5 21.5t26.5 5.5q18 0 37 -4t33 -5t26.5 -0.5
t25.5 -2.5q9 -2 18 -4.5t18 -5.5q13 -3 30 -4.5t35 -2.5t35.5 -1.5t30.5 -1.5q18 -2 37 -4.5t27 -22.5q4 -11 7 -27.5t-7 -25.5q-9 -8 -26 -7.5t-28 1.5zM653 403q-2 -38 4 -75.5t4 -75.5q-1 -11 -1 -24v-27q0 -29 1.5 -59t3.5 -55q2 -14 4.5 -26.5t5.5 -26.5q4 -16 3.5 -26
t-13.5 -20q-13 -11 -24.5 -14t-26.5 7q-14 10 -15.5 22t-2.5 26q-2 17 -5 34.5t-5 34.5q-2 22 0.5 53.5t1.5 53.5q-2 50 -6.5 98.5t-7.5 97.5q-1 21 -2.5 42t-3.5 41q-1 17 -3 34.5t-4 34.5q-1 9 -9 12t-19 3t-24.5 -1.5t-24.5 -2.5q-14 -1 -30 4t-22 18q-5 12 -1.5 31
t12.5 29q11 11 27 12t30 0q13 -1 21 -1t15.5 -0.5t15.5 -1.5t20 -3q23 -3 46.5 -6.5t46.5 -4.5q20 -1 39.5 -3t38.5 -8q17 -5 28 -13.5t12 -27.5q1 -11 -6.5 -25.5t-18.5 -19.5q-13 -6 -27.5 -2.5t-28.5 6.5q-5 1 -13 2.5t-16 2.5t-14.5 0t-9.5 -5q-4 -5 -5 -13t-1 -16
t0.5 -16.5t0.5 -14.5q0 -22 5 -42.5t4 -42.5z" />
    <glyph glyph-name="uniE028" unicode="UU" horiz-adv-x="851" 
d="M32 378q1 49 0.5 98t0.5 98q0 7 -1 16.5t-1.5 19t0.5 18t6 13.5q13 14 29.5 10t29.5 -17q9 -9 12 -20.5t4 -23.5q1 -8 0.5 -15t0.5 -14q4 -43 0 -83.5t-2 -83.5q0 -14 1.5 -29t2.5 -29q1 -8 1.5 -15.5t-0.5 -15.5q0 -9 0.5 -18.5t1.5 -19.5l2 -26t3 -26q1 -15 2.5 -38.5
t7 -47.5t15 -43t26.5 -23t37 2.5t36 12.5q8 4 18 8.5t18 10.5q8 5 19 11.5t17 14.5q10 13 9 35t1 39q2 20 -2.5 41t-6.5 42q-4 43 -11.5 82.5t-14.5 81.5q-3 21 -5.5 42t-5.5 41q-2 19 -8.5 40t-3.5 39q3 17 21 25t33 -2q12 -7 19 -28t10 -35q12 -43 19 -89.5t11 -91.5
q5 -53 15.5 -104t12.5 -103q2 -28 3.5 -55t-12.5 -50q-23 -34 -60 -55q-24 -14 -51 -21t-52 -19q-19 -9 -42 -13.5t-44 2.5q-17 5 -33.5 18t-31 30t-24.5 36.5t-14 37.5q-5 17 -6.5 33t-2.5 33q-3 29 -4 59t-3 60q-4 53 -3 104zM452 490q3 12 4.5 28t4.5 31.5t9 29t18 21.5
q13 8 27.5 4t25.5 -14q12 -11 7.5 -26t-10.5 -26q-9 -18 -12 -41t-3 -46q0 -19 1 -36.5t2 -33.5q1 -17 0.5 -33t-0.5 -33v-19t1 -19q0 -10 1.5 -27t4 -35.5t5 -35.5t5.5 -26q3 -13 9.5 -29t15.5 -30t21.5 -23.5t28.5 -7.5q14 1 31 6t32.5 12.5t28 18.5t17.5 26q8 19 10.5 49
t2.5 62q0 26 -1 50t-3 41q-2 19 -6 39t-6 40q-2 18 -5 36t-6 37q-3 17 -5.5 34t-6.5 34q-4 14 -6 28t0 28q2 13 8.5 23t20.5 12q24 5 36 -19q5 -11 9.5 -26.5t7.5 -28.5q6 -25 12.5 -49t11.5 -48q8 -32 13 -64.5t7 -64.5v-39v-49v-49t2 -39q3 -31 -8.5 -56t-28.5 -50
q-11 -17 -29.5 -27t-35.5 -18q-25 -13 -55 -22.5t-59 -9.5q-32 0 -56 14q-17 10 -34.5 23.5t-26.5 32.5q-12 23 -23.5 47.5t-15.5 50.5q-2 14 -2 28.5t-2 28.5q-1 7 -1.5 22t-1.5 31t-1.5 30.5t-1.5 21.5q-2 26 0 51.5t3 51.5q2 20 2.5 39t5.5 38z" />
    <glyph glyph-name="uniE029" unicode="uu" horiz-adv-x="851" 
d="M38 490q3 12 4.5 28t4.5 31.5t9 29t18 21.5q13 8 27.5 4t25.5 -14q12 -11 7.5 -26t-10.5 -26q-9 -18 -12 -41t-3 -46q0 -19 1 -36.5t2 -33.5q1 -17 0.5 -33t-0.5 -33v-19t1 -19q0 -10 1.5 -27t4 -35.5t5 -35.5t5.5 -26q3 -13 9.5 -29t15.5 -30t21.5 -23.5t28.5 -7.5
q14 1 31 6t32.5 12.5t28 18.5t17.5 26q8 19 10.5 49t2.5 62q0 26 -1 50t-3 41q-2 19 -6 39t-6 40q-2 18 -5 36t-6 37q-3 17 -5.5 34t-6.5 34q-4 14 -6 28t0 28q2 13 8.5 23t20.5 12q24 5 36 -19q5 -11 9.5 -26.5t7.5 -28.5q6 -25 12.5 -49t11.5 -48q8 -32 13 -64.5t7 -64.5
v-39v-49v-49t2 -39q3 -31 -8.5 -56t-28.5 -50q-11 -17 -29.5 -27t-35.5 -18q-25 -13 -55 -22.5t-59 -9.5q-32 0 -56 14q-17 10 -34.5 23.5t-26.5 32.5q-12 23 -23.5 47.5t-15.5 50.5q-2 14 -2 28.5t-2 28.5q-1 7 -1.5 22t-1.5 31t-1.5 30.5t-1.5 21.5q-2 26 0 51.5t3 51.5
q2 20 2.5 39t5.5 38zM469 378q1 49 0.5 98t0.5 98q0 7 -1 16.5t-1.5 19t0.5 18t6 13.5q13 14 29.5 10t29.5 -17q9 -9 12 -20.5t4 -23.5q1 -8 0.5 -15t0.5 -14q4 -43 0 -83.5t-2 -83.5q0 -14 1.5 -29t2.5 -29q1 -8 1.5 -15.5t-0.5 -15.5q0 -9 0.5 -18.5t1.5 -19.5l2 -26
t3 -26q1 -15 2.5 -38.5t7 -47.5t15 -43t26.5 -23t37 2.5t36 12.5q8 4 18 8.5t18 10.5q8 5 19 11.5t17 14.5q10 13 9 35t1 39q2 20 -2.5 41t-6.5 42q-4 43 -11.5 82.5t-14.5 81.5q-3 21 -5.5 42t-5.5 41q-2 19 -8.5 40t-3.5 39q3 17 21 25t33 -2q12 -7 19 -28t10 -35
q12 -43 19 -89.5t11 -91.5q5 -53 15.5 -104t12.5 -103q2 -28 3.5 -55t-12.5 -50q-23 -34 -60 -55q-24 -14 -51 -21t-52 -19q-19 -9 -42 -13.5t-44 2.5q-17 5 -33.5 18t-31 30t-24.5 36.5t-14 37.5q-5 17 -6.5 33t-2.5 33q-3 29 -4 59t-3 60q-4 53 -3 104z" />
    <glyph glyph-name="uniE02A" unicode="VV" horiz-adv-x="791" 
d="M98 223q-11 35 -20 69.5t-18 69.5q-8 27 -17 55t-13 57q-2 14 -4.5 27t-4.5 27q-1 12 -4.5 33.5t-3.5 42.5q0 23 8 41t33 18q12 0 18.5 -5t10.5 -12.5t5 -17t3 -18.5q4 -21 8 -42.5t9 -41.5q11 -42 18.5 -83.5t17.5 -83.5q5 -22 13 -42.5t16 -41.5q7 -20 12 -38.5
t13 -37.5q3 -8 7.5 -15t9 -9.5t9.5 0.5t10 17q8 20 10 41l4 42q5 48 11 90.5t14 90.5q6 45 12.5 94.5t25.5 90.5l8.5 17t10.5 15t14 8t19 -3q13 -6 17.5 -14.5t4.5 -18.5q0 -9 -2.5 -19t-4.5 -19q-11 -52 -16 -105t-13 -106q-8 -54 -15.5 -107t-16.5 -106q-4 -21 -5 -44
t-2.5 -45.5t-5.5 -44.5t-15 -41q-4 -8 -13 -13.5t-20 -8.5t-22 -2.5t-20 3.5q-19 7 -26 24t-15 34q-20 43 -41 87t-34 91zM429 489q-5 14 -11.5 33.5t-8.5 38.5q-2 21 6 36.5t36 14.5q15 0 23.5 -7.5t13 -18t6.5 -22.5t4 -23q5 -23 14 -44.5t17 -44.5q8 -26 17 -51.5
t17 -51.5q14 -49 29 -96.5t31 -94.5q3 4 5.5 16.5t4.5 27t3 28t1 20.5q4 46 11 91.5t17 90.5q5 24 6 48.5t3 48.5q2 22 3.5 42.5t-0.5 41.5q-1 11 3 20.5t11.5 15.5t17.5 7.5t22 -3.5q8 -3 18 -12.5t13 -14.5q8 -11 7 -19t-2 -19q-9 -73 -20 -147.5t-25 -147.5
q-6 -32 -8.5 -64.5t-4 -65t-4 -65t-7.5 -63.5q-1 -9 -5.5 -19t-11 -19t-15 -15.5t-17.5 -7.5q-20 -3 -41.5 9.5t-26.5 31.5q-17 54 -32 107t-36 108q-17 44 -31 87.5t-27 88.5q-7 21 -13 41.5t-13 41.5z" />
    <glyph glyph-name="uniE02B" unicode="vv" horiz-adv-x="791" 
d="M30 489q-5 14 -11.5 33.5t-8.5 38.5q-2 21 6 36.5t36 14.5q15 0 23.5 -7.5t13 -18t6.5 -22.5t4 -23q5 -23 14 -44.5t17 -44.5q8 -26 17 -51.5t17 -51.5q14 -49 29 -96.5t31 -94.5q3 4 5.5 16.5t4.5 27t3 28t1 20.5q4 46 11 91.5t17 90.5q5 24 6 48.5t3 48.5
q2 22 3.5 42.5t-0.5 41.5q-1 11 3 20.5t11.5 15.5t17.5 7.5t22 -3.5q8 -3 18 -12.5t13 -14.5q8 -11 7 -19t-2 -19q-9 -73 -20 -147.5t-25 -147.5q-6 -32 -8.5 -64.5t-4 -65t-4 -65t-7.5 -63.5q-1 -9 -5.5 -19t-11 -19t-15 -15.5t-17.5 -7.5q-20 -3 -41.5 9.5t-26.5 31.5
q-17 54 -32 107t-36 108q-17 44 -31 87.5t-27 88.5q-7 21 -13 41.5t-13 41.5zM490 223q-11 35 -20 69.5t-18 69.5q-8 27 -17 55t-13 57q-2 14 -4.5 27t-4.5 27q-1 12 -4.5 33.5t-3.5 42.5q0 23 8 41t33 18q12 0 18.5 -5t10.5 -12.5t5 -17t3 -18.5q4 -21 8 -42.5t9 -41.5
q11 -42 18.5 -83.5t17.5 -83.5q5 -22 13 -42.5t16 -41.5q7 -20 12 -38.5t13 -37.5q3 -8 7.5 -15t9 -9.5t9.5 0.5t10 17q8 20 10 41l4 42q5 48 11 90.5t14 90.5q6 45 12.5 94.5t25.5 90.5l8.5 17t10.5 15t14 8t19 -3q13 -6 17.5 -14.5t4.5 -18.5q0 -9 -2.5 -19t-4.5 -19
q-11 -52 -16 -105t-13 -106q-8 -54 -15.5 -107t-16.5 -106q-4 -21 -5 -44t-2.5 -45.5t-5.5 -44.5t-15 -41q-4 -8 -13 -13.5t-20 -8.5t-22 -2.5t-20 3.5q-19 7 -26 24t-15 34q-20 43 -41 87t-34 91z" />
    <glyph glyph-name="uniE02C" unicode="WW" horiz-adv-x="1044" 
d="M498 619q-2 -17 -2.5 -35.5t0.5 -36.5q1 -17 1 -34v-34q0 -39 -1 -78.5t-2 -78.5q-2 -28 -2.5 -56t-1.5 -56q0 -22 -2.5 -44.5t-1.5 -44.5q1 -11 1.5 -20.5t0.5 -19.5q1 -28 -2.5 -50t-29.5 -35q-15 -7 -25.5 -1t-19 18.5t-15 27t-12.5 23.5q-16 23 -26 48.5t-26 51.5
q-7 11 -13.5 24t-13.5 25q-3 6 -6 11t-5 11q-3 6 -9 18.5t-8 18.5q-3 1 -6 -2t-5 -7.5l-4 -9t-3 -6.5q-13 -24 -21 -46t-18 -51q-5 -14 -8.5 -29t-7.5 -32q-2 -13 -6.5 -29.5t-9.5 -27.5q-8 -14 -18.5 -22t-22.5 -13q-10 -3 -23.5 4.5t-20.5 19.5q-5 11 -6.5 26.5t-3.5 27.5
q-3 17 -6.5 34t-6.5 34q-14 72 -24.5 144t-22.5 144q-6 34 -12.5 70t-3.5 71q2 14 3 26.5t13 21.5q10 8 26 15.5t24 -3.5q14 -23 13.5 -48.5t1.5 -51.5q1 -13 4 -24.5t5 -24.5t4.5 -25.5t4.5 -26.5q5 -32 10.5 -66t11.5 -66q3 -15 6.5 -28t5.5 -27q6 -17 12 -14.5t10.5 13
t8.5 24t6 19.5q5 16 9 32t9 32q5 15 9 29t6 31q2 16 10 28t25 15q18 3 29.5 -3t19 -17t12.5 -25t11 -26q13 -28 24.5 -56t22.5 -57q3 -6 6.5 -16.5t8 -18.5t9 -10t9.5 8q2 10 2.5 20.5t0.5 21.5q0 30 2.5 59.5t2.5 60.5q0 35 -1.5 69t-0.5 69q1 20 -1 40.5t-2 40.5
q0 24 6 45q5 14 18.5 21t26.5 11q12 3 24 0.5t16 -16.5q5 -14 2 -27.5t-5 -27.5zM551 492q-2 14 -5 24.5t-7 23.5q-7 18 -8 34q0 8 1 15t5 13q7 12 19 19.5t25 5.5q29 -4 34 -41q2 -16 4.5 -31t6.5 -31q2 -9 3 -18.5t3 -19.5q3 -11 6 -25.5t5 -25.5q5 -21 7.5 -37.5
t7.5 -42.5q3 -20 7 -37t9 -36l4 -16t5 -16q2 -8 5 -14.5t5 -14.5l10 20q5 11 5.5 17t2.5 15q1 7 4.5 17.5t7 21.5t6.5 22t4 18q2 13 6 27t10.5 24t16 15t23.5 2q14 -4 21 -15t12 -25t13.5 -33.5t16.5 -33.5q8 -13 14 -24.5t15 -23.5q8 -11 17.5 -25t15.5 -25q5 6 7.5 16.5
t3.5 22.5t1 24t1 20q5 69 5.5 136.5t-0.5 136.5q0 15 -0.5 32.5t10.5 28.5t24 11t27 -5q17 -6 18.5 -15.5t0.5 -27.5q-1 -17 -1 -32.5t-1 -32.5q-3 -75 -3 -149q0 -55 -2.5 -109t-4.5 -108q-1 -21 2 -41t2 -41q1 -15 4.5 -31t1.5 -30q-3 -15 -13.5 -24t-23.5 -10
q-14 -1 -23 7.5t-18 20.5q-8 12 -16 33t-15 35q-8 17 -16.5 31t-16.5 29l-18 28l-18 28q-3 4 -7 11t-9 13.5t-10.5 11.5t-9.5 6q-5 1 -9.5 -7t-8 -18.5l-7 -21t-4.5 -15.5q-5 -15 -9 -30.5t-8 -31.5q-5 -16 -8.5 -30t-6.5 -30q-2 -13 -2.5 -30t-8.5 -26q-9 -10 -22.5 -9
t-24.5 5q-13 5 -19 17t-9 26q-8 32 -16.5 63.5t-16.5 63.5q-11 46 -22 91.5t-19 92.5q-4 24 -8 47l-8 46q-3 12 -4.5 24t-3.5 24z" />
    <glyph glyph-name="uniE02D" unicode="ww" horiz-adv-x="1044" 
d="M26 492q-2 14 -5 24.5t-7 23.5q-7 18 -8 34q0 8 1 15t5 13q7 12 19 19.5t25 5.5q29 -4 34 -41q2 -16 4.5 -31t6.5 -31q2 -9 3 -18.5t3 -19.5q3 -11 6 -25.5t5 -25.5q5 -21 7.5 -37.5t7.5 -42.5q3 -20 7 -37t9 -36l4 -16t5 -16q2 -8 5 -14.5t5 -14.5l10 20q5 11 5.5 17
t2.5 15q1 7 4.5 17.5t7 21.5t6.5 22t4 18q2 13 6 27t10.5 24t16 15t23.5 2q14 -4 21 -15t12 -25t13.5 -33.5t16.5 -33.5q8 -13 14 -24.5t15 -23.5q8 -11 17.5 -25t15.5 -25q5 6 7.5 16.5t3.5 22.5t1 24t1 20q5 69 5.5 136.5t-0.5 136.5q0 15 -0.5 32.5t10.5 28.5t24 11
t27 -5q17 -6 18.5 -15.5t0.5 -27.5q-1 -17 -1 -32.5t-1 -32.5q-3 -75 -3 -149q0 -55 -2.5 -109t-4.5 -108q-1 -21 2 -41t2 -41q1 -15 4.5 -31t1.5 -30q-3 -15 -13.5 -24t-23.5 -10q-14 -1 -23 7.5t-18 20.5q-8 12 -16 33t-15 35q-8 17 -16.5 31t-16.5 29l-18 28l-18 28
q-3 4 -7 11t-9 13.5t-10.5 11.5t-9.5 6q-5 1 -9.5 -7t-8 -18.5l-7 -21t-4.5 -15.5q-5 -15 -9 -30.5t-8 -31.5q-5 -16 -8.5 -30t-6.5 -30q-2 -13 -2.5 -30t-8.5 -26q-9 -10 -22.5 -9t-24.5 5q-13 5 -19 17t-9 26q-8 32 -16.5 63.5t-16.5 63.5q-11 46 -22 91.5t-19 92.5
q-4 24 -8 47l-8 46q-3 12 -4.5 24t-3.5 24zM1017 619q-2 -17 -2.5 -35.5t0.5 -36.5q1 -17 1 -34v-34q0 -39 -1 -78.5t-2 -78.5q-2 -28 -2.5 -56t-1.5 -56q0 -22 -2.5 -44.5t-1.5 -44.5q1 -11 1.5 -20.5t0.5 -19.5q1 -28 -2.5 -50t-29.5 -35q-15 -7 -25.5 -1t-19 18.5t-15 27
t-12.5 23.5q-16 23 -26 48.5t-26 51.5q-7 11 -13.5 24t-13.5 25q-3 6 -6 11t-5 11q-3 6 -9 18.5t-8 18.5q-3 1 -6 -2t-5 -7.5l-4 -9t-3 -6.5q-13 -24 -21 -46t-18 -51q-5 -14 -8.5 -29t-7.5 -32q-2 -13 -6.5 -29.5t-9.5 -27.5q-8 -14 -18.5 -22t-22.5 -13q-10 -3 -23.5 4.5
t-20.5 19.5q-5 11 -6.5 26.5t-3.5 27.5q-3 17 -6.5 34t-6.5 34q-14 72 -24.5 144t-22.5 144q-6 34 -12.5 70t-3.5 71q2 14 3 26.5t13 21.5q10 8 26 15.5t24 -3.5q14 -23 13.5 -48.5t1.5 -51.5q1 -13 4 -24.5t5 -24.5t4.5 -25.5t4.5 -26.5q5 -32 10.5 -66t11.5 -66
q3 -15 6.5 -28t5.5 -27q6 -17 12 -14.5t10.5 13t8.5 24t6 19.5q5 16 9 32t9 32q5 15 9 29t6 31q2 16 10 28t25 15q18 3 29.5 -3t19 -17t12.5 -25t11 -26q13 -28 24.5 -56t22.5 -57q3 -6 6.5 -16.5t8 -18.5t9 -10t9.5 8q2 10 2.5 20.5t0.5 21.5q0 30 2.5 59.5t2.5 60.5
q0 35 -1.5 69t-0.5 69q1 20 -1 40.5t-2 40.5q0 24 6 45q5 14 18.5 21t26.5 11q12 3 24 0.5t16 -16.5q5 -14 2 -27.5t-5 -27.5z" />
    <glyph glyph-name="uniE02E" unicode="XX" horiz-adv-x="853" 
d="M341 547q-16 -29 -30 -63t-22 -66q-7 -22 -13.5 -53.5t-8.5 -54.5q-2 -20 5.5 -36t16.5 -33q8 -17 14.5 -33t14.5 -32q4 -8 9 -20.5t10.5 -25.5t11 -25.5t10.5 -21.5q8 -15 20.5 -32t15.5 -34q4 -23 -10 -33.5t-35 -9.5q-11 0 -17.5 3t-11 8t-8.5 12.5t-10 16.5
q-9 16 -19 35.5t-19 39.5t-17 40t-14 37q-5 13 -11.5 21t-11.5 3q-11 -11 -13 -26t-6 -29q-5 -19 -10.5 -37.5t-12.5 -37.5q-6 -17 -15 -39.5t-23 -35.5q-4 -3 -12 -5q-12 2 -24 5.5t-21 14.5t-4.5 23t8.5 23q11 26 17 52.5t15 53.5q11 34 22 71t17 72q3 19 -6 42.5
t-16 41.5q-7 16 -13.5 31.5t-14.5 32.5q-18 35 -33.5 63.5t-31.5 63.5q-10 20 -16 35t1 37q2 7 7.5 15t13 14t16.5 8.5t18 -1.5q7 -3 12 -11t9 -17.5t7.5 -19t6.5 -15.5q9 -19 15.5 -38t16.5 -39q3 -5 7.5 -18t10.5 -28l12 -30t13 -24.5t13.5 -11.5t12.5 9q11 18 19 36
t13 34q5 20 10 39.5t13 38.5q7 18 12 35t10 36t24.5 26t36.5 -1q11 -5 16 -15.5t5 -24.5q0 -24 -10 -51t-18 -41zM725 230q8 -11 12.5 -23t12.5 -23q7 -10 14.5 -19t14.5 -19q6 -9 11 -18t12 -18q13 -15 24.5 -29t19.5 -32q7 -16 4 -30t-19 -24q-14 -10 -28 -11.5t-25 14.5
q-20 29 -40 56t-36 58q-7 14 -16.5 32.5t-20.5 29.5q-8 8 -15 6.5t-13 -8t-10 -15.5t-7 -15q-8 -18 -15 -36.5t-12 -37.5q-4 -16 -4 -33.5t-2 -34.5q-4 -20 -17 -30.5t-28 -10.5t-28.5 10.5t-17.5 30.5q-5 19 1.5 37.5t14.5 35.5q10 20 16.5 40t14.5 41t16 41.5t15 40.5
q5 16 10.5 32t-1.5 32q-8 16 -19.5 29.5t-19.5 28.5q-10 18 -20.5 35t-19.5 34q-10 19 -20.5 39.5t-23.5 37.5q-14 19 -26 35.5t-18 39.5q-5 18 -5 29q0 10 3.5 19t13.5 20q10 13 29 13q8 0 15.5 -3t12.5 -10q10 -11 15.5 -31t10.5 -34q8 -20 19.5 -37.5t20.5 -36.5
q9 -18 21 -36t24 -35q2 -3 6 -12t8.5 -18.5t9.5 -17.5t9 -8q5 0 10 7.5t9 17.5t7 19.5t4 13.5q7 20 15 38t18 37q8 17 14 35t13 36q7 16 13 36.5t20 31.5q13 11 31 16.5t34 -1.5q8 -3 12 -11.5t5.5 -18t0.5 -19.5t-4 -16q-7 -18 -19.5 -33.5t-21.5 -32.5
q-12 -23 -22.5 -46.5t-21.5 -46.5q-21 -41 -38 -87q-6 -19 -12 -35.5t-3 -36.5q3 -17 13 -29t19 -26z" />
    <glyph glyph-name="uniE02F" unicode="xx" horiz-adv-x="853" 
d="M333 230q8 -11 12.5 -23t12.5 -23q7 -10 14.5 -19t14.5 -19q6 -9 11 -18t12 -18q13 -15 24.5 -29t19.5 -32q7 -16 4 -30t-19 -24q-14 -10 -28 -11.5t-25 14.5q-20 29 -40 56t-36 58q-7 14 -16.5 32.5t-20.5 29.5q-8 8 -15 6.5t-13 -8t-10 -15.5t-7 -15q-8 -18 -15 -36.5
t-12 -37.5q-4 -16 -4 -33.5t-2 -34.5q-4 -20 -17 -30.5t-28 -10.5t-28.5 10.5t-17.5 30.5q-5 19 1.5 37.5t14.5 35.5q10 20 16.5 40t14.5 41t16 41.5t15 40.5q5 16 10.5 32t-1.5 32q-8 16 -19.5 29.5t-19.5 28.5q-10 18 -20.5 35t-19.5 34q-10 19 -20.5 39.5t-23.5 37.5
q-14 19 -26 35.5t-18 39.5q-5 18 -5 29q0 10 3.5 19t13.5 20q10 13 29 13q8 0 15.5 -3t12.5 -10q10 -11 15.5 -31t10.5 -34q8 -20 19.5 -37.5t20.5 -36.5q9 -18 21 -36t24 -35q2 -3 6 -12t8.5 -18.5t9.5 -17.5t9 -8q5 0 10 7.5t9 17.5t7 19.5t4 13.5q7 20 15 38t18 37
q8 17 14 35t13 36q7 16 13 36.5t20 31.5q13 11 31 16.5t34 -1.5q8 -3 12 -11.5t5.5 -18t0.5 -19.5t-4 -16q-7 -18 -19.5 -33.5t-21.5 -32.5q-12 -23 -22.5 -46.5t-21.5 -46.5q-21 -41 -38 -87q-6 -19 -12 -35.5t-3 -36.5q3 -17 13 -29t19 -26zM802 547q-16 -29 -30 -63
t-22 -66q-7 -22 -13.5 -53.5t-8.5 -54.5q-2 -20 5.5 -36t16.5 -33q8 -17 14.5 -33t14.5 -32q4 -8 9 -20.5t10.5 -25.5t11 -25.5t10.5 -21.5q8 -15 20.5 -32t15.5 -34q4 -23 -10 -33.5t-35 -9.5q-11 0 -17.5 3t-11 8t-8.5 12.5t-10 16.5q-9 16 -19 35.5t-19 39.5t-17 40
t-14 37q-5 13 -11.5 21t-11.5 3q-11 -11 -13 -26t-6 -29q-5 -19 -10.5 -37.5t-12.5 -37.5q-6 -17 -15 -39.5t-23 -35.5q-4 -3 -12 -5q-12 2 -24 5.5t-21 14.5t-4.5 23t8.5 23q11 26 17 52.5t15 53.5q11 34 22 71t17 72q3 19 -6 42.5t-16 41.5q-7 16 -13.5 31.5t-14.5 32.5
q-18 35 -33.5 63.5t-31.5 63.5q-10 20 -16 35t1 37q2 7 7.5 15t13 14t16.5 8.5t18 -1.5q7 -3 12 -11t9 -17.5t7.5 -19t6.5 -15.5q9 -19 15.5 -38t16.5 -39q3 -5 7.5 -18t10.5 -28l12 -30t13 -24.5t13.5 -11.5t12.5 9q11 18 19 36t13 34q5 20 10 39.5t13 38.5q7 18 12 35
t10 36t24.5 26t36.5 -1q11 -5 16 -15.5t5 -24.5q0 -24 -10 -51t-18 -41z" />
    <glyph glyph-name="uniE030" unicode="YY" horiz-adv-x="863" 
d="M413 625q-8 -23 -20 -44.5t-20 -44.5q-29 -81 -54.5 -161t-39.5 -166q-5 -30 -7.5 -60t-2.5 -61q0 -11 2 -23t2 -23q0 -15 -7 -25.5t-29 -9.5q-27 1 -39 19t-14 43q-2 24 2.5 57t10.5 68.5t11.5 71t5.5 63.5q0 31 -8 46q-9 19 -23.5 35t-31.5 30t-35.5 27t-34.5 27
q-13 11 -26.5 23.5t-24.5 26.5t-17 30.5t-4 35.5q2 13 14 23t23 12q15 1 24 -10.5t17 -22.5q20 -25 40.5 -44.5t43.5 -39.5q11 -10 23.5 -19.5t23.5 -19.5q10 -9 21.5 -18t22.5 3q5 8 8.5 16.5t7.5 16.5q10 26 17 51.5t18 50.5q4 9 8.5 21t10.5 24t14 21t19 12q16 4 27.5 0
t17.5 -13.5t6.5 -22.5t-3.5 -26zM737 271q-8 -25 -13 -51t-8 -52q-2 -14 -2 -26.5v-26.5q0 -9 -0.5 -18t-0.5 -18q0 -8 2.5 -16t4.5 -16q2 -12 -4.5 -23.5t-17.5 -18t-23.5 -7.5t-22.5 7q-14 11 -18 29t-4 38q0 10 0.5 19.5t0.5 17.5q0 35 4 71.5t13 70.5q5 17 8.5 34
t6.5 35q1 7 2 12t-4 11q-3 5 -10 8.5t-12 7.5q-24 14 -42 31q-14 12 -29.5 22t-29.5 21q-13 11 -24 22.5t-22 22.5q-13 12 -23.5 23t-16.5 28q-5 13 -10.5 30t-0.5 31q6 16 20 22t28 4t23 -12q4 -5 6.5 -11.5t4.5 -11.5q9 -28 36 -49q9 -8 15 -12.5t14 -13.5q12 -13 25 -21
t27 -19q6 -5 12 -8.5t14 -5.5q5 -2 11.5 -5t10.5 -1q5 1 9 7t6.5 13.5t4.5 15t4 12.5q11 28 20.5 56.5t22.5 56.5q5 10 10.5 24.5t13 27.5t18 22t25.5 8q11 -1 24 -7.5t19 -17.5q7 -11 1.5 -23.5t-11.5 -22.5q-17 -26 -28.5 -52.5t-22.5 -55.5q-6 -17 -11 -34t-9 -34
q-3 -11 -6.5 -21t-6.5 -21t-4.5 -23t-5.5 -23q-6 -21 -11.5 -41.5t-12.5 -41.5z" />
    <glyph glyph-name="uniE031" unicode="yy" horiz-adv-x="863" 
d="M307 271q-8 -25 -13 -51t-8 -52q-2 -14 -2 -26.5v-26.5q0 -9 -0.5 -18t-0.5 -18q0 -8 2.5 -16t4.5 -16q2 -12 -4.5 -23.5t-17.5 -18t-23.5 -7.5t-22.5 7q-14 11 -18 29t-4 38q0 10 0.5 19.5t0.5 17.5q0 35 4 71.5t13 70.5q5 17 8.5 34t6.5 35q1 7 2 12t-4 11
q-3 5 -10 8.5t-12 7.5q-24 14 -42 31q-14 12 -29.5 22t-29.5 21q-13 11 -24 22.5t-22 22.5q-13 12 -23.5 23t-16.5 28q-5 13 -10.5 30t-0.5 31q6 16 20 22t28 4t23 -12q4 -5 6.5 -11.5t4.5 -11.5q9 -28 36 -49q9 -8 15 -12.5t14 -13.5q12 -13 25 -21t27 -19q6 -5 12 -8.5
t14 -5.5q5 -2 11.5 -5t10.5 -1q5 1 9 7t6.5 13.5t4.5 15t4 12.5q11 28 20.5 56.5t22.5 56.5q5 10 10.5 24.5t13 27.5t18 22t25.5 8q11 -1 24 -7.5t19 -17.5q7 -11 1.5 -23.5t-11.5 -22.5q-17 -26 -28.5 -52.5t-22.5 -55.5q-6 -17 -11 -34t-9 -34q-3 -11 -6.5 -21t-6.5 -21
t-4.5 -23t-5.5 -23q-6 -21 -11.5 -41.5t-12.5 -41.5zM846 625q-8 -23 -20 -44.5t-20 -44.5q-29 -81 -54.5 -161t-39.5 -166q-5 -30 -7.5 -60t-2.5 -61q0 -11 2 -23t2 -23q0 -15 -7 -25.5t-29 -9.5q-27 1 -39 19t-14 43q-2 24 2.5 57t10.5 68.5t11.5 71t5.5 63.5q0 31 -8 46
q-9 19 -23.5 35t-31.5 30t-35.5 27t-34.5 27q-13 11 -26.5 23.5t-24.5 26.5t-17 30.5t-4 35.5q2 13 14 23t23 12q15 1 24 -10.5t17 -22.5q20 -25 40.5 -44.5t43.5 -39.5q11 -10 23.5 -19.5t23.5 -19.5q10 -9 21.5 -18t22.5 3q5 8 8.5 16.5t7.5 16.5q10 26 17 51.5t18 50.5
q4 9 8.5 21t10.5 24t14 21t19 12q16 4 27.5 0t17.5 -13.5t6.5 -22.5t-3.5 -26z" />
    <glyph glyph-name="uniE032" unicode="ZZ" horiz-adv-x="756" 
d="M208 649q10 -2 20 -4.5t21 -2.5q18 -1 35.5 -3.5t36.5 -5.5q13 -3 28.5 -10.5t18.5 -21.5q2 -13 -6 -25.5t-15 -23.5q-20 -28 -34.5 -59.5t-31.5 -61.5q-11 -18 -25 -46.5t-28.5 -59t-28 -59l-22.5 -47.5q-12 -23 -25.5 -52t-12.5 -56q17 -8 33 -10.5t33 -2.5h16.5
t17.5 1q17 2 34.5 3.5t34.5 -0.5q11 -2 26 -2t23 -8q6 -7 8 -22.5t-1 -23.5q-5 -14 -20.5 -22t-27.5 -7q-50 6 -97 6q-13 0 -25.5 -0.5t-25.5 -1.5q-17 -2 -33.5 -6t-33.5 -7q-15 -2 -30.5 -4t-27.5 9q-15 14 -15 36q0 20 8.5 40.5t15.5 36.5q6 14 10 27t10 26q8 19 16.5 37
t17.5 36q9 20 22.5 49.5t28.5 61t29.5 60.5t25.5 48q9 15 13.5 25t11.5 25q5 10 9.5 21t-8.5 19q-14 8 -32.5 8.5t-34.5 2.5q-14 2 -27.5 6.5t-27.5 3.5q-13 -1 -24.5 -3.5t-23.5 -7.5q-29 -10 -35 19q-3 16 3 28t17 19.5t25 12t27 5.5q26 3 52 0.5t51 -6.5zM572 659
q8 -1 16 -1t17 -1q15 -2 30.5 -4.5t30.5 -4.5q13 -2 27 -3.5t25 -10.5q9 -8 13.5 -20.5t0.5 -24.5q-5 -13 -14 -26t-15 -26q-7 -14 -13 -29l-12 -30q-7 -16 -10.5 -32t-8.5 -32q-6 -18 -13.5 -35.5t-14.5 -34.5q-14 -39 -26.5 -78.5t-28.5 -77.5q-3 -8 -10.5 -23.5
t-12.5 -32t-6 -31t9 -20.5t27.5 -4t28.5 2q14 1 28.5 2t28.5 1t27 0.5t24 -7.5q24 -18 17 -44q-5 -21 -20.5 -27t-34.5 -6q-12 0 -24 1t-23 1h-65q-16 0 -32.5 -2.5t-32.5 -0.5q-14 2 -26.5 5t-18.5 15t-5 25.5t1 27.5q0 15 4.5 28.5t8.5 27.5q4 15 7 30t8 30q6 19 14.5 37
t15.5 36q8 22 16.5 43t15.5 43q11 35 25 68.5t26 68.5q5 14 9 27t8 27q5 17 1 23t-20 11q-15 6 -29 6t-31 1q-15 1 -29 3t-29 1q-13 -1 -28.5 -2.5t-26.5 6.5q-8 6 -14 22.5t-5 25.5q2 13 17 21.5t26 12.5q14 5 26 3t26 -4q11 -2 20.5 -1t20.5 0q8 -1 16 -3t17 -3z" />
    <glyph glyph-name="uniE033" unicode="zz" horiz-adv-x="756" 
d="M190 659q8 -1 16 -1t17 -1q15 -2 30.5 -4.5t30.5 -4.5q13 -2 27 -3.5t25 -10.5q9 -8 13.5 -20.5t0.5 -24.5q-5 -13 -14 -26t-15 -26q-7 -14 -13 -29l-12 -30q-7 -16 -10.5 -32t-8.5 -32q-6 -18 -13.5 -35.5t-14.5 -34.5q-14 -39 -26.5 -78.5t-28.5 -77.5
q-3 -8 -10.5 -23.5t-12.5 -32t-6 -31t9 -20.5t27.5 -4t28.5 2q14 1 28.5 2t28.5 1t27 0.5t24 -7.5q24 -18 17 -44q-5 -21 -20.5 -27t-34.5 -6q-12 0 -24 1t-23 1h-65q-16 0 -32.5 -2.5t-32.5 -0.5q-14 2 -26.5 5t-18.5 15t-5 25.5t1 27.5q0 15 4.5 28.5t8.5 27.5q4 15 7 30
t8 30q6 19 14.5 37t15.5 36q8 22 16.5 43t15.5 43q11 35 25 68.5t26 68.5q5 14 9 27t8 27q5 17 1 23t-20 11q-15 6 -29 6t-31 1q-15 1 -29 3t-29 1q-13 -1 -28.5 -2.5t-26.5 6.5q-8 6 -14 22.5t-5 25.5q2 13 17 21.5t26 12.5q14 5 26 3t26 -4q11 -2 20.5 -1t20.5 0
q8 -1 16 -3t17 -3zM582 649q10 -2 20 -4.5t21 -2.5q18 -1 35.5 -3.5t36.5 -5.5q13 -3 28.5 -10.5t18.5 -21.5q2 -13 -6 -25.5t-15 -23.5q-20 -28 -34.5 -59.5t-31.5 -61.5q-11 -18 -25 -46.5t-28.5 -59t-28 -59l-22.5 -47.5q-12 -23 -25.5 -52t-12.5 -56q17 -8 33 -10.5
t33 -2.5h16.5t17.5 1q17 2 34.5 3.5t34.5 -0.5q11 -2 26 -2t23 -8q6 -7 8 -22.5t-1 -23.5q-5 -14 -20.5 -22t-27.5 -7q-50 6 -97 6q-13 0 -25.5 -0.5t-25.5 -1.5q-17 -2 -33.5 -6t-33.5 -7q-15 -2 -30.5 -4t-27.5 9q-15 14 -15 36q0 20 8.5 40.5t15.5 36.5q6 14 10 27t10 26
q8 19 16.5 37t17.5 36q9 20 22.5 49.5t28.5 61t29.5 60.5t25.5 48q9 15 13.5 25t11.5 25q5 10 9.5 21t-8.5 19q-14 8 -32.5 8.5t-34.5 2.5q-14 2 -27.5 6.5t-27.5 3.5q-13 -1 -24.5 -3.5t-23.5 -7.5q-29 -10 -35 19q-3 16 3 28t17 19.5t25 12t27 5.5q26 3 52 0.5t51 -6.5z
" />
    <glyph glyph-name=".notdef" horiz-adv-x="418" 
d="M42 660h340v-660h-340v660zM145 40h134v575h-134v-575z" />
    <glyph glyph-name="glyph1" horiz-adv-x="0" 
 />
    <glyph glyph-name="glyph1" horiz-adv-x="0" 
 />
    <glyph glyph-name="glyph2" horiz-adv-x="189" 
 />
    <glyph glyph-name="space" unicode=" " horiz-adv-x="189" 
 />
    <glyph glyph-name="space" unicode="&#xa0;" horiz-adv-x="189" 
 />
    <glyph glyph-name="exclam" unicode="!" horiz-adv-x="219" 
d="M176 634q-3 -15 -7 -44.5t-8 -65.5t-8.5 -75.5t-8 -75.5t-6 -65.5t-2.5 -44.5q0 -11 1.5 -23.5t1.5 -24.5q0 -11 -2 -21t-9 -18t-18.5 -14t-22.5 -4q-20 4 -27 23t-7 44q0 29 5 58.5t7 43.5q1 10 2.5 34t3.5 55t3.5 65t3.5 65t3 54.5t1 33.5q0 11 2 24t7 24.5t14.5 18
t23.5 5.5q14 -2 23.5 -9t15.5 -17.5t8 -22.5t0 -23zM62 15q-9 -25 6.5 -34t37.5 -10q21 0 35 9t28 27q7 9 9.5 18t-1.5 20q-8 23 -33 23q-12 0 -24.5 -5t-24 -13t-20.5 -17t-13 -18z" />
    <glyph glyph-name="quotedbl" unicode="&#x22;" horiz-adv-x="325" 
d="M124 497q0 -14 -0.5 -24.5t-16.5 -19.5q-14 -9 -32.5 -5.5t-29.5 14.5q-8 8 -10.5 18t-2.5 21q0 20 5 40.5t6 35.5q1 16 -2.5 32.5t-3.5 32.5q0 13 4.5 24t15.5 20q16 12 28 12q13 0 21 -12.5t12.5 -32t6 -43.5t1.5 -46q0 -25 -1 -43.5t-1 -23.5zM276 584q-1 -14 3 -34
t4 -40q0 -14 -3.5 -25.5t-14.5 -19.5q-20 -12 -31 -12q-17 0 -24.5 18t-9.5 41.5t-2 45t-2 29.5q-4 14 -9 24.5t-6 26.5q0 9 1.5 20t6 21t11.5 16.5t17 6.5q14 0 31 -13q19 -14 25 -30.5t6 -35.5q0 -10 -1 -19.5t-2 -19.5z" />
    <glyph glyph-name="numbersign" unicode="#" horiz-adv-x="511" 
d="M473 397q22 -27 -4 -49q-15 -11 -29.5 -12.5t-34.5 -0.5h-8.5t-8.5 1l6 -54q2 -14 4 -27.5t-3 -26.5t-13.5 -23t-24.5 -4q-12 5 -23 15t-13 23q-1 7 -1.5 14t-0.5 15q0 10 0.5 19.5t0.5 19.5q0 8 -0.5 15t-1.5 14q-47 0 -102 -3q3 -31 6 -42q2 -10 7.5 -27t5.5 -34
q0 -11 -4.5 -19.5t-15.5 -10.5q-12 -2 -26.5 1t-22.5 14t-13 41.5t-8 65.5q-10 -2 -19.5 -3t-19.5 1q-14 2 -24.5 6t-15.5 14q-5 9 -6.5 19t4.5 18q11 16 34 20t43 5q-2 15 -3.5 30.5t-4.5 32.5q-12 -4 -22 -7t-24 -3q-12 0 -25.5 3t-23.5 9t-13.5 14t5.5 19t17 17.5
t16.5 10t19 6t25.5 5.5q4 1 7 1t7 1q-2 11 -3 22l-2 22q-2 14 -4 27.5t3 26.5t13.5 23t24.5 4q12 -5 23 -15t13 -23q1 -9 0.5 -20.5t-1.5 -23.5t-0.5 -23t3.5 -18q17 0 34 -1t34 -1h17t17 2q-2 11 -3 19.5t-2 14.5q-2 9 -7.5 26.5t-5.5 33.5q0 11 4.5 19.5t15.5 10.5
q12 2 26.5 -1t22.5 -14t13 -40t7 -62q7 1 14 1t14 1q12 0 24.5 -2t23 -6.5t17.5 -12t9 -16.5q1 -9 -3.5 -17t-13.5 -14t-20 -9.5t-22 -3.5h-38q0 -10 0.5 -17t0.5 -12q1 -7 2 -13.5t3 -13.5h18t18 1q17 0 33.5 -3.5t27.5 -15.5zM254 406q14 1 26.5 1.5t26.5 2.5
q0 15 -1.5 30t-3.5 32h-49.5t-49.5 -1q0 -16 1.5 -32.5t3.5 -34.5q12 1 23.5 1t22.5 1z" />
    <glyph glyph-name="dollar" unicode="$" horiz-adv-x="448" 
d="M403 357q13 -30 19.5 -57.5t1.5 -57.5q-2 -13 -5 -26.5t-10 -25.5q-7 -14 -19.5 -24.5t-24.5 -18.5q-19 -13 -41.5 -18t-45.5 -6q2 -11 3 -20.5t-1 -18.5q-1 -11 -6 -18t-12.5 -10.5t-16 -2.5t-15.5 6q-17 13 -17.5 31t0.5 37q-16 3 -34 8.5t-35.5 14t-33 19t-27.5 23.5
q-8 9 -14.5 22.5t-2.5 24.5q5 12 13 19.5t21 6.5q15 -1 24.5 -9.5t20.5 -18.5q13 -11 30 -19.5t34 -13.5q-2 19 -4.5 37t-4.5 36q-4 26 -6.5 52t-5.5 52q-8 2 -16 3l-16 2q-14 2 -27 4t-27 7q-12 4 -23 9.5t-22 14.5t-18.5 22t-12 27.5t-5.5 28.5t1 26q6 33 27.5 56t46.5 41
q29 19 59 28q-4 17 -7 33.5t-1 30.5q2 19 18 28.5t30 5.5q19 -5 22.5 -24t5.5 -37q1 -9 1.5 -18t2.5 -17q15 -5 30 -10.5t29 -13.5q11 -7 26.5 -17.5t19.5 -23.5q5 -14 0.5 -26t-14.5 -20t-23 -10t-25 6q-10 7 -17 16t-18 15q2 -20 4.5 -38.5t4.5 -37.5q2 -11 3 -20.5
t2 -19.5q5 -2 9.5 -2.5t9.5 -2.5q15 -3 25 -7t24 -12q26 -13 50 -27t36 -44zM152 468q7 -2 13.5 -2.5t13.5 -2.5q-3 30 -3 59q-2 25 -6 50q-11 0 -25 -7.5t-24.5 -19t-15 -26t3.5 -27.5t19.5 -17t23.5 -7zM348 253q4 15 2.5 24t-6.5 23q-3 7 -9 17.5t-15.5 20t-21.5 17
t-27 9.5l-15 3q2 -27 3.5 -54t4.5 -54q2 -15 3 -30t2 -29q13 0 24 3.5t23 8.5q14 6 21 16t11 25z" />
    <glyph glyph-name="percent" unicode="%" horiz-adv-x="625" 
d="M456 584q-12 -21 -23 -41.5t-22 -43.5q-30 -63 -55 -127.5t-51 -128.5q-9 -22 -18 -44.5t-15 -45.5t-14 -40.5t-34 -23.5q-23 -5 -38 7t-7 38q14 43 35.5 85t39.5 84q19 45 37 88t35 88q4 10 8.5 19.5t7.5 20.5q5 16 4.5 21.5t-16.5 8.5q-8 1 -19.5 1t-23.5 -1.5
t-22 -5.5t-16 -11q14 -16 21 -37.5t7 -44.5q0 -30 -13 -53q-19 -33 -53 -50t-68 -22q-20 -3 -40.5 5t-35.5 25q-16 16 -29.5 40.5t-15.5 47.5q-2 25 2.5 51t15 49.5t27 42.5t38.5 30q10 5 20 5.5t20.5 -1.5t21 -5.5t20.5 -4.5q23 -2 45 4t44 11q20 5 41.5 6.5t42.5 6.5
q8 2 19.5 5.5t23.5 6.5t23.5 4t20.5 -2q11 -4 16 -12t5 -18t-3.5 -20t-8.5 -18zM188 417q15 11 15.5 27.5t-6.5 31.5q-6 17 -17 31q-8 10 -19.5 16t-23.5 6q-18 0 -29 -14q-9 -13 -13.5 -33t2.5 -35q6 -13 15.5 -21t22.5 -16q14 -11 27 -7.5t26 14.5zM571 313
q13 -19 22.5 -41.5t3.5 -45.5q-5 -19 -18.5 -38t-32 -34t-40.5 -22.5t-43 -4.5q-26 4 -48.5 19t-38.5 36t-23 46.5t0 51.5q8 29 23 52t41 38q25 14 51 14q32 0 57 -20.5t46 -50.5zM515 215q7 7 9.5 15.5t2.5 17.5q0 18 -9.5 35t-25.5 27q-11 6 -23 5t-22.5 -6.5t-18.5 -14.5
t-12 -19q-8 -20 1.5 -38t29.5 -29q19 -11 33 -11q18 0 35 18z" />
    <glyph glyph-name="ampersand" unicode="&#x26;" horiz-adv-x="555" 
d="M543 300q-9 -18 -21 -22t-29 1q-14 3 -29 3q-19 0 -37 -3q-3 -1 -6.5 -1t-6.5 -1q0 -10 1 -14q3 -17 7 -49.5t4 -65.5q0 -23 -3 -43t-11 -30q-18 -23 -44.5 -37t-52.5 -25q-39 -19 -84 -19q-21 0 -46 5q-37 9 -65.5 25.5t-47.5 48.5q-6 9 -10 25.5t-7 36t-4.5 40.5
t-1.5 40q0 17 1 30.5t3 22.5q4 14 9.5 28.5t15.5 26.5q9 11 21 19t23 16q-11 14 -21.5 25.5l-21 23t-19 24t-14.5 29.5q-9 22 -9 47q0 17 4 34.5t11 33.5t21 27t31.5 18t35.5 9.5t33 1.5q19 -2 38 -3.5t35 -6.5t28 -17t17 -34q3 -17 -7.5 -29t-25.5 -17q-10 -3 -15 -1t-8 7
t-6 11t-9 11q-7 6 -17 8.5t-21 2.5q-12 0 -24.5 -3t-23 -8.5t-17.5 -12.5t-8 -16q-1 -8 2.5 -21.5t10.5 -28.5t17 -28.5t24 -22.5q13 -8 28 -12l30 -8q8 -2 14 -5t13 -6q6 -2 14 -3.5t13 -6.5q11 -11 7 -22t-12 -21q-6 -8 -12 -10.5t-12 -3t-13 0t-15 -1.5q-14 -4 -35 -12
t-32 -18q-13 -11 -17.5 -23.5t-8.5 -27.5q-2 -8 -0.5 -28t5.5 -42t9 -41.5t9 -26.5q10 -20 31.5 -26t44.5 -6q10 0 19.5 0.5t17.5 1.5q10 1 25.5 5t30 13t24.5 23.5t10 36.5q0 4 -2 20t-4.5 34.5t-4.5 34.5t-3 21l-1 1q-2 14 -6.5 32.5t2.5 34.5q8 17 24 21t31 3
q17 -1 34.5 -2.5t34.5 -0.5q16 1 35 4.5t33 -1.5q17 -6 22 -22t-3 -32z" />
    <glyph glyph-name="quotesingle" unicode="'" horiz-adv-x="183" 
d="M137 584q-1 -14 3 -34t4 -40q0 -14 -3.5 -25.5t-14.5 -19.5q-20 -12 -31 -12q-17 0 -24.5 18t-9.5 41.5t-2 45t-2 29.5q-4 14 -9 24.5t-6 26.5q0 9 1.5 20t6 21t11.5 16.5t17 6.5q14 0 31 -13q19 -14 25 -30.5t6 -35.5q0 -10 -1 -19.5t-2 -19.5z" />
    <glyph glyph-name="parenleft" unicode="(" horiz-adv-x="247" 
d="M134 734q14 6 26.5 10.5t27.5 -3.5q13 -8 18 -24t-3 -30q-6 -10 -22 -18.5t-26 -16.5q-14 -11 -20 -24t-10 -30q-8 -33 -12 -83t-4 -107q0 -39 1.5 -79t4 -77t6 -69.5t6.5 -56.5q5 -35 17.5 -68.5t29.5 -68.5q4 -9 12 -19t16.5 -20.5t14.5 -21.5t6 -21q0 -8 -3.5 -14.5
t-13.5 -12.5q-7 -4 -16.5 -7t-17.5 0q-8 0 -14.5 3.5t-11.5 8.5q-7 5 -10.5 12t-7.5 14q-8 14 -16.5 28t-16.5 29q-21 42 -30.5 85t-16.5 88q-2 12 -5.5 45.5t-7 71t-6 71t-3.5 45.5q-1 10 -1 19v19q0 19 0.5 37.5t0.5 37.5q-1 25 3.5 48t8.5 48q6 48 28 89.5t68 61.5z" />
    <glyph glyph-name="parenright" unicode=")" horiz-adv-x="247" 
d="M110 -111q-14 -6 -26.5 -10t-27.5 4q-13 8 -18 24t3 30q6 10 22 18t26 16q14 11 19.5 24t10.5 30q8 33 12 83t4 107q0 39 -1.5 79t-4 77t-6 70t-6.5 57q-5 35 -17.5 68t-29.5 68q-5 9 -13 19t-16.5 20.5t-14.5 21.5t-6 21q0 16 18 27q6 5 16 8t18 -1q8 0 14.5 -3.5
t11.5 -8.5q7 -5 10.5 -11.5t7.5 -13.5q8 -14 16.5 -28.5t16.5 -28.5q21 -42 30.5 -85.5t16.5 -88.5q4 -24 6.5 -48.5t4.5 -49.5q4 -16 6 -40t3 -52t1.5 -56t0.5 -52v-47q1 -25 -3.5 -48t-8.5 -48q-7 -47 -28.5 -89.5t-67.5 -62.5z" />
    <glyph glyph-name="asterisk" unicode="*" 
d="M264 613q1 -5 1.5 -12t2 -13.5t4.5 -12t10 -6.5q5 -2 6 -0.5t6 3.5q11 6 23 12t23 13q11 8 22.5 12.5t24.5 1.5q13 -4 19 -14.5t6 -23.5t-6 -23.5t-17 -15.5q-12 -5 -23 -11.5t-22 -13.5q-12 -8 -18.5 -12.5t-5.5 -19.5q0 -14 5.5 -26t13 -23.5t14.5 -23t11 -24.5
t-2.5 -25.5t-18.5 -20.5q-9 -5 -20 -8.5t-19 5.5t-13 21t-10 23l-12 24t-13 23q-8 14 -13 13.5t-19 -9.5q-11 -8 -20.5 -19.5t-18.5 -21.5q-10 -11 -21.5 -25.5t-25.5 -18.5t-29 7.5t-22 22.5q-8 15 -2.5 25t16.5 20q11 11 16 18t15 18q5 5 9 10t1 12q-2 5 -7 8.5t-10 6.5
q-11 7 -21.5 14t-21.5 15q-8 6 -17.5 14.5t-16.5 19t-10 22t3 24.5q12 28 38 16q15 -8 27 -17t25 -21q8 -7 22 -16t26 -9q6 0 9 4t3.5 10t0.5 12.5v11.5q0 15 -0.5 30t-1.5 30q0 14 -2.5 28t-1.5 28t10.5 23t24.5 8q14 -1 24.5 -9t12.5 -20t0.5 -24.5t-0.5 -26.5
q2 -11 3 -21.5t3 -21.5z" />
    <glyph glyph-name="plus" unicode="+" horiz-adv-x="342" 
d="M273 249h-58h1q3 -16 4.5 -31t2.5 -30q2 -12 -1 -24t-14 -20q-27 -19 -49 0q-12 9 -14 19.5t-2 24.5q0 31 -3 61h-11q-9 -1 -16.5 -1t-15.5 -4l-15 -7.5t-16 -3.5q-8 0 -16.5 3t-15 9t-9 14t3.5 19t11 17.5t10.5 10t12.5 6t17 5.5q11 3 24.5 4t27.5 0q-2 6 -2.5 11.5
t-2.5 10.5q-3 14 -9 28t-4 28q2 10 5 17.5t13 12.5q8 4 18 5.5t19 -2.5q17 -7 22 -24t7 -32q2 -14 3 -27.5t3 -27.5q14 2 29 5t30 4t30.5 -8.5t17.5 -28.5q1 -9 -2.5 -17t-9 -14t-12.5 -9.5t-14 -3.5z" />
    <glyph glyph-name="comma" unicode="," horiz-adv-x="213" 
d="M101 130q6 11 11 20.5t24 10.5q17 1 31 -10.5t19 -27.5q4 -14 -1.5 -27.5t-15 -27t-20 -25.5t-16.5 -22q-7 -12 -12 -26t-11 -27.5t-15.5 -23t-25.5 -12.5q-24 -4 -33.5 4.5t-9.5 24.5q0 19 10.5 46.5t24 53t25.5 45t15 24.5z" />
    <glyph glyph-name="hyphen" unicode="-" horiz-adv-x="280" 
d="M132 315q22 2 43 6q13 2 25.5 2.5t25.5 1.5q11 0 21 -3.5t16 -15.5q13 -27 -3 -49q-9 -11 -17.5 -12.5t-20.5 -0.5q-14 2 -28.5 2t-28.5 -1q-38 0 -74 -6q-12 -2 -24 -7.5t-24 -2.5q-8 2 -14.5 6t-9.5 14q-3 9 -4 19t3 19q7 16 21.5 20t27.5 5q16 1 32 1t33 2z" />
    <glyph glyph-name="period" unicode="." horiz-adv-x="191" 
d="M98 91q16 2 33 -8t20 -27q2 -9 0 -18t-7 -17q-7 -12 -19.5 -15t-25.5 -5q-19 -4 -31.5 -0.5t-19.5 23.5t-4 33t21 21q8 4 16 8.5t17 4.5z" />
    <glyph glyph-name="slash" unicode="/" horiz-adv-x="325" 
d="M137 334q9 32 20.5 63.5t23.5 61.5q11 30 18.5 61.5t15.5 62.5q6 23 12 52t17 51q11 20 30 24t30 -7q14 -14 9 -36.5t-12 -43.5q-19 -57 -37 -113t-35 -113q-20 -69 -44.5 -134.5t-45.5 -133.5q-10 -28 -19.5 -55.5t-18.5 -55.5q-7 -23 -13 -47t-16 -44q-12 -23 -32 -23
q-19 0 -26 18q-9 21 -0.5 41t17.5 41q18 42 31 85.5t27 87.5q11 40 24 78.5t24 78.5z" />
    <glyph glyph-name="zero" unicode="0" horiz-adv-x="466" 
d="M19 258q-3 16 -4 32t-1 32q0 14 0.5 28.5t1.5 28.5q2 27 6 49.5t16 47.5q9 20 27.5 31.5t35.5 22.5q41 27 85 34q25 4 53 0t54 -6q22 -2 47 -10.5t40 -27.5q17 -21 30.5 -47.5t18.5 -52.5q6 -33 9.5 -66.5t7.5 -67.5q2 -13 3 -25.5t1 -26.5q0 -17 -1.5 -33t-6.5 -31
q-7 -26 -14.5 -52.5t-24.5 -47.5q-14 -19 -35 -26t-42 -15q-23 -9 -42.5 -12.5t-44.5 0.5q-9 2 -19 3.5t-19 3.5q-12 3 -23 9t-23 9q-21 6 -33 14t-24 28q-12 19 -23.5 36.5t-21.5 37.5q-12 25 -20.5 49t-13.5 51zM128 448q-14 -10 -22 -23.5t-12 -29t-4.5 -32t-0.5 -32.5
q1 -20 3.5 -38t7.5 -38q4 -17 11.5 -32t15.5 -32q10 -20 20.5 -37t30.5 -30q11 -7 22 -9.5t22 -5.5q24 -8 50 -8q17 0 33 5.5t27 19.5q13 16 19 38t10 42q3 15 4 31t1 32q0 63 -17 125q-5 18 -10.5 33t-20.5 27q-13 11 -28 14t-31 8q-21 6 -40 6q-8 0 -17 -1t-18 -5
q-14 -5 -29 -12.5t-27 -15.5z" />
    <glyph glyph-name="one" unicode="1" horiz-adv-x="370" 
d="M335 15q-14 -2 -26.5 -2.5t-26.5 -2.5q-17 -3 -34 -5.5t-34 -4.5q-14 -2 -26.5 -6.5t-26.5 -6.5q-8 -1 -14.5 -2.5t-13.5 -2.5q-13 -2 -27 5.5t-17 18.5t-2.5 22.5t9.5 18.5t21.5 9t23.5 4q10 2 21.5 7t16.5 16q4 11 1.5 25t-2.5 25q-1 17 -4.5 45t-8 59t-8.5 59t-6 45
q-2 21 -2.5 41.5t-1.5 41.5q0 4 -1 10.5t-2.5 12.5t-4.5 9.5t-9 1.5q-7 -2 -17 -11.5t-16 -14.5q-8 -8 -14.5 -16t-15.5 -14q-19 -13 -36 -5q-9 4 -17 16.5t-6 23.5q2 10 12 17.5t17 14.5q10 8 19.5 17.5t18.5 19.5q10 11 19 23t17 23q6 9 12 19t14 17q13 11 35 11
q14 0 25.5 -5.5t14.5 -18.5q2 -6 1.5 -13t-0.5 -13q1 -8 1.5 -17t1.5 -17q1 -19 3.5 -37t6.5 -36q8 -39 7.5 -78.5t4.5 -79.5q1 -9 4.5 -28.5t6.5 -41.5t5.5 -41.5t2.5 -28.5q2 -27 10 -50q4 -10 20 -10q6 0 11 0.5t13 1.5q3 1 6.5 2t8.5 1q16 1 28 -9q6 -6 8.5 -11.5
t2.5 -17.5q1 -16 -7.5 -24t-22.5 -12z" />
    <glyph glyph-name="two" unicode="2" horiz-adv-x="420" 
d="M20 515q11 26 32.5 41.5t46.5 26.5q36 15 83 15q39 0 76.5 -12.5t61.5 -40.5q15 -17 24 -38t14 -42q6 -23 1.5 -42t-14.5 -39q-11 -21 -18.5 -43.5t-22.5 -40.5q-9 -12 -19.5 -29t-22 -37t-23.5 -41.5t-24 -42.5q-11 -17 -21 -36t-27 -43q42 9 86 14t86 15q9 2 18.5 5.5
t18.5 3.5q8 0 14.5 -3.5t12.5 -13.5q5 -9 4 -19.5t-5.5 -19.5t-11.5 -16.5t-14 -10.5q-18 -8 -38.5 -7.5t-40.5 -2.5q-25 -4 -49.5 -9.5t-48.5 -8.5q-20 -3 -39.5 -5.5t-39.5 -5.5q-8 -2 -16.5 -3.5t-16.5 -1.5q-11 0 -19.5 4.5t-13.5 16.5q-8 19 -2.5 38t17 37t25.5 34
t23 30q20 30 40 63t31 53q14 23 26 45t26 38q16 18 27 42t11 50q0 30 -18 54q-13 17 -35 25.5t-45 8.5q-20 0 -38.5 -6t-31.5 -18q-19 -18 -23 -39.5t-1 -45.5q2 -15 -11 -24t-29 -9q-9 0 -16.5 3t-12.5 11q-7 11 -9.5 23.5t-2.5 26.5q0 20 4.5 39t10.5 33z" />
    <glyph glyph-name="three" unicode="3" horiz-adv-x="391" 
d="M188 590q19 -8 37 -13.5t34 -18.5q14 -11 29 -25.5t23 -31.5q5 -10 9 -24.5t6.5 -30.5t3 -31t-2.5 -27q-8 -26 -18 -38l-20 -24q13 -6 18.5 -12t17.5 -18q16 -17 23.5 -33.5t14.5 -33.5q6 -14 9 -34.5t3 -43.5q0 -34 -8 -65.5t-28 -48.5q-29 -23 -67 -38.5t-76 -15.5
q-14 0 -29 3t-33 6.5t-33.5 11t-27 19.5t-14.5 30q-2 14 5 30.5t22 21.5q6 2 12.5 0t12.5 -6t12 -8.5t11 -7.5q15 -8 26.5 -14t29.5 -8q17 -2 31 -1t31 9q15 8 27.5 26t17.5 36q2 8 4 17t2 20q0 17 -8 37t-31 45q-6 6 -17.5 9t-25 3.5t-26 0.5h-21.5t-16.5 -1t-14 -2
t-13.5 0.5t-14 7.5q-14 13 -18.5 21.5t-0.5 27.5q4 20 16.5 23t30.5 4q34 2 55 11t32 23t13.5 32.5t-0.5 39.5q-3 16 -16 29t-31 21t-37 11.5t-33 0.5q-34 -7 -58 -33q-13 -14 -26.5 -16t-23.5 15q-8 12 -9 19.5t6 21.5q17 35 53.5 57t75.5 22q24 0 43 -8z" />
    <glyph glyph-name="four" unicode="4" horiz-adv-x="423" 
d="M389 135q1 -8 1.5 -13.5t1.5 -10.5t2.5 -10.5t3.5 -13.5q5 -14 8 -32t-4 -32q-5 -10 -14.5 -18.5t-20.5 -11.5q-20 -4 -29.5 3.5t-13.5 21t-4 29t-1 27.5q-1 16 -1 23.5t-4 23.5q-2 7 -2.5 14t-1.5 15q-2 6 -4 16t-6 15q-4 4 -14.5 3.5t-15.5 0.5q-8 1 -16.5 1.5
t-16.5 0.5q-17 2 -32 2.5t-32 1.5q-16 1 -32.5 0.5t-32.5 -1.5t-24 -3t-23 6q-14 7 -15.5 22.5t-2.5 29.5q-2 16 -5 32.5t-4 32.5q-1 19 -4.5 49t-8 62.5t-8.5 63t-5 48.5q-2 18 7.5 31t26.5 19q11 5 21.5 1t15.5 -15q6 -12 6.5 -31t0.5 -33q0 -9 2 -30.5t4 -45.5t4.5 -45.5
t4.5 -30.5l5.5 -22t4.5 -22t0.5 -15.5t4.5 -13.5q4 -4 11 -6t15 -3t16 -1h14q19 -2 37 -5t37 0q9 1 18 1.5t16 3t10.5 8.5t1.5 18q-3 16 -8 46.5t-10.5 64t-11.5 63.5t-10 47q-4 16 -4 32t15 27q10 7 28.5 11.5t30.5 -2.5q11 -8 13 -26.5t5 -29.5q2 -8 4 -28t4 -42.5t4 -43
t3 -28.5q3 -19 8 -38t8 -39q4 -23 5.5 -46t4.5 -46q3 -20 4.5 -41.5t3.5 -41.5z" />
    <glyph glyph-name="five" unicode="5" horiz-adv-x="436" 
d="M91 585q25 0 49 -0.5t49 -1.5q10 0 26 -0.5t33 -1t33.5 -2.5t27.5 -6q11 -5 23.5 -12t15.5 -21q4 -17 -2.5 -28.5t-18 -17.5t-25.5 -7t-23 4q-9 6 -27 9.5t-28 5.5q-13 3 -27 3h-28q-12 -1 -29 0.5t-26 -7.5q-5 -5 -6.5 -28.5t-1.5 -49.5q0 -22 0.5 -40t0.5 -23
q1 -26 14 -50q32 10 62 13t56 3q16 0 30 -2t29 -5q14 -3 29 -8t26 -15q5 -5 11 -9.5t12 -9.5q7 -5 11 -12t9 -14q7 -11 13 -26.5t8 -28.5q8 -57 -19 -101t-84 -64q-31 -11 -63 -19l-46 -10t-46 -7q-12 0 -29.5 -0.5t-34.5 2.5t-31 10.5t-18 22.5q-3 12 -1 21t13 18
q12 11 25 8t27 -3q19 -2 37 1.5t37 5.5q19 1 36.5 3t36.5 7q14 4 29 13t26.5 22t17 28.5t0.5 33.5q-3 12 -5.5 17t-9.5 15q-9 14 -21 17t-27 6q-15 4 -28.5 3t-28.5 -3q-18 -2 -38 -4.5t-37 -10.5q-11 -5 -23.5 -13.5t-24.5 -12.5t-23.5 3.5t-19.5 17.5q-10 12 -7 24t5 26
q1 12 0 27t-4 27q-4 13 -7.5 40t-5.5 57t-4 58l-3 42q-3 35 19 47.5t54 12.5z" />
    <glyph glyph-name="six" unicode="6" horiz-adv-x="393" 
d="M345 268q16 -17 24 -51.5t8 -68.5q0 -30 -6 -51q-11 -43 -36 -64t-65 -37q-21 -8 -39.5 -10.5t-40.5 -0.5q-18 2 -37.5 3.5t-36.5 8.5q-15 6 -28 18t-23 27t-17.5 32t-10.5 32q-5 22 -9 50.5t-6.5 59t-4.5 60t-2 52.5q0 12 0.5 29t2.5 35t4.5 34.5t5.5 28.5q5 20 12.5 44
t20.5 40q14 17 33 29t40.5 19t43.5 9.5t43 -0.5q45 -6 72 -29t27 -58q0 -18 -7 -36q-5 -13 -20.5 -19.5t-28.5 -4.5q-11 2 -14.5 8t-5 13.5t-2.5 16t-5 15.5q-10 14 -33 14q-12 0 -26 -4t-26.5 -10.5t-22 -14.5t-13.5 -16q-11 -22 -14.5 -58.5t-3.5 -68.5v-18.5t1 -15.5
q11 6 33.5 9l37.5 5t32.5 1t33.5 -3q29 -4 59.5 -18.5t49.5 -35.5zM296 114q1 9 -0.5 23.5t-5 30t-8.5 28.5t-11 19q-12 11 -28 17l-16 8t-22 4q-12 1 -24 1t-24 -3q-8 -2 -14.5 -3.5t-14.5 -3.5q-5 -1 -9.5 -2.5t-9.5 -3.5q0 -3 0.5 -13t0.5 -21v-21t1 -13q3 -12 6 -26
t8.5 -27t14.5 -24t23 -17q9 -5 18.5 -6t19.5 -3q21 -3 43 2q21 6 35 19q14 14 17 35z" />
    <glyph glyph-name="seven" unicode="7" horiz-adv-x="411" 
d="M382 331q-17 -9 -37 -11.5t-40 -4.5q-10 -1 -20 -2.5t-18 -4.5q-9 -3 -14 -13q-2 -8 -3.5 -16.5t-3.5 -16.5q-2 -13 -7.5 -42t-11.5 -60.5t-11 -60.5t-6 -42q-1 -11 -2 -23.5t-4 -24t-9 -20t-18 -10.5q-23 -5 -31.5 18t-8.5 58q0 27 3.5 57t8.5 57t9.5 47t6.5 27l12 45
q-2 11 -9 15q-8 5 -20 0t-20 -7q-10 -3 -19.5 -5t-20.5 0q-13 2 -19 12t-9 22q-5 22 8 34q8 7 18.5 6.5t20.5 1.5q12 2 23.5 4t22.5 4q9 2 18 3.5t17 6.5t11.5 11.5t6.5 14.5q4 8 5.5 16.5t4.5 16.5q5 17 9 34t9 33q-25 -5 -50 -8t-52 -5q-12 -1 -24.5 -2.5t-24.5 -4.5
t-23 -8t-19 -14q-9 -9 -14 -17.5t-21 -5.5q-20 5 -28 14t-8 21q0 10 4.5 21t11.5 21t15 18t15 13q16 11 29 11.5t33 1.5q20 0 39 4.5t38 9.5q25 5 50 11t50 10q12 2 24.5 0t23 -8.5t16.5 -17.5t5 -27q-2 -22 -11.5 -45t-15.5 -44q-2 -7 -5.5 -15.5t-5.5 -17t-1 -15.5t7 -12
q8 -7 22 -5t22 4q10 2 20 4.5t21 -4.5q22 -15 22 -38q0 -21 -17 -30z" />
    <glyph glyph-name="eight" unicode="8" horiz-adv-x="444" 
d="M432 127q1 -15 -3 -29t-9 -29q-6 -16 -14.5 -32.5t-19.5 -30.5q-15 -17 -40.5 -27t-45.5 -15q-12 -4 -24.5 -5.5t-24.5 -1.5q-30 0 -60.5 7.5t-59.5 17.5q-35 12 -57.5 47t-27.5 75q-2 11 -2.5 31t-0.5 40q0 17 1 32t3 23q5 20 15 33t21 28q-5 6 -12 8.5t-13 7.5
q-11 9 -19 26.5t-13 39.5t-7.5 45t-2.5 43q0 9 0.5 16.5t1.5 13.5q6 42 33.5 74.5t62.5 48.5q20 9 42 9h43q32 0 58 -6t52 -26q16 -12 34.5 -32t25.5 -41q6 -21 6 -56q0 -37 -6.5 -75.5t-19.5 -58.5q23 -12 41.5 -33.5t27.5 -45.5q2 -6 4.5 -23t4.5 -36.5t3.5 -37.5t1.5 -25
zM101 465q0 -8 1 -22.5t4 -30.5t7.5 -29t10.5 -18q11 -8 20 -11.5t21 -6.5q11 -3 23.5 -5t24.5 -1q20 1 42.5 12.5t33.5 31.5q4 7 6 19.5t2 26.5q0 25 -5.5 50t-15.5 33q-17 14 -36 22q-12 5 -23.5 10t-24.5 4q-48 -3 -68.5 -23t-22.5 -62zM321 53q7 5 12.5 17t9.5 27.5
t5.5 32.5t1.5 32q0 22 -3 34q-5 22 -20 37.5t-38 20.5q-14 2 -27.5 4t-27.5 2q-26 0 -51.5 -6.5t-48.5 -23.5q-11 -8 -12 -15.5l-3 -22.5q-1 -6 0.5 -20t4.5 -29.5t6 -29.5t6 -19q13 -23 36 -35.5t49 -14.5q10 -1 22 -2t24 -1q15 0 29 2.5t25 9.5z" />
    <glyph glyph-name="nine" unicode="9" horiz-adv-x="399" 
d="M374 356q1 -14 1.5 -38t0.5 -50v-50.5v-38.5q0 -35 -8.5 -63.5t-28.5 -56.5q-17 -24 -43.5 -41.5t-55.5 -26.5q-16 -5 -34 -9.5t-34 -3.5q-14 0 -30.5 3t-23.5 16q-8 14 -6.5 28.5t15.5 23.5q13 9 29 7.5t31 1.5q32 6 60 21.5t44 47.5q8 16 9 31t0 33q-1 8 0.5 29t1.5 44
q0 19 -1.5 35t-6.5 22q-5 -4 -10.5 -8t-11.5 -9q-12 -8 -34 -14.5t-46 -10.5t-47 -5.5t-38 0.5q-34 4 -57 31.5t-31 58.5q-3 13 -5 27t-2 28q0 26 6 51t18 46q8 15 19.5 30t24.5 26q15 11 32 16.5t34 10.5q8 2 17 3t20 1q16 0 33.5 -2t34 -6.5t31 -10.5t24.5 -13
q3 -2 5.5 -4t4.5 -4q10 -8 18.5 -17.5t14.5 -20.5q17 -34 21 -69t3 -71q1 -8 1 -14.5v-14.5zM286 444q2 5 0.5 11.5t-5.5 13t-8 12.5t-6 10q-8 13 -18 19q-7 4 -19 7.5t-25.5 5t-26 1.5t-20.5 -2q-32 -9 -49 -33.5t-21 -57.5q-3 -33 14.5 -54t49.5 -19q58 3 84.5 17t35.5 43
q2 5 7 13t7 13z" />
    <glyph glyph-name="colon" unicode=":" horiz-adv-x="197" 
d="M154 240q8 -20 -7 -39q-13 -18 -26.5 -27t-34.5 -10q-11 0 -21 2t-17 6.5t-9.5 13t2.5 20.5q3 9 12 19t20.5 18t24.5 13.5t25 5.5q23 0 31 -22zM95 429q17 2 37.5 -4t28.5 -22q6 -12 1 -24t-16.5 -21.5t-26.5 -15t-29 -5.5q-17 0 -27 9q-15 15 -15 31q0 18 16 32
q7 5 15 11.5t16 8.5z" />
    <glyph glyph-name="semicolon" unicode=";" horiz-adv-x="210" 
d="M80 295q17 2 37.5 -4t28.5 -22q6 -12 1 -24t-16.5 -21.5t-26.5 -15t-29 -5.5q-17 0 -27 9q-15 15 -15 31q0 18 16 32q7 5 15 11.5t16 8.5zM92 130q6 11 11 20.5t24 10.5q17 1 31 -10.5t19 -27.5q4 -14 -1.5 -27.5t-15 -27t-20 -25.5t-16.5 -22q-7 -12 -12 -26t-11 -27.5
t-15.5 -23t-25.5 -12.5q-24 -4 -33.5 4.5t-9.5 24.5q0 19 10.5 46.5t24 53t25.5 45t15 24.5z" />
    <glyph glyph-name="less" unicode="&#x3c;" horiz-adv-x="486" 
d="M287 496q11 9 21 20.5t21 22t23 19t27 12.5q5 1 11.5 0.5t11.5 -1.5q12 -2 25.5 -7.5t18.5 -18.5q5 -12 -1.5 -22.5t-15.5 -18.5q-9 -9 -20 -11.5t-22 -8.5q-9 -4 -17 -10.5t-15 -14.5q-8 -8 -17 -13.5t-18 -12.5q-15 -11 -28 -24t-28 -24q-14 -10 -30.5 -19t-30.5 -20
q-7 -5 -13 -11.5t-13 -12.5q-5 -4 -13.5 -9.5t-8.5 -11.5q8 -3 14.5 -8.5t14.5 -9.5q10 -5 19 -10t19 -9q32 -14 63 -31.5t63 -34.5q14 -8 28 -17t29 -14q16 -5 28 -13t12 -28q0 -11 -7.5 -25.5t-18.5 -17.5q-14 -4 -25.5 1t-22.5 13q-14 9 -26.5 18.5t-26.5 17.5
q-20 11 -39 22.5t-39 22.5q-38 18 -76 35.5t-76 31.5q-12 4 -27 7.5t-22 15.5q-7 13 -5.5 28t9.5 26q10 13 24.5 18t28.5 12q24 12 46 30.5t44 35.5q13 9 27 17.5t26 18.5q13 11 24.5 22t23.5 22z" />
    <glyph glyph-name="equal" unicode="=" horiz-adv-x="363" 
d="M60 301q-7 0 -15.5 3t-15 9t-8.5 14t3 19q6 11 11 17.5t10.5 10t12 6t16.5 5.5q8 3 17.5 4t20.5 1q20 0 40 -2t35 0q17 2 33.5 5.5t33.5 4.5q14 0 29 -9t17 -28q2 -18 -10.5 -31t-26.5 -13q-26 -1 -50.5 0t-50.5 1h-19.5t-20.5 -1q-9 -1 -16.5 -1t-15.5 -4t-14.5 -7.5
t-15.5 -3.5zM343 238q-7 12 -18.5 15.5t-23.5 3.5q-15 0 -30 -1t-30 -3q-12 -2 -25 -3.5t-25 -2.5q-20 -2 -38.5 -2t-37.5 -1q-14 -1 -31.5 -5t-25.5 -20q-4 -9 -3 -19t4 -19q4 -10 11.5 -14t16.5 -6q14 -3 28 2.5t28 7.5q21 4 43 5t43 2h33.5t33.5 -1q14 -1 24 0t20 13
q20 22 3 48z" />
    <glyph glyph-name="greater" unicode="&#x3e;" horiz-adv-x="500" 
d="M214 154q-22 -19 -42 -42t-49 -31q-5 -2 -11.5 -1.5t-11.5 1.5q-12 2 -25.5 7.5t-18.5 18.5t1.5 23t14.5 18q10 9 21 12t22 8q9 5 17 11.5t15 13.5q8 8 16.5 14t18.5 13q15 11 28 23.5t28 23.5q14 11 30 19.5t30 19.5q8 6 14 12.5t13 11.5q5 5 13 10.5t9 11.5
q-8 3 -14.5 8.5t-14.5 9.5l-19 9.5l-19 9.5q-32 14 -63 31.5t-63 34.5q-14 8 -28 17t-29 14q-16 5 -28 13t-12 27q0 11 7.5 25.5t18.5 17.5q13 4 25 -0.5t23 -12.5q14 -10 26.5 -19.5t26.5 -17.5q20 -11 39 -22.5t39 -21.5q38 -19 76 -36t76 -31q12 -5 27 -8t22 -16
q7 -12 5.5 -27.5t-9.5 -26.5q-10 -13 -24.5 -17.5t-28.5 -11.5q-24 -12 -46 -31t-45 -35q-13 -10 -26.5 -18t-25.5 -19q-13 -11 -24.5 -22t-24.5 -22z" />
    <glyph glyph-name="question" unicode="?" horiz-adv-x="451" 
d="M285 22q3 -12 -2 -19.5t-14 -12.5t-20.5 -8t-21.5 -6q-14 -4 -28.5 -9t-28.5 -5q-18 0 -29 11q-19 17 -19 32q0 14 21 28q10 6 19.5 9.5t22.5 5.5q8 1 18 1.5t21 0.5q20 0 38 -5.5t23 -22.5zM409 564q4 -19 -2 -37.5t-18 -36t-26.5 -32.5t-26.5 -26l-52 -46t-46 -50
q-10 -14 -16.5 -28t-6.5 -29q0 -16 9 -31q12 -21 37 -24q14 -2 24 -2.5t13 -16.5q2 -14 -4 -25.5t-16 -20.5q-11 -10 -21 -11.5t-23 0.5q-14 2 -26 3.5t-23 11.5q-11 9 -19.5 18.5t-14.5 22.5q-12 22 -15 49t-2 52q1 33 16.5 59t38 48t48 42t47.5 41q14 13 25.5 29t11.5 33
q0 18 -16 33q-17 16 -36.5 23t-40.5 7t-40 -6q-17 -5 -32 -12.5t-27 -19.5q-5 -5 -7 -10.5t-4 -11.5t-4.5 -11.5t-8.5 -10.5q-9 -8 -24.5 -11.5t-24.5 7.5q-4 5 -6 11t-6 11q-5 7 -5.5 12t-1.5 13q-1 20 6 31.5t21 25.5q16 14 34 23.5t38 17.5q9 3 16.5 8t16.5 9t19 6.5
t20 4.5q17 3 32.5 4.5t32.5 -1.5q25 -5 49 -16t41 -30q9 -10 19 -20t13 -23q5 -14 8 -28.5t6 -28.5z" />
    <glyph glyph-name="at" unicode="@" horiz-adv-x="762" 
d="M682 449q23 -38 33 -81t10 -85q0 -17 -1.5 -33t-3.5 -30q-4 -23 -13.5 -48t-24.5 -46.5t-35.5 -36.5t-45.5 -17q-9 -1 -23 -0.5t-28 2.5t-27 6t-22 11q-16 14 -24.5 36t-13.5 42q-23 -26 -54.5 -43t-72.5 -13q-33 3 -58.5 22.5t-41.5 47t-22 57.5t1 54q8 25 22 50
t33.5 45t44 34.5t52.5 19.5q22 4 46.5 0t44.5 -20q11 -1 21 1t20 2q11 0 19.5 -5t15.5 -21q4 -11 4 -23.5t-2.5 -25t-6 -25t-4.5 -22.5q-2 -18 -4.5 -36t-2.5 -36t3 -36q3 -12 9.5 -25t16.5 -22t22 -12.5t25 4.5q32 19 45 56.5t13 79.5q0 34 -8 69q-9 35 -28 64.5t-45 53
t-58 39.5t-66 24t-68 8q-52 0 -102 -16t-79 -45q-17 -18 -32.5 -34t-26.5 -33.5t-17.5 -39.5t-6.5 -52q0 -26 6 -62q9 -58 35 -115q5 -11 15 -24.5t19 -27t14 -26.5t-1 -23q-7 -12 -18.5 -13t-24.5 4.5t-25 15.5t-19 21q-19 27 -32 55.5t-22 57.5q-11 38 -18 73t-7 69
q0 26 4.5 50t15.5 47q28 60 74.5 100t107.5 66q29 12 60 17.5t64 5.5q29 0 58.5 -4t59.5 -12t59.5 -16t54.5 -31q23 -21 46.5 -44.5t40.5 -49.5zM408 227q7 8 14 19.5t11.5 24t5.5 26.5t-4 27q-8 18 -19 25t-24 7q-16 0 -32 -8q-20 -10 -36.5 -24t-27.5 -33q-7 -14 -7 -30
q0 -18 8 -36.5t25 -28.5q12 -7 24.5 -5.5t24.5 7.5t21.5 14t15.5 15z" />
    <glyph glyph-name="A" unicode="A" horiz-adv-x="387" 
d="M386 72q2 -18 -4 -30.5t-24 -20.5q-16 -6 -30.5 -1t-19.5 22t-5.5 34.5t-4.5 34.5q-4 15 -4.5 33.5t-7.5 32.5q-3 5 -10 7t-15 2t-16 -1t-13 -1q-16 -1 -32 -1t-31 -1q-17 -1 -33.5 -6.5t-21.5 -25.5q-4 -22 -8 -43.5t-9 -43.5q-3 -17 -8 -32.5t-20 -26.5
q-14 -11 -29 -5.5t-24 18.5q-11 17 -4 33t11 34q10 48 15.5 96t14.5 97q6 34 12 69.5t11 70.5q3 26 3 50.5t5 50.5q3 20 5 38.5t5 38.5q3 17 5 32.5t14 28.5q13 14 30 17.5t32 0.5q19 -3 27 -16t16 -29q10 -18 20.5 -35t18.5 -37q20 -52 38.5 -104.5t34.5 -106.5
q9 -28 16 -57t13 -59q2 -14 4 -26.5t6 -25.5q2 -9 5 -19t5 -19q4 -17 4.5 -34t2.5 -34zM215 257h14.5t16.5 2t13.5 6.5t5.5 14.5q-8 29 -14 58t-15 57q-13 38 -32 74q-7 14 -14.5 33t-21.5 27q-4 -5 -7 -13t-5 -18t-3 -19.5t-1 -15.5q-1 -18 -1 -35.5t-2 -36.5
q-1 -5 -3.5 -24t-4.5 -40.5t-3.5 -39.5t0.5 -20q4 -8 9.5 -8h13.5q13 -1 26.5 -1.5t27.5 -0.5z" />
    <glyph glyph-name="B" unicode="B" horiz-adv-x="475" 
d="M438 220q15 -22 20.5 -47.5t1.5 -51.5q-5 -26 -13.5 -49.5t-31.5 -40.5q-22 -15 -50.5 -29t-54.5 -19q-29 -7 -66 -7q-28 0 -55.5 5.5t-52.5 17.5q-33 16 -48.5 40.5t-21.5 52.5t-7 59t-6 61q-2 16 -5 31.5t-3 32.5q0 30 -0.5 61.5t-3.5 61.5q-3 26 -5.5 50.5t-5.5 50.5
q-2 23 -4 48.5t-11 46.5q-4 11 -8 23.5t-4 25.5q0 11 3.5 20t13.5 17q7 6 19 9t25.5 4.5t27 2t22.5 -0.5q26 -2 50 -10.5t47 -16.5q26 -9 50 -24t45 -33q40 -35 74.5 -77.5t45.5 -95.5q4 -15 4 -33q0 -31 -15 -61q-10 -21 -27 -37.5t-29 -36.5q19 -8 43 -21t36 -30zM140 299
q2 -9 11 -12t20 -3t22.5 1.5t19.5 2.5q29 3 52 14t41 35q12 17 21.5 35.5t9.5 38.5q0 8 -2 16.5t-7 16.5q-16 27 -34.5 55t-42.5 48q-12 11 -27 17t-29 14q-12 8 -25.5 16.5t-27.5 11.5q-5 1 -14.5 2t-13.5 -2q-6 -4 -6 -12.5v-13.5q1 -15 1.5 -30.5t2.5 -29.5
q2 -16 3.5 -31.5t3.5 -30.5q5 -26 6.5 -52t4.5 -52q2 -14 4 -27.5t6 -27.5zM349 97q8 9 16 24t4 29q-3 14 -15.5 24t-23.5 16t-25.5 8.5t-29.5 2.5q-17 0 -32.5 -2t-29.5 -4q-12 -2 -30.5 -2.5t-27.5 -10.5q-5 -6 -6 -14.5t-0.5 -18.5t2 -19.5t1.5 -16.5q-1 -14 5.5 -27.5
t20.5 -19.5q13 -6 28.5 -10t29.5 -3q28 2 60.5 11.5t52.5 32.5z" />
    <glyph glyph-name="C" unicode="C" horiz-adv-x="476" 
d="M104 669q8 7 19 13q20 14 44 20.5t49 6.5q47 0 86 -21q20 -11 37 -27t28 -37q8 -15 13.5 -37t5.5 -43q0 -17 -4 -28q-7 -16 -20.5 -25.5t-31.5 -7.5q-14 2 -23 13q-6 7 -4.5 15t-0.5 16q-2 18 -5 34.5t-16 29.5q-10 11 -22 21.5t-27 10.5q-9 0 -20 -2t-22 -5t-20.5 -8.5
t-14.5 -12.5q-12 -17 -24 -42.5t-16 -45.5q-3 -15 -4 -32.5t-1 -37.5q0 -47 4 -96t6 -86q1 -19 2.5 -41.5t6 -45.5t12 -44t19.5 -36q17 -23 41.5 -30t50.5 -7q10 0 19.5 0.5t19.5 1.5q16 2 36.5 6.5t33.5 14.5q6 5 9 13t4 17.5t1 19t1 17.5l3 33q0 8 -1 16.5t4 16.5
q8 13 25.5 15.5t29.5 -5.5q13 -9 15 -27.5t4 -32.5q1 -10 1.5 -19t0.5 -18q0 -17 -3 -33q-4 -17 -7.5 -33t-15.5 -30q-11 -13 -28 -23t-33 -18q-21 -11 -43.5 -14.5t-45.5 -3.5q-14 0 -26.5 -0.5t-25.5 -0.5q-14 0 -28 1t-29 5q-14 4 -25.5 12t-22.5 17q-12 8 -22.5 15.5
t-17.5 20.5q-13 25 -20 52.5t-12 54.5q-3 17 -9.5 34t-8.5 34q-2 18 -4.5 35t-3.5 35q0 8 -0.5 16.5t-0.5 18.5q0 38 1.5 81t0.5 73q-1 27 3 54.5t14 54t24.5 50t34.5 41.5z" />
    <glyph glyph-name="D" unicode="D" horiz-adv-x="447" 
d="M423 221q0 -20 -0.5 -40.5t-1.5 -40.5q-3 -50 -34.5 -82.5t-79.5 -46.5q-26 -8 -56 -12t-61 -4q-22 0 -42.5 2.5t-38.5 7.5q-15 5 -20.5 11.5t-8.5 22.5q-2 14 -6.5 26.5t-6.5 26.5t-1 27.5t-1 27.5t-2 28.5t-1 28.5q-4 33 -5.5 66.5t-4.5 66.5q-5 55 -4 110t-1 111
q-1 10 -1 23.5t-3 22.5q-4 12 -12 14t-14 10q-8 11 -4.5 20.5t12 16t20 10t20.5 3.5q22 -1 46 -5t47.5 -11.5t45 -19t38.5 -27.5q24 -23 47 -43t40 -49q8 -15 17.5 -29.5t17.5 -29.5q8 -16 11.5 -33t10.5 -34q14 -35 24.5 -71.5t12.5 -74.5v-30zM342 182q5 42 -4.5 84
t-18.5 83q-9 44 -32.5 77t-49.5 69l-15 18t-23 23.5t-26.5 20t-24.5 8.5q-8 0 -13.5 -5t-7.5 -19q-3 -21 -0.5 -45t2.5 -46q0 -17 -0.5 -34t-0.5 -34v-16.5t1 -16.5q2 -20 7.5 -39t4.5 -37q-1 -10 -1.5 -19t-0.5 -19t0.5 -19.5t1.5 -18.5q2 -11 4 -21t4 -21q1 -11 1.5 -21.5
t5.5 -19.5q11 -19 33 -22t42 -1q46 5 76 24.5t35 66.5z" />
    <glyph glyph-name="E" unicode="E" horiz-adv-x="378" 
d="M343 12q-10 -8 -21.5 -10.5t-23.5 -2.5q-15 0 -30.5 2.5t-29.5 4.5q-17 2 -46 -3t-56 -5q-20 0 -34 5.5t-19 20.5q-2 9 0 21t2 20q0 11 -1 20.5t-3 20.5q-6 51 -14.5 102.5t-16.5 103t-14 103.5t-6 104q0 29 -4 58.5t0 55.5t17.5 34t31.5 8q16 0 31 -3q28 -5 57.5 -8
t56.5 -8q26 -5 53.5 -5.5t48.5 -14.5q14 -10 14 -30q0 -17 -10.5 -31.5t-29.5 -16.5q-12 -1 -24.5 2t-26 7l-27 8t-26.5 5q-20 2 -38.5 3t-38.5 1q-7 -17 -7 -39q0 -20 3.5 -39.5t5.5 -36.5q3 -29 2 -59.5t4 -59.5q2 -11 3.5 -21t3.5 -21q5 -14 14 -17t25 -3q17 0 32.5 1
t32.5 2q16 1 32 -0.5t32 0.5q15 2 27 -1t18 -21q6 -17 -3 -30.5t-24 -21.5q-19 -10 -42 -10q-19 0 -38 3.5t-36 3.5q-5 0 -12 0.5t-15 0t-14.5 -2.5t-9.5 -6q-5 -14 -1.5 -30.5t4.5 -30.5q2 -17 3.5 -29t6.5 -20.5t16 -12t31 -2.5q30 2 54 3t54 1q10 0 24 -8.5t21 -22.5
q8 -14 -0.5 -24.5t-18.5 -17.5z" />
    <glyph glyph-name="F" unicode="F" horiz-adv-x="390" 
d="M348 241q-11 -3 -25 1t-25 5q-14 0 -29.5 0.5t-29.5 3.5q-8 2 -19 3t-24 1q-18 0 -34 -4t-22 -18q-2 -5 -3 -10.5t-1 -11.5q3 -41 6.5 -81t12.5 -78q7 -29 -6.5 -42.5t-31.5 -13.5q-17 0 -32 11t-18 33q-4 24 -4 47.5t-2 46.5q-2 19 -2.5 38t-0.5 38v77q0 26 -1 52.5
t-6 52.5q-6 32 -9.5 63t-6.5 63q-2 25 -5 49t-5 48q-1 10 1 21t8 20.5t15 15t22 5.5q11 0 21 -6t21 -8q13 -2 25.5 -2t25.5 -2q22 -5 43.5 -10t44.5 -8q24 -4 52 -3t51 -9q11 -5 17.5 -18t6.5 -27q0 -17 -9 -27q-6 -8 -13 -11t-15 -3q-14 0 -29 5.5t-29 7.5q-23 4 -47.5 6.5
t-48.5 6.5q-10 2 -20 3.5t-20 1.5q-14 0 -24 -5.5t-13 -22.5q-2 -12 -1 -24t3 -24t4.5 -24t3.5 -24q2 -23 2.5 -45t2.5 -45q1 -8 2 -14.5t4 -8.5q8 -9 23 -9.5t26 -1.5q14 -1 28 -1.5t28 -0.5t28.5 -0.5t28.5 -0.5q13 0 27.5 -0.5t26.5 -3.5q13 -4 19.5 -15t6.5 -24
t-6.5 -24t-19.5 -15z" />
    <glyph glyph-name="G" unicode="G" horiz-adv-x="467" 
d="M392 618q11 -12 16 -31t5 -39q0 -23 -6 -44t-17 -34q-21 -24 -50 -7q-12 7 -16 14t-4 15q0 9 2.5 19t3.5 21q2 26 -12 37t-39 14q-11 1 -19 2.5t-15.5 2.5t-15.5 2t-19 1q-8 0 -17 1t-18 1q-13 0 -24.5 -3.5t-19.5 -14.5q-13 -17 -14 -38.5t-1 -42.5q-1 -24 -2.5 -48
t-0.5 -50q2 -51 3.5 -100.5t11.5 -99.5q2 -10 2.5 -21.5t3 -22.5t7 -21t13.5 -17q2 -2 13 -5t23.5 -6t25 -5.5t17.5 -2.5q18 0 36.5 1.5t37.5 2.5q11 0 21.5 -2.5t21.5 -0.5q14 3 19 12t5 20q0 10 -2.5 20t-5.5 19q-7 21 -18 28t-25 7t-30 -4t-32 -4q-11 0 -21 3.5t-19 12.5
q-5 5 -7.5 12.5t-2.5 15.5q0 14 7 25.5t20 12.5q23 2 45.5 2t45.5 2q10 1 19 2t19 1q13 0 24.5 -3t22.5 -13q18 -15 23.5 -34t11.5 -39q7 -23 12.5 -45t11.5 -45q2 -10 6 -21.5t6.5 -24t2.5 -24t-5 -21.5q-4 -7 -13 -13t-20 -9t-21 -3t-15 6t-6.5 10t-3 7t-4.5 5t-12 4
t-18 1t-20 -1q-38 1 -67.5 -5t-62.5 -6q-11 0 -21.5 1t-22.5 3q-24 5 -47 11t-40 27q-15 17 -21 40t-10 44q-11 59 -15 119.5t-9 120.5q-2 24 -3 48.5t-1 49.5t1 49t4 48q2 21 10 42t21 37.5t31.5 26.5t42.5 9q49 -3 90 -9t86 -22q21 -7 43.5 -13t36.5 -23z" />
    <glyph glyph-name="H" unicode="H" 
d="M408 13q-8 -13 -22.5 -15.5t-28.5 2.5q-15 4 -22.5 15.5t-11.5 26t-4.5 30.5t-0.5 28v36t-1 37q0 8 0.5 16.5t-0.5 17.5q-3 25 -26 26q-24 3 -52 3q-10 0 -19.5 -0.5t-18.5 -1.5q-10 -1 -21.5 -1.5t-20.5 -6.5q-8 -5 -7.5 -17t0.5 -20v-10.5t1 -10.5q3 -21 5 -42t3 -42
q1 -14 3 -30t-5 -30t-24 -16q-5 -1 -15 -0.5t-15 2.5q-16 6 -17 22t-2 30q-1 17 -2.5 33.5t-5.5 33.5q-5 24 -7.5 48.5t-6.5 49.5l-10 54t-7 54q-3 48 -6.5 93t-8.5 92q-1 8 -0.5 17t-1.5 29q-1 8 -1.5 17t0.5 17q0 8 -2 14.5t2 14.5q3 7 9.5 11.5t14.5 7.5q14 5 27.5 0
t21.5 -16q5 -7 7.5 -11.5t2.5 -14.5q1 -8 0.5 -15.5t-0.5 -15.5q0 -49 2.5 -98.5t6.5 -98.5q1 -5 1.5 -11t1.5 -11q2 -7 3 -13t4 -12q5 -9 9.5 -11t14.5 -4q11 -2 21.5 -1t21.5 1q11 -1 22 -1t22 2q11 1 22 2.5t20 4.5t15 10t6 21q0 20 -1.5 35.5t-2.5 30.5q-5 45 -7.5 90
t-6.5 90q-3 30 14 55q6 10 22.5 16.5t27.5 1.5q14 -7 18.5 -20.5t4.5 -30.5t-2 -34t-1 -29q2 -40 2.5 -80t6.5 -80q8 -46 13 -93.5t5 -95.5q0 -17 -1 -36.5t-1 -38.5q0 -17 1.5 -34t5.5 -33q3 -12 8 -28.5t-3 -27.5z" />
    <glyph glyph-name="I" unicode="I" horiz-adv-x="421" 
d="M301 19q-16 2 -33.5 3.5t-33.5 0.5q-17 0 -32.5 1.5t-32.5 1.5q-14 0 -26 -4.5t-26 -9.5t-24.5 -4t-23.5 8t-21 16.5t-6 26.5q2 14 10.5 26.5t23.5 13.5q14 1 28 -1.5t28 -2.5q10 0 25.5 1.5t22.5 10.5q6 8 4 24t-1 27q1 14 -3 27.5t-6 27.5q-6 34 -8 68t-2 68v68.5
t-4 68.5q-2 12 -1 27.5t-4 27.5q-5 13 -12.5 18.5t-21.5 7.5q-12 2 -22.5 5.5t-23.5 3.5q-7 1 -16 1t-17 1q-7 1 -14 -1.5t-13 -0.5q-11 2 -15.5 11.5t-4.5 20.5q0 15 6.5 30t16.5 20q11 5 26 6.5t26 -0.5q19 -3 38.5 -5t38.5 -4q33 -3 65.5 -7t65.5 -6q15 -1 29.5 -2.5
t26.5 -6t21.5 -14t14.5 -25.5q4 -11 0 -24t-16 -18q-12 -6 -25 -4t-27 3q-11 1 -28.5 2t-27.5 -4q-13 -7 -12.5 -20.5t2.5 -25.5q8 -77 11 -154t14 -154q2 -14 2 -29t2 -29q2 -15 7 -25.5t20 -11.5q15 0 29 -2t28 -2q15 -1 26.5 -1t22.5 -14q8 -10 9 -25t-4 -26
q-7 -15 -19.5 -18.5t-26.5 -3.5q-16 0 -28.5 4.5t-27.5 6.5z" />
    <glyph glyph-name="J" unicode="J" horiz-adv-x="376" 
d="M285 472q0 -31 4.5 -61t7.5 -61q5 -60 14.5 -122t8.5 -119q-2 -67 -43 -96t-107 -25q-12 0 -27 0.5t-30 2t-29.5 5t-25.5 9.5t-18.5 18.5t-12 27.5t-6.5 30.5t-3 27.5q-2 32 9 47t26 15q14 0 26 -13t12.5 -26.5t1.5 -25.5t6.5 -21.5t27.5 -14.5q11 -3 23 -5t23 -2
q14 0 26 3.5t23 12.5q13 11 17.5 25.5t4.5 30.5q0 19 -5 42q-6 29 -5 58.5t-4 60.5t-7.5 60t-4.5 59q-2 27 -3.5 56t-6.5 57q-2 15 -2.5 27.5t-4.5 22t-15 16t-34 9.5q-12 2 -27.5 -0.5t-30.5 -2.5q-13 0 -24 4t-18 15q-9 16 -6.5 28t11.5 20.5t22 13.5t25 5q26 1 56 -4.5
t56 -10.5q27 -6 52.5 -9t54.5 -8q10 -2 18.5 -9t12.5 -16.5t3 -20.5t-9 -20q-7 -8 -16 -7t-18 3.5t-17 3.5t-13 -6q-2 -2 -2.5 -8.5t-0.5 -14t1 -15t1 -10.5q2 -16 2 -31.5v-30.5z" />
    <glyph glyph-name="K" unicode="K" horiz-adv-x="410" 
d="M389 -33q-9 -7 -17.5 -7t-16.5 4t-14.5 11.5t-10.5 16.5q-16 37 -31 66t-31 67q-8 20 -14.5 40.5t-14.5 39.5q-5 14 -15 32t-25 24q-11 5 -20 4.5t-14 -9.5q-11 -19 -16.5 -35t-7.5 -38l-3 -42q2 -22 3.5 -42.5t5.5 -42.5q1 -6 4 -15t4.5 -19t1 -19t-4.5 -15
q-8 -11 -25.5 -14t-28.5 3q-15 7 -17.5 19.5t-4.5 26.5q-8 46 -12.5 93.5t-8.5 95.5q-2 17 -2 33v33v45q0 25 -2.5 49.5t-4.5 49.5q-4 38 -9.5 76t-9.5 76q-2 10 -3.5 22t-1.5 25q0 20 8 35.5t33 14.5q14 -1 27 -10.5t15 -23.5q3 -17 3 -33.5t1 -33.5q3 -50 6 -98t13 -94
q3 -14 7.5 -13.5t10 8t10.5 18t9 16.5q22 35 42.5 71t40.5 71q12 20 23.5 39.5t22.5 39.5q10 17 16 34t16 34t32 17q8 0 16.5 -4t14.5 -15q11 -18 2.5 -40.5t-17.5 -39.5q-27 -48 -53.5 -91.5t-49.5 -88.5q-5 -14 -7.5 -28.5t-2.5 -28.5q0 -27 12 -52q19 -38 34 -78.5
t31 -79.5q14 -36 29.5 -65.5t29.5 -67.5q3 -8 5.5 -17t2.5 -17q0 -9 -3.5 -17.5t-12.5 -15.5z" />
    <glyph glyph-name="L" unicode="L" horiz-adv-x="353" 
d="M129 333q4 -35 9.5 -68.5t7.5 -68.5q1 -10 2 -19t3 -18q2 -14 3 -32t9 -30q10 -14 26.5 -12.5t31.5 0.5q17 -1 32 1t31 4q10 1 20 2.5t20 1.5q15 0 29 -6q15 -7 19.5 -22.5t-2.5 -31.5q-8 -17 -26 -22.5t-40 -5.5q-17 0 -34 1.5t-29 1.5q-18 0 -36 -0.5t-36 -5.5
q-20 -5 -33 -5q-18 0 -35 8t-19 25l-4 34q-2 18 -3.5 36.5t-2.5 36.5q-2 46 -8.5 91t-10.5 90q-5 47 -11.5 92t-9.5 91q-1 20 -3.5 39t-2.5 40q0 10 -1 21t-1 22q0 19 5 29q8 17 24 20t32 -1q10 -2 15.5 -7.5t8 -12.5t3 -15t1.5 -17q2 -43 3.5 -85.5t3.5 -85.5
q2 -29 4.5 -58t4.5 -58z" />
    <glyph glyph-name="M" unicode="M" horiz-adv-x="543" 
d="M509 6q-10 -10 -20 -11.5t-18.5 3.5t-14.5 15t-7 23q-6 42 -10 83t-4 80q-1 15 -1.5 30t-0.5 29v15.5t-5 11.5q-7 6 -17.5 -12.5t-20 -43.5t-17 -48.5t-8.5 -29.5q-5 -20 -7 -44t-13 -42q-6 -8 -18 -13t-26 -5q-9 0 -17.5 2.5t-13.5 7.5q-7 6 -6.5 16t-1.5 18
q-2 10 -6.5 19t-7.5 18q-7 20 -12.5 39t-15.5 37q-18 37 -40 71q-10 15 -16.5 32t-23.5 27q-8 -8 -5 -19.5t4 -19.5q5 -40 8.5 -78t8.5 -76q4 -25 6.5 -49.5t4.5 -50.5q1 -11 0 -21.5t-12 -18.5q-8 -5 -23 -7t-24 3q-12 6 -17.5 20.5t-7 31.5t-1.5 34t-2 29q-3 20 -7 38.5
t-7 38.5q-8 72 -13 143.5t-16 143.5q-4 24 -4.5 50t-1.5 51q0 11 -1.5 23t-1.5 24q0 13 3 24t12 19q12 9 28 11q1 1 12 -1.5t21 -12.5q5 -22 7 -37t4 -28.5t6 -28t15 -35.5q20 -39 41.5 -76.5t41.5 -75.5q11 -21 20.5 -42.5t19.5 -42.5q9 -20 20 -36t24 -33q7 14 15 33.5
t15.5 40.5t14 40.5t9.5 32.5q12 44 21 87t18 87q5 21 6.5 34.5t1.5 33.5q0 17 1.5 25.5t5.5 13.5q7 11 19 17t25 6q9 0 17 -4t13 -13q5 -10 3 -24t-1 -25q1 -14 2.5 -25.5t3.5 -24.5q5 -42 4 -82.5t1 -82.5q2 -34 5.5 -67t4.5 -67q0 -18 3.5 -35.5t4.5 -35.5l4 -52t2 -52
q0 -11 -1 -23.5t1 -24.5q2 -15 0.5 -19.5t-13.5 -16.5z" />
    <glyph glyph-name="N" unicode="N" 
d="M419 -6q-18 -20 -41 -11q-13 1 -20.5 10.5t-12.5 21.5t-9 25.5t-9 22.5q-17 30 -34.5 50t-32.5 43q-18 26 -37 47.5t-36 48.5q-39 62 -51 62q-10 0 -10 -36q0 -10 0.5 -22t1.5 -27q2 -34 3 -69t9 -68q2 -11 7 -24t5 -24q0 -14 -10 -23.5t-22 -11.5q-13 -3 -24 5t-20 16
t-11 22t-3 26q-1 22 -1 43.5t-1 42.5q-1 11 -3 21t-3 21q-3 31 -6.5 60.5t-6.5 60.5q-3 25 -6 49t-3 49q0 41 -6.5 79.5t-8.5 78.5q-1 13 6 24.5t18 17.5q11 5 26 3.5t24 -9.5q7 -5 8.5 -14t1.5 -18q3 -32 7.5 -64t17.5 -59q9 -19 21 -35.5t25.5 -32t27.5 -31t25 -32.5
q11 -16 25 -27t25 -27q8 -14 15.5 -27t18.5 -25q7 -7 7 7t-3 36.5t-7.5 46t-5.5 36.5q-4 35 -8 68.5t-9 68.5q-2 21 -6.5 45.5t-4.5 48.5q0 25 7 45q4 10 11 22.5t16.5 20.5t20.5 9t23 -11q11 -10 10.5 -21.5t-1.5 -25.5q-1 -8 -1.5 -14.5t-0.5 -14.5t0.5 -15t1.5 -14
q2 -23 2.5 -45t5.5 -45q4 -23 6.5 -44.5t7.5 -44.5q6 -24 5.5 -48.5t5.5 -49.5q6 -24 8 -47q2 -20 5.5 -40t5.5 -40q1 -11 1 -21t2 -21q2 -20 6.5 -39t6.5 -39q1 -11 0 -25t-8 -22z" />
    <glyph glyph-name="O" unicode="O" horiz-adv-x="461" 
d="M434 403q3 -35 3 -69q-1 -23 0 -47t1 -47v-25t-2 -24q-2 -17 -3.5 -37.5t-5 -40.5t-10.5 -38.5t-20 -31.5q-36 -36 -83 -47.5t-97 -11.5q-8 0 -15.5 0.5t-15.5 0.5q-29 2 -53.5 9t-44.5 32q-18 23 -28 48.5t-15 54.5q-11 68 -14 136.5t-8 137.5q-1 11 -1.5 22t-0.5 22
q0 21 1.5 42t5.5 41q5 23 15 51t27 44q29 28 71 40.5t85 12.5q39 0 71 -9q24 -7 46.5 -18.5t39.5 -31.5q17 -19 21 -45t9 -50q6 -31 12.5 -60t8.5 -61zM349 125q5 29 7 58t2 58q0 13 -0.5 25.5t-0.5 25.5q-1 25 -3 49t-5 48q-3 23 -4 46t-6 46q-4 19 -9.5 37.5t-14.5 34.5
t-22.5 28t-33.5 17t-33 5q-19 0 -36 -6.5t-36 -17.5q-22 -13 -27 -32t-10 -43q-5 -21 -7 -44t-2 -46q0 -27 1.5 -54t3.5 -53q4 -46 7.5 -94t23.5 -91q7 -14 15 -28t22 -22q12 -8 32.5 -10t34.5 -3q17 -1 33.5 3.5t30.5 12.5q17 11 25 20.5t12 29.5z" />
    <glyph glyph-name="P" unicode="P" horiz-adv-x="406" 
d="M384 400q8 -27 8 -52q0 -34 -13 -65.5t-40 -53.5q-34 -28 -76.5 -44t-83.5 -27q-8 -2 -19 -4.5t-16 -10.5q-4 -7 -2.5 -20t2.5 -21q2 -20 4 -39t4 -39q1 -9 1.5 -18.5t-1.5 -18t-7.5 -14t-16.5 -5.5q-19 -1 -37 10t-23 28q-5 19 -4.5 39.5t-1.5 40.5q-5 50 -8 98t-7 98
q-2 35 -4.5 69.5t-4.5 69.5q-1 44 -6 88.5t-10 86.5q-1 8 -2.5 16.5t-1.5 16.5q0 10 3.5 19.5t12.5 16.5q9 6 32 6q15 0 30.5 -1.5t23.5 -3.5q20 -2 42 -13t39 -23q20 -15 41.5 -27.5t39.5 -31.5q17 -18 35.5 -36.5t30.5 -41.5q11 -23 20 -46.5t16 -46.5zM293 322
q5 10 4.5 22t-1.5 23q-1 22 -9 45t-19 41q-11 21 -26 37t-30 33q-14 15 -33.5 27t-39.5 13q-14 1 -17.5 -11.5t-3.5 -28.5q0 -11 1 -21.5t1 -16.5q1 -14 1.5 -27t2.5 -26q1 -11 1 -22.5t1 -22.5q0 -10 -0.5 -19.5t1.5 -19.5l6 -36q1 -11 2.5 -22.5t2.5 -22.5
q1 -13 4.5 -19.5t17.5 -4.5q24 5 53 15.5t49 25.5q9 8 17.5 17.5t13.5 20.5z" />
    <glyph glyph-name="Q" unicode="Q" horiz-adv-x="461" 
d="M415 131q-15 -37 -45 -63q-6 -11 -6.5 -21.5t2 -21t7.5 -21t9 -19.5q5 -11 9 -25.5t4 -28.5q0 -13 -5.5 -24t-20.5 -16q-12 -5 -28.5 -1t-23.5 16q-3 7 -3 13.5t-2 13.5q-2 8 -4.5 14.5t-4.5 13.5q-4 11 -5 12.5t-4 12.5q-3 9 -6 22t-11 18q-2 2 -7.5 3.5t-26.5 1.5
q-13 1 -29 3t-32 6t-31 9t-25 11q-29 16 -43.5 35.5t-24.5 48.5t-18 58t-10 60t-3.5 61.5t-3.5 61.5q-2 29 0 59.5t4 59.5q2 23 6.5 42t24.5 36q35 32 80 52t95 20q27 0 57 -8q40 -11 64 -31t37.5 -46.5t20.5 -58t14 -65.5t11.5 -74.5t4.5 -83.5q0 -42 -6 -82t-21 -74z
M135 187q6 -11 10 -21.5t15 -19.5q11 -8 19 -14.5t22 -8.5q8 -1 16 -1t16 -1q9 4 11 12t0 17.5t-5.5 19.5t-6.5 17q-4 11 -11 24.5t-4 24.5q4 14 18.5 21.5t30.5 7.5q12 0 21.5 -4.5t14.5 -15.5q5 -13 7.5 -26.5t7.5 -27.5q2 -6 4.5 -12.5t6 -9.5t7 -1.5t7.5 12.5
q6 20 8.5 41.5t6.5 43.5q2 19 0.5 38t-2.5 38q0 18 -2 34.5t-4 33.5t-6.5 33.5t-9.5 33.5q-4 14 -8 26t-13 23t-20.5 18t-22.5 15q-9 8 -21.5 10.5t-23.5 3.5q-13 1 -24 -2t-21.5 -8.5t-20.5 -11.5t-20 -11t-16.5 -14.5t-10.5 -20.5t-5.5 -22.5t-2.5 -21.5q-1 -14 0.5 -27
t1.5 -27q-2 -30 1.5 -59t4.5 -62q0 -13 2.5 -25.5t5.5 -24.5q3 -13 7 -25t9 -23z" />
    <glyph glyph-name="R" unicode="R" horiz-adv-x="406" 
d="M366 74q12 -16 26.5 -36t14.5 -40q0 -9 -4.5 -17.5t-15.5 -16.5q-18 -12 -31.5 -5.5t-24 20.5t-18.5 31t-14 28q-15 28 -31.5 59t-39.5 54q-16 14 -27.5 10.5t-31.5 -8.5l-18 -3q-8 -5 -9.5 -12.5t-2.5 -18.5q-1 -23 4 -55.5t7 -55.5q1 -9 0.5 -18.5t-4 -17t-10.5 -11
t-20 -0.5q-21 5 -30.5 13.5t-10.5 28.5q-1 21 -6.5 51t-9.5 51q-8 44 -9 90.5t-7 90.5q-4 27 -4 56.5t-1 56.5q-2 26 -4 51.5t-4 51.5q-1 23 -1 46.5t-5 45.5q-2 12 -5.5 24t-3.5 23q0 16 11 31q6 8 16 11t21 3t23 -2t21 -4q48 -8 92 -33q11 -5 22.5 -11.5t20.5 -14.5
q11 -9 19 -20t19 -19q36 -28 62 -68t35 -85q6 -30 6 -56q0 -32 -10.5 -61t-33.5 -58q-16 -20 -39 -37v-8.5t2 -9.5q11 -32 27 -64t37 -61zM117 596q-4 -1 -6.5 -5.5t-3.5 -10.5t-1.5 -12t-0.5 -10q0 -40 4.5 -79t6.5 -79q2 -37 4 -71.5t13 -70.5q7 -20 26 -20q13 0 27 6
t25 10q48 17 72.5 55.5t18.5 83.5q-5 43 -28.5 77.5t-59.5 60.5q-17 13 -27 27t-30 23q-3 1 -8.5 4t-11.5 5.5t-11.5 4.5t-8.5 1z" />
    <glyph glyph-name="S" unicode="S" horiz-adv-x="384" 
d="M261 623q15 -10 29.5 -30t14.5 -40q0 -19 -15 -31q-11 -9 -30 -9q-22 0 -34 15q-5 7 -8 16t-10 16q-8 8 -23.5 15.5t-26.5 6.5q-8 -1 -20 -5.5t-23 -11.5t-19 -16.5t-6 -19.5q1 -8 7 -19t14 -22.5t16 -21.5t14 -14q9 -8 26 -21.5t35 -29t34.5 -30t25.5 -23.5l33 -33
t27 -29q29 -35 50 -74t18 -83q-2 -42 -21.5 -75t-55.5 -54q-47 -28 -98 -28q-38 0 -84 16q-18 7 -38 23t-35 36.5t-20.5 42.5t5.5 42q8 14 25 21.5t31 -5.5q7 -8 9.5 -16.5t4 -17t5 -17t13.5 -15.5q35 -26 75 -26q26 0 48.5 11t38.5 33q9 12 12.5 23.5t3.5 22.5q0 27 -17 51
t-36 47q-30 37 -66 63.5t-71 59.5q-8 7 -22.5 22t-30 31.5t-29 32t-19.5 24.5q-14 23 -14 54q0 19 6 36q17 47 57 69.5t87 22.5q26 0 55.5 -10t51.5 -26z" />
    <glyph glyph-name="T" unicode="T" horiz-adv-x="362" 
d="M230 403q-2 -38 4 -75.5t4 -75.5q-1 -11 -1 -24v-27q0 -29 1.5 -59t3.5 -55q2 -14 4.5 -26.5t5.5 -26.5q4 -16 3.5 -26t-13.5 -20q-13 -11 -24.5 -14t-26.5 7q-14 10 -15.5 22t-2.5 26q-2 17 -5 34.5t-5 34.5q-2 22 0.5 53.5t1.5 53.5q-2 50 -6.5 98.5t-7.5 97.5
q-1 21 -2.5 42t-3.5 41q-1 17 -3 34.5t-4 34.5q-1 9 -9 12t-19 3t-24.5 -1.5t-24.5 -2.5q-14 -1 -30 4t-22 18q-5 12 -1.5 31t12.5 29q11 11 27 12t30 0q13 -1 21 -1t15.5 -0.5t15.5 -1.5t20 -3q23 -3 46.5 -6.5t46.5 -4.5q20 -1 39.5 -3t38.5 -8q17 -5 28 -13.5t12 -27.5
q1 -11 -6.5 -25.5t-18.5 -19.5q-13 -6 -27.5 -2.5t-28.5 6.5q-5 1 -13 2.5t-16 2.5t-14.5 0t-9.5 -5q-4 -5 -5 -13t-1 -16t0.5 -16.5t0.5 -14.5q0 -22 5 -42.5t4 -42.5z" />
    <glyph glyph-name="U" unicode="U" horiz-adv-x="439" 
d="M32 378q1 49 0.5 98t0.5 98q0 7 -1 16.5t-1.5 19t0.5 18t6 13.5q13 14 29.5 10t29.5 -17q9 -9 12 -20.5t4 -23.5q1 -8 0.5 -15t0.5 -14q4 -43 0 -83.5t-2 -83.5q0 -14 1.5 -29t2.5 -29q1 -8 1.5 -15.5t-0.5 -15.5q0 -9 0.5 -18.5t1.5 -19.5l2 -26t3 -26q1 -15 2.5 -38.5
t7 -47.5t15 -43t26.5 -23t37 2.5t36 12.5q8 4 18 8.5t18 10.5q8 5 19 11.5t17 14.5q10 13 9 35t1 39q2 20 -2.5 41t-6.5 42q-4 43 -11.5 82.5t-14.5 81.5q-3 21 -5.5 42t-5.5 41q-2 19 -8.5 40t-3.5 39q3 17 21 25t33 -2q12 -7 19 -28t10 -35q12 -43 19 -89.5t11 -91.5
q5 -53 15.5 -104t12.5 -103q2 -28 3.5 -55t-12.5 -50q-23 -34 -60 -55q-24 -14 -51 -21t-52 -19q-19 -9 -42 -13.5t-44 2.5q-17 5 -33.5 18t-31 30t-24.5 36.5t-14 37.5q-5 17 -6.5 33t-2.5 33q-3 29 -4 59t-3 60q-4 53 -3 104z" />
    <glyph glyph-name="V" unicode="V" horiz-adv-x="399" 
d="M98 223q-11 35 -20 69.5t-18 69.5q-8 27 -17 55t-13 57q-2 14 -4.5 27t-4.5 27q-1 12 -4.5 33.5t-3.5 42.5q0 23 8 41t33 18q12 0 18.5 -5t10.5 -12.5t5 -17t3 -18.5q4 -21 8 -42.5t9 -41.5q11 -42 18.5 -83.5t17.5 -83.5q5 -22 13 -42.5t16 -41.5q7 -20 12 -38.5
t13 -37.5q3 -8 7.5 -15t9 -9.5t9.5 0.5t10 17q8 20 10 41l4 42q5 48 11 90.5t14 90.5q6 45 12.5 94.5t25.5 90.5l8.5 17t10.5 15t14 8t19 -3q13 -6 17.5 -14.5t4.5 -18.5q0 -9 -2.5 -19t-4.5 -19q-11 -52 -16 -105t-13 -106q-8 -54 -15.5 -107t-16.5 -106q-4 -21 -5 -44
t-2.5 -45.5t-5.5 -44.5t-15 -41q-4 -8 -13 -13.5t-20 -8.5t-22 -2.5t-20 3.5q-19 7 -26 24t-15 34q-20 43 -41 87t-34 91z" />
    <glyph glyph-name="W" unicode="W" horiz-adv-x="525" 
d="M498 619q-2 -17 -2.5 -35.5t0.5 -36.5q1 -17 1 -34v-34q0 -39 -1 -78.5t-2 -78.5q-2 -28 -2.5 -56t-1.5 -56q0 -22 -2.5 -44.5t-1.5 -44.5q1 -11 1.5 -20.5t0.5 -19.5q1 -28 -2.5 -50t-29.5 -35q-15 -7 -25.5 -1t-19 18.5t-15 27t-12.5 23.5q-16 23 -26 48.5t-26 51.5
q-7 11 -13.5 24t-13.5 25q-3 6 -6 11t-5 11q-3 6 -9 18.5t-8 18.5q-3 1 -6 -2t-5 -7.5l-4 -9t-3 -6.5q-13 -24 -21 -46t-18 -51q-5 -14 -8.5 -29t-7.5 -32q-2 -13 -6.5 -29.5t-9.5 -27.5q-8 -14 -18.5 -22t-22.5 -13q-10 -3 -23.5 4.5t-20.5 19.5q-5 11 -6.5 26.5t-3.5 27.5
q-3 17 -6.5 34t-6.5 34q-14 72 -24.5 144t-22.5 144q-6 34 -12.5 70t-3.5 71q2 14 3 26.5t13 21.5q10 8 26 15.5t24 -3.5q14 -23 13.5 -48.5t1.5 -51.5q1 -13 4 -24.5t5 -24.5t4.5 -25.5t4.5 -26.5q5 -32 10.5 -66t11.5 -66q3 -15 6.5 -28t5.5 -27q6 -17 12 -14.5t10.5 13
t8.5 24t6 19.5q5 16 9 32t9 32q5 15 9 29t6 31q2 16 10 28t25 15q18 3 29.5 -3t19 -17t12.5 -25t11 -26q13 -28 24.5 -56t22.5 -57q3 -6 6.5 -16.5t8 -18.5t9 -10t9.5 8q2 10 2.5 20.5t0.5 21.5q0 30 2.5 59.5t2.5 60.5q0 35 -1.5 69t-0.5 69q1 20 -1 40.5t-2 40.5
q0 24 6 45q5 14 18.5 21t26.5 11q12 3 24 0.5t16 -16.5q5 -14 2 -27.5t-5 -27.5z" />
    <glyph glyph-name="X" unicode="X" horiz-adv-x="392" 
d="M341 547q-16 -29 -30 -63t-22 -66q-7 -22 -13.5 -53.5t-8.5 -54.5q-2 -20 5.5 -36t16.5 -33q8 -17 14.5 -33t14.5 -32q4 -8 9 -20.5t10.5 -25.5t11 -25.5t10.5 -21.5q8 -15 20.5 -32t15.5 -34q4 -23 -10 -33.5t-35 -9.5q-11 0 -17.5 3t-11 8t-8.5 12.5t-10 16.5
q-9 16 -19 35.5t-19 39.5t-17 40t-14 37q-5 13 -11.5 21t-11.5 3q-11 -11 -13 -26t-6 -29q-5 -19 -10.5 -37.5t-12.5 -37.5q-6 -17 -15 -39.5t-23 -35.5q-4 -3 -12 -5q-12 2 -24 5.5t-21 14.5t-4.5 23t8.5 23q11 26 17 52.5t15 53.5q11 34 22 71t17 72q3 19 -6 42.5
t-16 41.5q-7 16 -13.5 31.5t-14.5 32.5q-18 35 -33.5 63.5t-31.5 63.5q-10 20 -16 35t1 37q2 7 7.5 15t13 14t16.5 8.5t18 -1.5q7 -3 12 -11t9 -17.5t7.5 -19t6.5 -15.5q9 -19 15.5 -38t16.5 -39q3 -5 7.5 -18t10.5 -28l12 -30t13 -24.5t13.5 -11.5t12.5 9q11 18 19 36
t13 34q5 20 10 39.5t13 38.5q7 18 12 35t10 36t24.5 26t36.5 -1q11 -5 16 -15.5t5 -24.5q0 -24 -10 -51t-18 -41z" />
    <glyph glyph-name="Y" unicode="Y" horiz-adv-x="430" 
d="M413 625q-8 -23 -20 -44.5t-20 -44.5q-29 -81 -54.5 -161t-39.5 -166q-5 -30 -7.5 -60t-2.5 -61q0 -11 2 -23t2 -23q0 -15 -7 -25.5t-29 -9.5q-27 1 -39 19t-14 43q-2 24 2.5 57t10.5 68.5t11.5 71t5.5 63.5q0 31 -8 46q-9 19 -23.5 35t-31.5 30t-35.5 27t-34.5 27
q-13 11 -26.5 23.5t-24.5 26.5t-17 30.5t-4 35.5q2 13 14 23t23 12q15 1 24 -10.5t17 -22.5q20 -25 40.5 -44.5t43.5 -39.5q11 -10 23.5 -19.5t23.5 -19.5q10 -9 21.5 -18t22.5 3q5 8 8.5 16.5t7.5 16.5q10 26 17 51.5t18 50.5q4 9 8.5 21t10.5 24t14 21t19 12q16 4 27.5 0
t17.5 -13.5t6.5 -22.5t-3.5 -26z" />
    <glyph glyph-name="Z" unicode="Z" horiz-adv-x="382" 
d="M208 649q10 -2 20 -4.5t21 -2.5q18 -1 35.5 -3.5t36.5 -5.5q13 -3 28.5 -10.5t18.5 -21.5q2 -13 -6 -25.5t-15 -23.5q-20 -28 -34.5 -59.5t-31.5 -61.5q-11 -18 -25 -46.5t-28.5 -59t-28 -59l-22.5 -47.5q-12 -23 -25.5 -52t-12.5 -56q17 -8 33 -10.5t33 -2.5h16.5
t17.5 1q17 2 34.5 3.5t34.5 -0.5q11 -2 26 -2t23 -8q6 -7 8 -22.5t-1 -23.5q-5 -14 -20.5 -22t-27.5 -7q-50 6 -97 6q-13 0 -25.5 -0.5t-25.5 -1.5q-17 -2 -33.5 -6t-33.5 -7q-15 -2 -30.5 -4t-27.5 9q-15 14 -15 36q0 20 8.5 40.5t15.5 36.5q6 14 10 27t10 26q8 19 16.5 37
t17.5 36q9 20 22.5 49.5t28.5 61t29.5 60.5t25.5 48q9 15 13.5 25t11.5 25q5 10 9.5 21t-8.5 19q-14 8 -32.5 8.5t-34.5 2.5q-14 2 -27.5 6.5t-27.5 3.5q-13 -1 -24.5 -3.5t-23.5 -7.5q-29 -10 -35 19q-3 16 3 28t17 19.5t25 12t27 5.5q26 3 52 0.5t51 -6.5z" />
    <glyph glyph-name="bracketleft" unicode="[" horiz-adv-x="342" 
d="M151 258q2 -9 0.5 -18.5t-0.5 -18.5t2 -17.5t0 -17.5q0 -9 -1 -18t-1 -19q1 -18 3 -36.5t4 -37.5q2 -17 1.5 -33t0.5 -33t2.5 -33.5t2.5 -33.5v-14.5t1 -16.5t4 -15t9 -8q14 -3 33 0.5t32 5.5l16 2t16 -2q4 -2 12.5 -7.5t11.5 -8.5q14 -17 9 -28.5t-18 -18t-29.5 -9
t-26.5 -2.5h-31.5t-30.5 -1q-8 0 -15.5 -0.5t-15.5 -2.5t-14 -5t-15 -2q-14 2 -22.5 8.5t-8.5 22.5t2.5 32t3.5 33q2 20 0.5 39.5t-3.5 39.5q-5 52 -6 103.5t-3 103.5q-4 58 -8 115.5t-7 115.5q-2 31 -4.5 61.5t-2.5 60.5q0 28 -1 57t-3 57q-2 19 -4 39.5t-9 37.5
q-6 13 -5.5 31t17.5 26q6 4 15 4t17 1q8 2 15 3.5t15 1.5q17 2 33.5 -0.5t33.5 -1.5t32.5 1.5t32.5 3.5q14 3 32 -0.5t28 -15.5q3 -4 5 -12t2 -17t-1.5 -16.5t-5.5 -11.5q-11 -11 -28.5 -10t-30.5 1q-17 0 -32.5 1.5t-32.5 0.5q-8 -1 -15.5 0t-13.5 0t-10 -5.5t-4 -15.5
q-1 -13 -1 -25.5v-25.5q0 -22 -0.5 -43.5t-2.5 -42.5q-1 -8 -1.5 -17t-0.5 -17q0 -32 4 -65.5t6 -65.5q1 -25 1.5 -49.5t3.5 -49.5q1 -11 3 -22.5t3 -22.5z" />
    <glyph glyph-name="backslash" unicode="\" horiz-adv-x="461" 
d="M199 293q-17 29 -30.5 59t-27.5 60q-13 29 -29.5 57t-33.5 55q-12 20 -28.5 45t-23.5 48q-7 22 3.5 38t26.5 16q10 0 17.5 -5t14 -13.5t12 -19t10.5 -20.5q27 -54 53.5 -106.5t55.5 -104.5q35 -62 64.5 -126t61.5 -127q14 -26 26 -53t26 -53q11 -20 23.5 -42t19.5 -42
q8 -25 -5 -38.5t-32 -6.5q-21 8 -29.5 28.5t-16.5 41.5q-17 43 -38.5 83t-42.5 80q-20 37 -38.5 73t-38.5 73z" />
    <glyph glyph-name="bracketright" unicode="]" horiz-adv-x="320" 
d="M176 357q-2 10 -0.5 19t0.5 19q-1 8 -2 17t-1 17q1 10 2 19t1 18q-1 19 -3 37.5t-4 36.5q-2 17 -1.5 33t-0.5 33t-2.5 33.5t-2.5 33.5v14.5t-1 17t-4 14.5t-9 8q-14 3 -33 0t-32 -5q-8 -1 -17 -3t-15 3q-9 8 -12.5 15.5t-3.5 14.5q0 19 19.5 31.5t37.5 12.5
q17 0 31.5 -0.5t30.5 0.5q8 1 15.5 1t15.5 2t14 5t15 2q14 -1 22.5 -8t8.5 -22q0 -16 -2.5 -32.5t-3.5 -33.5q-2 -20 -1 -39.5t3 -39.5q5 -51 6.5 -102.5t3.5 -104.5q4 -58 8 -115t7 -115q2 -31 4.5 -61.5t2.5 -61.5q0 -28 1 -56.5t3 -56.5q2 -19 4 -39.5t9 -38.5
q6 -14 5 -31.5t-17 -25.5q-6 -3 -15 -3t-17 -2q-8 -1 -15 -2.5t-15 -2.5q-17 -1 -33.5 1.5t-33.5 1.5t-32.5 -1.5t-32.5 -4.5q-14 -2 -32 1t-28 15q-3 4 -5 12.5t-2.5 17t1.5 16.5t6 12q11 11 28.5 9.5t30.5 -1.5q17 0 32.5 -1.5t32.5 0.5q8 0 15.5 -0.5t13.5 0.5t10 5.5
t4 15.5q1 13 1 25.5v25.5q0 22 0.5 43.5t2.5 42.5q1 8 1.5 17t0.5 17q0 32 -4 65.5t-6 65.5q-1 25 -2 49.5t-3 49.5q-1 11 -3 22t-3 22z" />
    <glyph glyph-name="asciicircum" unicode="^" horiz-adv-x="290" 
d="M75 802q5 12 12 29t14 28q8 11 26 12.5t29 -5.5t17 -17t14 -19q10 -12 20.5 -22.5t21.5 -23.5q4 -5 8.5 -10.5t8.5 -11.5t5.5 -12.5t-0.5 -13.5q-2 -6 -8.5 -10t-14.5 -6t-16.5 -1.5t-13.5 3.5q-11 6 -17.5 20.5t-14.5 23.5q-2 3 -7.5 8.5t-10.5 6.5q-6 0 -9.5 -4.5
t-6.5 -9.5q-8 -10 -15 -21t-12 -22q-2 -5 -6 -12t-10 -12.5t-13 -8.5t-15 1q-9 5 -17 20.5t-4 26.5q2 6 8 12.5t10 12.5q5 9 9.5 18.5t7.5 19.5z" />
    <glyph glyph-name="underscore" unicode="_" horiz-adv-x="372" 
d="M174 25q14 1 29 2.5t30 3.5q17 2 34.5 3t34.5 1q14 0 28 -3.5t22 -14.5q19 -28 -4 -49q-12 -11 -23.5 -12.5t-28.5 -0.5q-19 1 -38 1h-39q-25 -1 -50.5 -2t-50.5 -5q-16 -2 -32 -7.5t-32 -1.5q-25 3 -33 19q-4 9 -5 19t4 19q9 16 29 20t37 5q22 1 44 1t44 2z" />
    <glyph glyph-name="grave" unicode="`" horiz-adv-x="282" 
d="M155 831q10 -5 19.5 -10t19.5 -10q22 -10 45 -26q8 -5 14.5 -13.5t4.5 -22.5q-3 -30 -29 -38q-14 -5 -22 -1t-17 11q-11 9 -23 17.5t-23 16.5q-16 10 -32.5 19t-33.5 17q-11 5 -23.5 7.5t-20.5 11.5q-6 7 -9 13.5t0 16.5q3 9 8 18t13 14q14 9 28.5 4.5t25.5 -11.5
q14 -8 27.5 -17t27.5 -17z" />
    <glyph glyph-name="a" unicode="a" horiz-adv-x="389" 
d="M402 43q2 -11 5.5 -21.5t3.5 -21.5q0 -8 -3 -16.5t-11 -16.5q-14 -14 -32 -9.5t-30 16.5q-13 13 -12.5 32t-1.5 36q-2 13 -4.5 27t-8.5 28q-5 11 -18 11.5t-24 1.5q-17 2 -33.5 1.5t-33.5 -2.5q-15 -1 -30 -0.5t-30 -1.5q-12 -2 -23.5 -5t-11.5 -20v-33q0 -13 -1 -26
t-5.5 -23.5t-12.5 -17.5t-22 -8q-28 -2 -37 10t-9 31q0 17 4 36.5t5 36.5q4 53 13 102t15 102q7 57 11 116t22 115q8 14 10.5 36t-2.5 39q-3 14 -0.5 27.5t11.5 24.5q6 8 20 13t28 5q19 0 27 -9q12 -6 18 -22q5 -17 13.5 -32.5t16.5 -33.5q8 -21 20.5 -40.5t20.5 -40.5
q5 -14 9 -27.5t9 -27.5q6 -14 11.5 -29.5t10.5 -29.5q10 -29 18.5 -58t17.5 -58q11 -40 25 -81t20 -83q2 -14 4.5 -27t6.5 -26zM253 193q15 2 17 10t0 22q0 2 -2 10q-12 37 -23 71.5t-22 72.5q-6 22 -16 44.5t-18 43.5q-5 16 -11 34.5t-17 31.5q-1 -15 -4.5 -30t-6.5 -29
q-2 -16 -4.5 -31t-2.5 -32q0 -23 -3 -48.5t-6.5 -52t-6.5 -51.5t-4 -47q-1 -17 5.5 -20t23.5 -3h25.5t25.5 1q12 1 25 1t25 2z" />
    <glyph glyph-name="b" unicode="b" horiz-adv-x="467" 
d="M425 220q15 -17 26 -37.5t7 -45.5q-5 -30 -24 -58.5t-45.5 -52t-57 -39.5t-59.5 -20q-35 -6 -70 -6q-18 0 -36 1.5t-36 6.5q-7 0 -13.5 4t-11.5 9q-14 12 -24 25t-12 30q-1 10 -1 23.5t-0.5 27t-0.5 27t-1 23.5q-2 11 -4.5 23.5t-2.5 25.5q-1 28 -3 56.5t-4 57.5
q-1 11 -1 21t-1 21q0 46 -7 90t-7 95q0 15 1 29t-10 25q-11 9 -15.5 17t-2.5 24q2 14 10.5 24.5t21.5 16.5q14 7 26.5 6t26.5 -3q8 -2 16.5 -0.5t16.5 1.5q8 1 16 0l16 -2q15 -1 30 -4.5t30 -6.5q14 -4 29 -8t29 -10q14 -7 25.5 -19.5t21.5 -23.5q30 -33 50 -69
q9 -16 13.5 -34t12.5 -35q14 -31 14 -62q0 -14 -3.5 -29t-11.5 -29q-17 -30 -40 -55q-3 -4 -5.5 -8t-4.5 -9q17 -14 39 -21t37 -23zM117 584q-3 -1 -4 -14.5t-1 -35.5q0 -29 2 -68t5 -75t7.5 -63.5t9.5 -33.5q5 -8 14.5 -10t20.5 -2q12 0 24 1.5t21 1.5q25 -1 43 3t35 25
q13 15 24.5 36.5t11.5 41.5q-1 37 -16 72.5t-40 63t-58 44t-70 16.5q-14 0 -29 -3zM318 69q22 14 37 34t15 40q0 13 -7.5 24.5t-25.5 19.5q-20 11 -45.5 16t-48.5 4q-11 0 -27 -1.5t-32 -5.5t-28.5 -11t-16.5 -19q-4 -10 -3 -26.5t0 -27.5v-9.5v-14t0.5 -13.5t2.5 -9
q2 -5 7.5 -11t7.5 -8q6 -5 16.5 -7.5t21.5 -3.5t22 -1.5t19 -1.5q22 -3 43.5 8.5t41.5 23.5z" />
    <glyph glyph-name="c" unicode="c" horiz-adv-x="472" 
d="M357 592q8 -9 15.5 -20t10.5 -23q3 -10 6 -21.5t4 -21.5q0 -11 -5 -24t-16 -18.5t-25 -3.5q-16 1 -22.5 8t-9 17t-5 21t-10.5 20q-14 15 -38.5 24t-47.5 9q-8 0 -16 -1t-14 -4q-15 -7 -26 -13t-18.5 -13.5t-12 -17.5t-7.5 -26q-3 -22 -5.5 -51t-2.5 -54q0 -12 -0.5 -26.5
t-0.5 -30.5t0.5 -31t2.5 -26q2 -20 5.5 -49t8.5 -48q5 -16 7 -33.5t12 -31.5q5 -7 10.5 -9t11.5 -7q6 -4 10.5 -8.5t11.5 -6.5q14 -6 35.5 -9t36.5 -1q26 2 51.5 17t42.5 36q7 9 11 22t7 24q1 7 1.5 13.5t1.5 12t4 9.5t11 5q12 2 27 -2t24 -12q10 -9 9 -23.5t-2 -26.5
q-2 -22 -8.5 -38.5t-21.5 -33.5q-11 -11 -21.5 -22.5t-22.5 -22.5q-23 -19 -51.5 -28t-59.5 -9q-14 0 -26 0.5t-26 4.5q-16 4 -31 4t-31 2q-19 2 -39 17t-29 32q-22 37 -29 76q-2 15 -3 30.5t-4 30.5q-3 17 -6 44.5t-5 44.5q-1 16 -3 36t-3.5 40t-2.5 39.5t1 35.5
q2 30 7 57.5t17 54.5q8 20 17.5 41t25.5 35q17 17 36.5 25t42.5 13q13 3 26 2t25.5 -4.5t25.5 -8t26 -7.5q23 -5 43 -12t36 -24z" />
    <glyph glyph-name="d" unicode="d" horiz-adv-x="489" 
d="M459 342q3 -16 4 -37t1 -43q0 -24 -0.5 -47.5t-2.5 -40.5q-2 -26 -7.5 -55t-19.5 -49t-29 -35t-35 -25q-25 -12 -55 -22.5t-58 -13.5q-31 -4 -61 -4.5t-60 -6.5q-12 -2 -26 -2.5t-25 7.5q-8 6 -9.5 12.5t-1 14t2 15.5t0.5 16q-2 9 -4 17.5t-2 18.5v29v29q0 14 -0.5 29
t-1.5 30q-2 17 -6.5 30.5t-8.5 28.5q-2 9 -3 24t-1.5 31.5t-1 31.5t-1.5 25q-9 67 -12 137q-2 36 -5.5 71t-13.5 68q-10 35 15 50q17 11 31 11t31 -2q60 -3 118 -23.5t100 -70.5q24 -29 49.5 -56t48.5 -58q20 -26 32 -64t18 -71zM374 162q6 21 11.5 41.5t3.5 43.5
q-2 20 -7 44.5t-12 49.5t-15.5 48t-17.5 41q-16 33 -41 60t-48 53q-14 16 -30 22t-35 14q-8 3 -17 8t-19 9t-19.5 6.5t-17.5 1.5q-5 -12 -3.5 -27t3.5 -28q2 -15 2.5 -35.5t1.5 -36.5q2 -30 5.5 -59.5t6.5 -59.5q1 -12 1.5 -30t1.5 -36.5t2.5 -36t4.5 -29.5q6 -29 6 -57
q0 -15 1 -29.5t1 -29.5t4.5 -32t6.5 -31q47 -2 95 8.5t88 37.5q14 11 22.5 31t13.5 38z" />
    <glyph glyph-name="e" unicode="e" horiz-adv-x="433" 
d="M424 6q-4 -5 -12 -7t-17 -2q-15 0 -31 3t-26 5q-24 4 -48 3.5t-48 2.5t-40.5 -1t-38.5 -10q-15 -5 -36 -8.5t-37 4.5q-14 8 -18.5 17.5t-4.5 20.5q0 9 1.5 17.5t2.5 17.5q2 21 -2 46.5t-6 47.5q-2 27 -3.5 54.5t-3.5 55.5q-4 39 -6 78.5t-7 78.5q-2 17 -3 35t-3 36
q-2 20 -4.5 44t-10.5 43q-5 10 -9.5 18.5t-5.5 19.5q-1 21 14 26t33 3q40 -2 79 -5.5t79 -9.5q23 -4 44.5 -9.5t44.5 -9.5q11 -2 22.5 -2.5t22 -2.5t19.5 -6.5t17 -14.5q11 -16 11 -28q0 -23 -25 -31q-17 -6 -42 0t-44 11q-23 7 -44.5 11t-44.5 6q-10 1 -23 3.5t-25 2.5
q-20 0 -28 -13q-4 -8 -4.5 -20t1 -25t3.5 -26t2 -22q1 -23 -0.5 -44.5t0.5 -44.5q2 -17 4 -33.5t4 -33.5l6 -14t8 -10q8 -4 19.5 -4.5t19.5 -2.5q8 -1 15.5 -1.5t15.5 -0.5q14 0 28.5 1t28.5 3q11 2 25.5 4t28.5 2q18 0 32 -6q18 -8 27.5 -28.5t-2.5 -38.5q-11 -16 -31 -16
q-12 0 -24 3t-23 4q-9 1 -17.5 1.5t-17.5 0.5q-14 0 -27 -0.5t-27 -1.5q-12 0 -23 -0.5t-20 -3.5t-15.5 -10.5t-9.5 -20.5q-3 -16 0 -31.5t8 -30.5q3 -8 12 -12t20.5 -5t23.5 -0.5t21 0.5q21 0 44 -0.5t43 -2.5q12 0 23.5 -1t22.5 -1q9 0 24 0.5t23 -3.5q11 -6 16.5 -19.5
t5.5 -27.5q0 -18 -7 -28z" />
    <glyph glyph-name="f" unicode="f" horiz-adv-x="386" 
d="M357 240q-11 -11 -23 -11.5t-26 1.5t-27 3t-27 2q-14 2 -27 1t-27 1q-11 1 -28 2.5t-26 -5.5q-10 -10 -8 -23.5t3 -24.5q2 -26 1 -52.5t6 -52.5q4 -16 8.5 -33.5t4.5 -34.5q0 -18 -7 -33q-6 -13 -14.5 -18.5t-17.5 -5.5q-11 0 -21 8.5t-15 24.5q-9 31 -12 64t-4.5 66
t-2.5 66.5t-5 65.5q-5 38 -4.5 76.5t-4.5 76.5q-3 32 -7 62t-6 62q-2 26 -9 53.5t-2 54.5q2 9 7.5 21.5t14.5 17.5q10 6 23.5 1t24.5 -7q26 -7 51.5 -15.5t52.5 -15.5q26 -7 51.5 -10.5t51.5 -7.5q13 -2 26 -4.5t20 -13.5q8 -12 4 -26.5t-14 -23.5q-18 -17 -41 -17
q-14 0 -29 4.5t-30 8.5q-23 5 -44 10t-44 10q-25 5 -32 -5t-7 -27q0 -8 0.5 -16t1.5 -16q2 -27 6.5 -53.5t6.5 -52.5q2 -14 2 -28.5t3 -28.5q2 -14 10.5 -19.5t22.5 -6.5q14 0 27 -2t27 -3t27 -2t27 -3t27.5 -0.5t27.5 1.5q19 -1 30 -11.5t11 -24.5q0 -17 -15 -30z" />
    <glyph glyph-name="g" unicode="g" horiz-adv-x="454" 
d="M451 -17q-7 -7 -18 -9.5t-20 -0.5q-11 1 -18 6t-18 7q-12 2 -29 -1t-31 -2q-15 -2 -30 -3t-31 -2q-20 -1 -38.5 2t-38.5 4h-17t-17 3t-15.5 10t-14.5 12q-15 11 -23 24t-14 30t-12.5 33t-11.5 33q-6 20 -9 38t-5 38q-3 23 -5 52t-3.5 60.5t-2.5 63t-1 58.5v30q2 45 19 90
t53 73q17 13 39 23.5t45 11.5q26 2 50.5 -4.5t50.5 -11.5q20 -4 44 -8.5t41 -17.5q24 -20 32 -44.5t9 -52.5q2 -23 -5.5 -43.5t-34.5 -22.5q-5 0 -16 1.5t-16 3.5q-10 5 -10 11.5v15.5q0 15 -3.5 31t-13.5 27q-14 17 -39 24t-49 7q-18 0 -33 -3q-18 -4 -30.5 -16.5t-21 -30
t-13.5 -36.5t-7 -35q-3 -19 -8.5 -40.5t-3.5 -41.5q1 -11 3 -30t3.5 -40t3 -40.5t2.5 -30.5q2 -20 5 -38.5t8 -37.5q1 -6 4 -14.5t6 -18t6.5 -17.5t6.5 -12q6 -9 21.5 -16.5t25.5 -9.5q16 -5 31.5 -7.5t32.5 -1.5q17 0 33.5 3t33.5 4q2 1 6 1q12 4 19.5 9t5.5 23
q0 9 -1.5 20.5t-4 23.5t-5.5 22.5t-7 18.5q-5 9 -14.5 12t-20.5 3t-21 -1.5t-18 -3.5q-11 -2 -19 -4.5t-20 2.5q-9 5 -14.5 12t-10.5 18q-8 20 -5 35.5t25 22.5q8 2 19 0.5t19 -2.5q11 -1 20.5 0.5t19.5 3.5l22 4t22 2q20 0 33 -9q17 -12 25.5 -24t13.5 -35q4 -20 8.5 -41
t7.5 -41q6 -44 18 -86q2 -11 5 -22t3 -22q0 -20 -13 -32z" />
    <glyph glyph-name="h" unicode="h" horiz-adv-x="436" 
d="M412 -10q-11 -6 -28 -3.5t-26 12.5q-10 11 -12 29t-4 32q-4 24 -6.5 49.5t-8.5 48.5q-5 20 -12 33.5t-29 15.5q-21 2 -42.5 0.5t-41.5 -3.5q-11 -1 -23 -1.5t-22.5 -3t-17.5 -9t-7 -20.5q1 -18 1.5 -37.5t6.5 -36.5q5 -14 11.5 -26.5t8.5 -27.5q2 -19 -4.5 -27.5
t-22.5 -17.5q-14 -8 -28.5 -2.5t-24.5 18.5q-9 13 -11 27t-4 29q-3 31 -3 65q1 13 -1.5 26t-5.5 25q-8 34 -9 67.5t-1 67.5q-1 29 -5 59t-7 59q-2 19 -4 32.5t-4 25t-3.5 24.5t-2.5 32q-1 6 -1 15t2 15q2 4 8.5 9.5t10.5 8.5q13 8 28.5 4.5t26.5 -11.5q8 -6 10 -9.5t2 -12.5
t1 -18t0 -18q0 -11 -1 -15.5t-2 -8t-1 -8.5v-15q2 -45 9 -89t10 -89q2 -8 5 -15t8 -10q6 -4 16.5 -5.5t21.5 -1.5t21.5 1t17.5 2q11 1 21 2l20 2q8 1 19 0.5t19 4.5q7 4 10.5 12t5 17.5t1.5 19.5v18q-3 20 -7.5 40.5t-9.5 40.5q-9 45 -12 92q-1 17 -4.5 34t-2.5 33
q1 14 8.5 29t18.5 25q11 9 27 7.5t24 -12.5q9 -12 7.5 -30t0.5 -33q2 -20 4.5 -40.5t4.5 -41.5q4 -51 10 -101.5t15 -100.5q9 -48 12 -97.5t11 -97.5q3 -16 6 -30.5t8 -29.5q5 -16 2.5 -30.5t-19.5 -23.5z" />
    <glyph glyph-name="i" unicode="i" horiz-adv-x="195" 
d="M130 350q1 -19 5.5 -36.5t6.5 -35.5q2 -17 4 -32t4 -31q3 -14 1.5 -28t0.5 -28q2 -16 3.5 -31t4.5 -31q3 -15 9 -32.5t4 -33.5q-2 -14 -13.5 -25.5t-25.5 -13.5q-17 -3 -30 11t-15 30q-8 85 -17 170t-17 170q-2 24 -5.5 48t-6.5 48q-4 25 -8.5 49.5t1.5 50.5q4 14 18 29
t31 11q15 -4 26 -14.5t12 -25.5q1 -9 1 -18.5v-19.5q0 -15 -0.5 -30t-0.5 -30v-19.5t1 -18.5q2 -20 3.5 -41t2.5 -42z" />
    <glyph glyph-name="j" unicode="j" horiz-adv-x="476" 
d="M460 521q-7 -12 -22 -19t-30 -5q-7 2 -13 6t-13 6q-11 3 -20 5t-16 -5q-4 -6 -3.5 -14.5t0.5 -15.5q-1 -35 2 -73t8 -74q4 -37 8.5 -74t8.5 -74q2 -19 3.5 -37t5.5 -36q2 -15 2.5 -32.5t-2.5 -31.5q-4 -14 -7.5 -32t-11.5 -30q-10 -14 -32.5 -18.5t-39.5 -9.5
q-23 -5 -47.5 -9t-47.5 -2q-20 3 -40 8t-39 10q-35 11 -56 33.5t-32 54.5q-4 11 -7 22.5t-3 23.5q0 18 10.5 30t39.5 8q24 -4 28 -16t7 -30q3 -13 12 -29t21 -24q15 -10 35 -12t37 -2q11 0 19 3t18 5q9 2 18.5 3t17.5 5q14 8 14.5 26t0.5 32q0 16 -2 34.5t-5 34.5
q-3 20 -6 38.5t-5 37.5q-2 24 -2.5 48t-2.5 47q-3 38 -4.5 76.5t-9.5 75.5q-5 22 -21.5 28.5t-34.5 11.5q-4 1 -17 1q-8 -1 -17 -1.5t-17 1.5q-14 2 -25.5 11t-16.5 21q-8 17 -5.5 29t17.5 25q14 12 28 9.5t31 -4.5q19 -3 37 -3.5t37 -2.5q11 -2 22.5 -3t22.5 -2
q11 -2 22.5 -2t22.5 -2t22.5 -5.5t23.5 -5.5q16 -4 30 -8.5t28 -13.5q13 -8 17.5 -23.5t-4.5 -28.5z" />
    <glyph glyph-name="k" unicode="k" horiz-adv-x="389" 
d="M248 351q-4 -16 -4 -33t4 -33.5t12 -33.5q8 -15 13.5 -31t13.5 -30q9 -15 18.5 -29t17.5 -31q7 -14 12.5 -29.5t11.5 -29.5q5 -12 14 -28.5t9 -29.5q-1 -16 -12 -26.5t-26 -12.5q-18 -2 -26 4.5t-15 23.5q-14 29 -29 59.5t-26 62.5q-5 17 -14.5 31t-17.5 29
q-5 8 -10.5 16t-11.5 14q-8 8 -10 8t-11 -3q-11 -4 -16 -14.5t-8 -20.5q-2 -12 -3.5 -21.5t-1.5 -21.5q-1 -11 1 -21.5t2 -21.5q1 -17 3.5 -32.5t4.5 -32.5q0 -7 1.5 -15t1.5 -16t-2 -15t-8 -13q-11 -10 -29 -10t-28 9q-14 12 -16.5 27.5t-4.5 31.5q-2 23 -0.5 47t-0.5 47
q-2 28 -5 55.5t-6 54.5q-5 30 -8.5 60t-5.5 60q-2 28 -4.5 55t-5.5 54q-2 19 -2.5 38.5t-1.5 38.5q0 20 1.5 35t22.5 26q12 6 29.5 4t28.5 -11q7 -6 8.5 -12.5t0 -13.5t-3.5 -14t-3 -13q-2 -20 -1 -40t1 -40q1 -23 6 -44t6 -44q0 -18 4.5 -28.5t8.5 -15.5q8 2 16 15t13 21
q8 13 18 27.5t18 26.5q8 13 11.5 18.5t6.5 9.5t7 10t13 22q17 29 32 58t29 60q7 15 12.5 26.5t23.5 13.5q12 1 26.5 -3.5t21.5 -17.5q7 -14 -0.5 -29.5t-15.5 -27.5q-10 -17 -17 -30t-15 -31q-5 -12 -10 -20.5t-9.5 -16t-9.5 -15t-11 -19.5q-11 -21 -22.5 -39.5t-16.5 -38.5
z" />
    <glyph glyph-name="l" unicode="l" horiz-adv-x="411" 
d="M52 260q-5 33 -7 66.5t-2 67.5q-1 8 -1 14.5v14.5v30q-2 15 -5.5 30t-5.5 30q-2 18 -3.5 35.5t-1.5 35.5q0 30 32 38q11 3 28.5 -1t22.5 -16t3 -29t-2 -30q0 -20 0.5 -38t0.5 -38q0 -24 3 -47t8 -47q5 -22 5.5 -44.5t1.5 -45.5q2 -23 4.5 -44t5.5 -43q2 -17 4 -35t6 -35
q5 -17 17 -21.5t29 -5.5q19 -1 37 -1.5t38 -0.5h42t43 1q13 1 33.5 -1t31.5 -10q10 -8 10 -25t-5 -28q-2 -6 -7 -15t-11 -11q-5 -2 -13 -0.5t-14 2.5q-16 2 -30.5 4.5t-29.5 6.5q-9 2 -17.5 2.5t-17.5 0.5q-11 0 -21 -0.5t-21 0.5q-16 1 -31.5 0.5t-32.5 -2.5q-10 -2 -18 -6
t-18 -6q-8 -2 -16 -3t-16 -3t-13.5 -2.5t-12.5 4.5q-5 5 -10 12t-7 12q-5 14 -2.5 30.5t2.5 30.5q-2 19 -3.5 37.5t-1.5 38.5q0 23 -3.5 45t-7.5 45z" />
    <glyph glyph-name="m" unicode="m" horiz-adv-x="526" 
d="M494 -11q-4 -4 -11.5 -8.5t-12.5 -6.5q-8 -2 -12.5 2.5t-10.5 9.5q-5 5 -10.5 9.5t-10.5 10.5q-4 6 -4 11.5v11.5q-1 16 -1 31t-2 31q-2 20 -3.5 41.5t-4.5 41.5q-3 23 -3 45t-2 45q-2 20 -2.5 39.5t-1.5 39.5q-2 -5 -3.5 -10.5t-3.5 -10.5q-11 -33 -23 -67t-20 -68
q-5 -19 -9.5 -37t-7.5 -38q-2 -8 -3.5 -16t-2.5 -17q0 -8 1 -17.5t-1 -18.5q-2 -21 -15.5 -25.5t-30.5 -2.5q-37 5 -50 39q-12 31 -28.5 62.5t-30.5 63.5q-8 17 -13.5 31.5t-14.5 30.5q-4 7 -12 20t-13 18q2 -16 3.5 -39.5t2.5 -40.5q2 -18 3 -36t2 -37q1 -14 1.5 -26
t0.5 -25q1 -14 2.5 -24.5t3.5 -19.5t3.5 -19.5t1.5 -24.5v-17t-5 -15q-3 -4 -11 -6t-13 -3q-14 -2 -24 -1t-20 15q-9 13 -9 25.5t2 27.5q1 10 0 17t-2.5 13t-3.5 12.5t-2 17.5q-2 54 -2.5 107t-11.5 106q-5 27 -7 54.5t-3.5 54.5t-3 54.5t-6.5 54.5q-4 20 -3.5 39.5
t-2.5 38.5q-2 17 0 31.5t13 27.5q10 12 31 12q15 0 29 -7.5t18 -21.5q2 -8 2 -18.5t-1 -20.5q1 -15 2 -29t4 -28q5 -17 9 -34t11 -34t12 -34.5t11 -35.5q8 -24 22.5 -45t23.5 -44q8 -20 18 -37t19 -36q2 -5 5 -13.5t7 -17.5t8.5 -15.5t10.5 -6.5q2 15 9 29.5t11 28.5
q5 18 9.5 35t7.5 35q6 33 18.5 66.5t23.5 66.5q5 18 11.5 33.5t8.5 34.5q2 17 2 35.5t2 35.5q1 5 1 9t1 9q-2 19 7 35q8 11 20 17.5t25 6.5q11 0 21.5 -5.5t15.5 -17.5q5 -10 3 -22t-3 -23q-1 -14 -1.5 -28.5t-0.5 -28.5q0 -21 3.5 -41.5t3.5 -42.5q0 -26 5 -49t3 -46
q0 -13 3 -25.5t5 -24.5q4 -20 5 -41.5t1 -42.5v-62q1 -16 1.5 -32t2.5 -33q2 -14 6 -26.5t6 -25.5q2 -12 -1.5 -25t-13.5 -22z" />
    <glyph glyph-name="n" unicode="n" horiz-adv-x="440" 
d="M59 201q-2 9 -2.5 19t-1.5 20q-2 23 -5.5 45.5t-4.5 45.5q-2 45 -10 88t-10 87q-1 14 -4 28.5t-5.5 29t-3 28.5t2.5 28q2 11 11 16.5t20 5.5t21 -4.5t16 -11.5q14 -15 17.5 -40t8.5 -45q5 -25 16.5 -49t25.5 -45q21 -29 38 -51.5t37 -52.5q4 -6 10 -14t12.5 -17
t12.5 -17.5t10 -14.5q5 -8 16 -24t16 -25t8.5 -6.5t5.5 10.5t2.5 18t-0.5 16q-2 15 -2.5 30t-2.5 30q-2 21 -3 40t-1.5 37t-1.5 37t-4 40q-2 19 -4.5 38t-3.5 38q-1 14 -1.5 29t4.5 28q3 10 11.5 19.5t19 15.5t22 6.5t20.5 -8.5q8 -8 7.5 -20.5t1.5 -22.5q2 -17 3 -34.5
t0 -34.5q-1 -8 -1 -16.5v-16.5q0 -14 0.5 -27t1.5 -27q1 -20 1 -40.5t3 -40.5q11 -80 15 -161q1 -32 4 -70.5t3 -71.5q0 -25 3 -48.5t7 -46.5q2 -16 -9 -23t-25 -7q-10 0 -19.5 3t-14.5 8q-15 15 -20.5 37t-14.5 41l-24 48t-25 48q-3 6 -8 14t-11 16.5t-11 16.5t-8 14
q-7 12 -14.5 21.5t-15.5 20.5q-8 12 -15.5 24.5t-16.5 24.5q-23 31 -29 31q-7 0 -7 -39q2 -15 3.5 -30t3.5 -30q3 -32 6.5 -70t6.5 -70q1 -8 2.5 -18.5t1.5 -20.5q0 -14 -5.5 -25.5t-22.5 -13.5q-24 -3 -41 11q-11 8 -11 20.5t-1 24.5v17.5t-2 16.5q-2 15 -3.5 33t-3.5 32
q-1 13 -3.5 27t-4.5 27z" />
    <glyph glyph-name="o" unicode="o" horiz-adv-x="471" 
d="M445 272q2 -29 0 -59.5t-4 -59.5q-2 -24 -6.5 -43t-24.5 -36q-35 -31 -80 -51t-95 -20q-27 0 -57 8q-41 11 -64.5 31t-37 46t-20 57.5t-13.5 66.5q-7 34 -12 75.5t-5 84.5q0 49 9 95.5t31.5 82.5t61 57.5t97.5 18.5q13 -1 29 -3.5t32 -6t31 -8.5t26 -11
q28 -16 42.5 -35.5t24.5 -48.5t18 -58t10 -60t3.5 -61.5t3.5 -61.5zM365 197q1 14 -0.5 27t-1.5 27q1 10 2 19t0 18q-2 10 -3 18.5t-1 19.5q1 11 -2 23t-2 23q0 13 -2.5 25.5t-5.5 24.5q-6 25 -16 48q-6 11 -10 21.5t-15 18.5t-19 14.5t-22 8.5q-12 2 -24 2t-24 2
q-13 2 -24 2t-22 -5q-14 -5 -22 -12t-16 -19q-8 -11 -10 -23t-4 -25q-3 -16 -5.5 -31.5t-4.5 -31.5q-2 -19 -0.5 -38t2.5 -39q0 -17 2 -34l4 -34t6.5 -33.5t9.5 -33.5q4 -13 8 -25t13 -23t20.5 -18t22.5 -16q9 -8 21.5 -10t23.5 -3q13 -1 24 2t21.5 8.5t20 11.5t20.5 11
q10 5 16.5 14t10.5 20t5.5 22.5t2.5 22.5z" />
    <glyph glyph-name="p" unicode="p" horiz-adv-x="393" 
d="M369 459q3 -17 5.5 -34t1.5 -34q-1 -16 -4.5 -32.5t-8.5 -31.5q-5 -14 -9.5 -29t-13.5 -27q-20 -26 -50 -45.5t-61 -30.5q-27 -8 -55 -21q-5 -2 -13 -5.5t-12 -7.5q-3 -5 -3 -13.5t-1 -14.5q-5 -32 -6 -63q-1 -14 3.5 -28.5t8.5 -28.5q8 -24 -4.5 -38t-31.5 -14
q-21 0 -37 17q-12 12 -12 27.5t-2 31.5q-1 8 -0.5 17t-0.5 17q-2 36 -7.5 73.5t-3.5 73.5q2 14 2.5 28.5t-1.5 28.5t-5 26t-3 26q-2 48 -3.5 96t-4.5 97q-1 14 -2.5 28t-9.5 25q-4 5 -9.5 9.5t-7.5 10.5q-3 7 -1.5 14.5t3.5 14.5q4 17 9.5 27t22.5 15t33 3.5t33 -3.5
q33 -3 65.5 -12t61.5 -26q17 -11 36 -18.5t33 -22.5q13 -13 23 -28.5t21 -29.5q13 -17 15.5 -32.5t5.5 -35.5zM281 334q5 15 8 28.5t3 28.5q0 31 -5 59t-28 51q-11 11 -24 18.5t-27 15.5q-13 8 -24 16.5t-25 16.5q-6 3 -12.5 5.5t-14.5 0.5q-10 -2 -11 -5t-1 -11
q-1 -14 -0.5 -28.5t1.5 -28.5q2 -28 1.5 -55.5t1.5 -55.5q1 -11 0.5 -21t0.5 -21l4 -18t3 -18q1 -12 4 -24t5 -24q2 -8 2.5 -12.5t9.5 -2.5q7 1 14.5 4.5t14.5 5.5q15 5 29.5 14t28.5 17q14 10 24.5 19t16.5 25z" />
    <glyph glyph-name="q" unicode="q" horiz-adv-x="468" 
d="M446 -82q2 -11 -7 -26t-18 -20q-11 -6 -27.5 -4.5t-24.5 12.5q-7 11 -14.5 24.5t-13.5 25.5q-7 14 -11 24t-19 18q-5 2 -12 2h-15q-11 -2 -21.5 -3.5t-24.5 -1.5q-69 -3 -121 34l-2 1q-16 12 -29 27t-23 34q-3 11 -5 21.5t-4 21.5q-5 18 -9.5 36t-7.5 36q-3 15 -5 36
t-3.5 44.5t-2 48.5t-0.5 49q0 21 0.5 39.5t1.5 32.5q2 35 8 70t17 67q6 16 16.5 28t23.5 20.5t28 15t29 11.5q18 7 36.5 11.5t37.5 7.5t39 7.5t39 -2.5q23 -9 50.5 -29.5t42.5 -40.5q10 -14 13.5 -28t5 -28.5t2.5 -30t4 -30.5q4 -19 7 -36.5t3 -37.5v-65q0 -20 0.5 -38
t2.5 -27q4 -18 5.5 -37t2.5 -37q1 -14 2 -27t1 -27q0 -23 -4 -42q-5 -24 -13.5 -43t-28.5 -39q-8 -8 -8 -17q1 -10 10.5 -22.5t15.5 -20.5q7 -9 17.5 -21t12.5 -24zM141 109q10 -29 36.5 -38t55.5 -11q10 0 17 4q1 9 -3 19t-10.5 19.5t-13.5 18t-11 15.5q-9 15 -9 29
q0 23 28 39q13 7 28 3.5t23 -17.5q3 -6 4.5 -14t3.5 -15q3 -7 6.5 -12.5t7.5 -12.5q3 -5 8 -13.5t11 -14t12.5 -4t11.5 16.5q5 16 6.5 32t2.5 33q1 15 0 39.5t-2 51t-2.5 51t-1.5 39.5q0 8 0.5 15.5t0.5 15.5q0 17 -2.5 31.5t-5.5 31.5l-4 30t-8 29q-5 11 -15 20t-19 17
q-11 10 -26 13.5t-29 5.5q-16 2 -29.5 -2t-27.5 -9t-30 -12t-24 -19t-14 -29.5t-8 -31.5q-3 -20 -4 -41.5t1 -41.5q1 -10 1 -29.5v-41.5v-42t2 -30q1 -12 3.5 -24.5t5.5 -25.5q2 -15 5.5 -29.5t7.5 -28.5q3 -18 10 -30z" />
    <glyph glyph-name="r" unicode="r" horiz-adv-x="430" 
d="M380 72q4 -7 11.5 -15.5t14.5 -17.5t12.5 -18.5t5.5 -18.5q0 -14 -16 -24q-15 -9 -28.5 -6.5t-24.5 11.5t-20.5 21.5t-16.5 23.5q-9 13 -17.5 25t-16.5 25q-8 14 -14 28t-14 26q-9 13 -22 16.5t-27 1.5q-13 -2 -30.5 -4t-27.5 -11q-4 -4 -6.5 -11.5t-3.5 -16.5t-1 -17.5
v-13.5q-2 -32 3 -60q1 -10 5 -23t-2 -23q-7 -11 -19.5 -9.5t-21.5 4.5q-21 8 -31 29q-9 24 -9 50q0 17 -2 34.5t-4 34.5q-1 23 -3.5 45.5t-4.5 45.5q-2 15 -2 30v30v40q0 12 -1 29.5t-2 36t-2.5 35.5t-2.5 29q-3 26 -3.5 52.5t-0.5 52.5q0 8 -1 16t-3 15q-2 3 -6.5 5.5
t-9.5 5.5t-9 7.5t-3 13.5q4 13 7.5 29t17.5 22q7 2 14.5 2t15.5 1q8 2 16 1.5t16 0.5q17 1 33.5 -2.5t33.5 -5.5q16 -3 33.5 -4.5t32.5 -8.5q33 -14 58.5 -35t47.5 -49q11 -14 22 -29t18 -31t15.5 -30t13.5 -31q4 -14 6 -34t2 -40q0 -23 -3 -44.5t-10 -36.5t-17 -25.5
t-22 -21.5q-10 -8 -21 -19t-9 -25q2 -13 9 -27.5t12 -26.5q8 -16 17.5 -31t17.5 -29zM319 339q3 16 0 35t-9.5 39t-15 38.5t-16.5 33.5q-6 11 -10.5 17t-9 10t-11 7.5t-15.5 10.5q-11 8 -24 15.5t-26 13.5q-5 2 -13.5 5t-18 5t-18 2t-12.5 -4t-6 -11.5t-2.5 -16t-0.5 -16.5
v-14q2 -21 4 -48t3.5 -54.5t3 -54.5t2.5 -48q1 -11 3 -21.5t3 -21.5q2 -18 9 -28t26 -6q14 4 29.5 8t29.5 9q17 7 30.5 17t26.5 23q11 12 22.5 25t15.5 30z" />
    <glyph glyph-name="s" unicode="s" horiz-adv-x="420" 
d="M278 629q6 -6 13.5 -16t13.5 -21.5t10 -24t4 -24.5q0 -22 -15 -34q-12 -8 -24 -10q-11 -2 -27 5t-19 18q-2 11 -1.5 21t-4.5 20q-5 11 -9.5 17t-15.5 7q-7 1 -14.5 1.5t-15.5 0.5q-19 0 -38 -4.5t-30 -18.5q-8 -10 -9 -21.5t-1 -23.5q0 -15 3 -28t12 -25
q14 -20 31.5 -38.5t35.5 -38.5q5 -5 11 -9.5t12 -9.5q31 -23 62.5 -41.5t63.5 -39.5q11 -8 23.5 -16t20.5 -19q8 -10 14 -20.5t12 -21.5q14 -26 21 -53t4 -57q-6 -62 -56 -97q-33 -23 -78 -31.5t-85 -6.5q-21 1 -44 6.5t-43 13.5q-33 12 -55 40q-14 17 -25 40t-3 46
q5 11 15 17.5t22 5.5q15 0 19 -3.5t11 -17.5q11 -20 32 -36t43 -22q8 -2 16.5 -3t16.5 -1q22 0 40 3q16 2 31 7t29 14q13 8 18 20t5 25q0 20 -9 40q-7 15 -17.5 27.5t-22.5 23.5q-18 17 -38 29t-40 27q-11 9 -23.5 16t-23.5 17q-23 17 -43 34q-20 18 -38.5 36.5t-35.5 40.5
q-14 18 -23.5 42t-14.5 47q-4 20 0 38.5t11 37.5q6 15 13 28t21 23q16 11 37 18.5t40 11.5q10 2 20.5 3t21.5 1q22 0 45 -5q17 -4 36.5 -11t31.5 -20z" />
    <glyph glyph-name="t" unicode="t" horiz-adv-x="413" 
d="M344 536q-7 1 -19 4t-25.5 6t-26 3.5t-18.5 -4.5q-6 -4 -7.5 -11t-1 -14.5t2 -15.5t1.5 -14q2 -18 1 -37t0 -38q2 -21 3.5 -42t3.5 -42q2 -36 4 -72.5t2 -73.5q0 -32 1 -64t4 -63q2 -14 5 -28.5t4 -28.5q1 -16 -8 -26t-23 -18q-11 -5 -29 0t-24 16q-7 14 -4.5 27.5
t2.5 27.5q0 38 -4.5 75.5t-7.5 75.5q-2 20 0 41t0 41q-2 25 -5.5 49t-3.5 49t2 49.5t-1 48.5q-6 37 -14 73q-1 7 -3 16t-7 14t-11.5 4.5t-14.5 -0.5q-14 0 -23.5 1.5t-23.5 -0.5q-15 -2 -30 0t-29 10q-15 11 -17 23.5t3 28.5t16.5 21.5t26.5 5.5q18 0 37 -4t33 -5t26.5 -0.5
t25.5 -2.5q9 -2 18 -4.5t18 -5.5q13 -3 30 -4.5t35 -2.5t35.5 -1.5t30.5 -1.5q18 -2 37 -4.5t27 -22.5q4 -11 7 -27.5t-7 -25.5q-9 -8 -26 -7.5t-28 1.5z" />
    <glyph glyph-name="u" unicode="u" 
d="M38 490q3 12 4.5 28t4.5 31.5t9 29t18 21.5q13 8 27.5 4t25.5 -14q12 -11 7.5 -26t-10.5 -26q-9 -18 -12 -41t-3 -46q0 -19 1 -36.5t2 -33.5q1 -17 0.5 -33t-0.5 -33v-19t1 -19q0 -10 1.5 -27t4 -35.5t5 -35.5t5.5 -26q3 -13 9.5 -29t15.5 -30t21.5 -23.5t28.5 -7.5
q14 1 31 6t32.5 12.5t28 18.5t17.5 26q8 19 10.5 49t2.5 62q0 26 -1 50t-3 41q-2 19 -6 39t-6 40q-2 18 -5 36t-6 37q-3 17 -5.5 34t-6.5 34q-4 14 -6 28t0 28q2 13 8.5 23t20.5 12q24 5 36 -19q5 -11 9.5 -26.5t7.5 -28.5q6 -25 12.5 -49t11.5 -48q8 -32 13 -64.5t7 -64.5
v-39v-49v-49t2 -39q3 -31 -8.5 -56t-28.5 -50q-11 -17 -29.5 -27t-35.5 -18q-25 -13 -55 -22.5t-59 -9.5q-32 0 -56 14q-17 10 -34.5 23.5t-26.5 32.5q-12 23 -23.5 47.5t-15.5 50.5q-2 14 -2 28.5t-2 28.5q-1 7 -1.5 22t-1.5 31t-1.5 30.5t-1.5 21.5q-2 26 0 51.5t3 51.5
q2 20 2.5 39t5.5 38z" />
    <glyph glyph-name="v" unicode="v" horiz-adv-x="392" 
d="M30 489q-5 14 -11.5 33.5t-8.5 38.5q-2 21 6 36.5t36 14.5q15 0 23.5 -7.5t13 -18t6.5 -22.5t4 -23q5 -23 14 -44.5t17 -44.5q8 -26 17 -51.5t17 -51.5q14 -49 29 -96.5t31 -94.5q3 4 5.5 16.5t4.5 27t3 28t1 20.5q4 46 11 91.5t17 90.5q5 24 6 48.5t3 48.5
q2 22 3.5 42.5t-0.5 41.5q-1 11 3 20.5t11.5 15.5t17.5 7.5t22 -3.5q8 -3 18 -12.5t13 -14.5q8 -11 7 -19t-2 -19q-9 -73 -20 -147.5t-25 -147.5q-6 -32 -8.5 -64.5t-4 -65t-4 -65t-7.5 -63.5q-1 -9 -5.5 -19t-11 -19t-15 -15.5t-17.5 -7.5q-20 -3 -41.5 9.5t-26.5 31.5
q-17 54 -32 107t-36 108q-17 44 -31 87.5t-27 88.5q-7 21 -13 41.5t-13 41.5z" />
    <glyph glyph-name="w" unicode="w" horiz-adv-x="519" 
d="M26 492q-2 14 -5 24.5t-7 23.5q-7 18 -8 34q0 8 1 15t5 13q7 12 19 19.5t25 5.5q29 -4 34 -41q2 -16 4.5 -31t6.5 -31q2 -9 3 -18.5t3 -19.5q3 -11 6 -25.5t5 -25.5q5 -21 7.5 -37.5t7.5 -42.5q3 -20 7 -37t9 -36l4 -16t5 -16q2 -8 5 -14.5t5 -14.5l10 20q5 11 5.5 17
t2.5 15q1 7 4.5 17.5t7 21.5t6.5 22t4 18q2 13 6 27t10.5 24t16 15t23.5 2q14 -4 21 -15t12 -25t13.5 -33.5t16.5 -33.5q8 -13 14 -24.5t15 -23.5q8 -11 17.5 -25t15.5 -25q5 6 7.5 16.5t3.5 22.5t1 24t1 20q5 69 5.5 136.5t-0.5 136.5q0 15 -0.5 32.5t10.5 28.5t24 11
t27 -5q17 -6 18.5 -15.5t0.5 -27.5q-1 -17 -1 -32.5t-1 -32.5q-3 -75 -3 -149q0 -55 -2.5 -109t-4.5 -108q-1 -21 2 -41t2 -41q1 -15 4.5 -31t1.5 -30q-3 -15 -13.5 -24t-23.5 -10q-14 -1 -23 7.5t-18 20.5q-8 12 -16 33t-15 35q-8 17 -16.5 31t-16.5 29l-18 28l-18 28
q-3 4 -7 11t-9 13.5t-10.5 11.5t-9.5 6q-5 1 -9.5 -7t-8 -18.5l-7 -21t-4.5 -15.5q-5 -15 -9 -30.5t-8 -31.5q-5 -16 -8.5 -30t-6.5 -30q-2 -13 -2.5 -30t-8.5 -26q-9 -10 -22.5 -9t-24.5 5q-13 5 -19 17t-9 26q-8 32 -16.5 63.5t-16.5 63.5q-11 46 -22 91.5t-19 92.5
q-4 24 -8 47l-8 46q-3 12 -4.5 24t-3.5 24z" />
    <glyph glyph-name="x" unicode="x" horiz-adv-x="461" 
d="M333 230q8 -11 12.5 -23t12.5 -23q7 -10 14.5 -19t14.5 -19q6 -9 11 -18t12 -18q13 -15 24.5 -29t19.5 -32q7 -16 4 -30t-19 -24q-14 -10 -28 -11.5t-25 14.5q-20 29 -40 56t-36 58q-7 14 -16.5 32.5t-20.5 29.5q-8 8 -15 6.5t-13 -8t-10 -15.5t-7 -15q-8 -18 -15 -36.5
t-12 -37.5q-4 -16 -4 -33.5t-2 -34.5q-4 -20 -17 -30.5t-28 -10.5t-28.5 10.5t-17.5 30.5q-5 19 1.5 37.5t14.5 35.5q10 20 16.5 40t14.5 41t16 41.5t15 40.5q5 16 10.5 32t-1.5 32q-8 16 -19.5 29.5t-19.5 28.5q-10 18 -20.5 35t-19.5 34q-10 19 -20.5 39.5t-23.5 37.5
q-14 19 -26 35.5t-18 39.5q-5 18 -5 29q0 10 3.5 19t13.5 20q10 13 29 13q8 0 15.5 -3t12.5 -10q10 -11 15.5 -31t10.5 -34q8 -20 19.5 -37.5t20.5 -36.5q9 -18 21 -36t24 -35q2 -3 6 -12t8.5 -18.5t9.5 -17.5t9 -8q5 0 10 7.5t9 17.5t7 19.5t4 13.5q7 20 15 38t18 37
q8 17 14 35t13 36q7 16 13 36.5t20 31.5q13 11 31 16.5t34 -1.5q8 -3 12 -11.5t5.5 -18t0.5 -19.5t-4 -16q-7 -18 -19.5 -33.5t-21.5 -32.5q-12 -23 -22.5 -46.5t-21.5 -46.5q-21 -41 -38 -87q-6 -19 -12 -35.5t-3 -36.5q3 -17 13 -29t19 -26z" />
    <glyph glyph-name="y" unicode="y" horiz-adv-x="433" 
d="M307 271q-8 -25 -13 -51t-8 -52q-2 -14 -2 -26.5v-26.5q0 -9 -0.5 -18t-0.5 -18q0 -8 2.5 -16t4.5 -16q2 -12 -4.5 -23.5t-17.5 -18t-23.5 -7.5t-22.5 7q-14 11 -18 29t-4 38q0 10 0.5 19.5t0.5 17.5q0 35 4 71.5t13 70.5q5 17 8.5 34t6.5 35q1 7 2 12t-4 11
q-3 5 -10 8.5t-12 7.5q-24 14 -42 31q-14 12 -29.5 22t-29.5 21q-13 11 -24 22.5t-22 22.5q-13 12 -23.5 23t-16.5 28q-5 13 -10.5 30t-0.5 31q6 16 20 22t28 4t23 -12q4 -5 6.5 -11.5t4.5 -11.5q9 -28 36 -49q9 -8 15 -12.5t14 -13.5q12 -13 25 -21t27 -19q6 -5 12 -8.5
t14 -5.5q5 -2 11.5 -5t10.5 -1q5 1 9 7t6.5 13.5t4.5 15t4 12.5q11 28 20.5 56.5t22.5 56.5q5 10 10.5 24.5t13 27.5t18 22t25.5 8q11 -1 24 -7.5t19 -17.5q7 -11 1.5 -23.5t-11.5 -22.5q-17 -26 -28.5 -52.5t-22.5 -55.5q-6 -17 -11 -34t-9 -34q-3 -11 -6.5 -21t-6.5 -21
t-4.5 -23t-5.5 -23q-6 -21 -11.5 -41.5t-12.5 -41.5z" />
    <glyph glyph-name="z" unicode="z" horiz-adv-x="374" 
d="M190 659q8 -1 16 -1t17 -1q15 -2 30.5 -4.5t30.5 -4.5q13 -2 27 -3.5t25 -10.5q9 -8 13.5 -20.5t0.5 -24.5q-5 -13 -14 -26t-15 -26q-7 -14 -13 -29l-12 -30q-7 -16 -10.5 -32t-8.5 -32q-6 -18 -13.5 -35.5t-14.5 -34.5q-14 -39 -26.5 -78.5t-28.5 -77.5
q-3 -8 -10.5 -23.5t-12.5 -32t-6 -31t9 -20.5t27.5 -4t28.5 2q14 1 28.5 2t28.5 1t27 0.5t24 -7.5q24 -18 17 -44q-5 -21 -20.5 -27t-34.5 -6q-12 0 -24 1t-23 1h-65q-16 0 -32.5 -2.5t-32.5 -0.5q-14 2 -26.5 5t-18.5 15t-5 25.5t1 27.5q0 15 4.5 28.5t8.5 27.5q4 15 7 30
t8 30q6 19 14.5 37t15.5 36q8 22 16.5 43t15.5 43q11 35 25 68.5t26 68.5q5 14 9 27t8 27q5 17 1 23t-20 11q-15 6 -29 6t-31 1q-15 1 -29 3t-29 1q-13 -1 -28.5 -2.5t-26.5 6.5q-8 6 -14 22.5t-5 25.5q2 13 17 21.5t26 12.5q14 5 26 3t26 -4q11 -2 20.5 -1t20.5 0
q8 -1 16 -3t17 -3z" />
    <glyph glyph-name="braceleft" unicode="{" horiz-adv-x="678" 
d="M315 412q-2 -20 -13 -34t-32 -15t-35.5 11.5t-29.5 25.5q-17 14 -34.5 23.5t-37.5 18.5q-18 7 -30.5 17t-3.5 33q6 16 21 29.5t34 9.5q7 -1 15 -6.5t15 -13t13.5 -15.5t11.5 -13t10.5 -13t13.5 -8q10 0 12.5 9.5t3.5 16.5q2 20 0 39t-3 38q0 10 -0.5 18.5t1 16t6 14.5
t13.5 14q6 4 15 5.5t17.5 -0.5t16 -7t10.5 -12q5 -11 -2 -24t-9 -24q-2 -18 0 -36.5t1 -36.5q-1 -20 1 -40.5t-1 -40.5zM606 340q-2 21 -18.5 26t-32.5 3q-5 0 -13.5 -0.5t-18.5 -0.5q-14 0 -25.5 1t-16.5 6q-7 6 -6 15t6.5 18.5t12 18t9.5 14.5q4 8 10.5 15.5t12.5 15.5
t9.5 16.5t3.5 18.5q0 9 -6 15.5t-14 10t-17.5 4.5t-16.5 -1q-11 -3 -17 -9t-10 -13.5t-6.5 -16.5t-6.5 -17q-11 -23 -24 -41.5t-28 -37.5q-10 -13 -14 -32t4 -34q7 -15 22 -17.5t29 -6.5q30 -9 62.5 -15.5t63.5 -5.5q20 0 34 13.5t12 36.5zM242 305q-20 7 -43 3t-45 -2
q-10 1 -21 2t-22 1t-21 -2t-18 -8q-16 -12 -16 -28q0 -18 19 -34q14 -11 28 -11q12 0 24.5 4t26.5 2q12 -2 14.5 -9t-0.5 -16t-9 -18l-10 -15q-6 -7 -14 -14.5t-15 -16.5t-11.5 -19t-1.5 -20q5 -20 25 -25t34 6q16 14 27.5 32t21.5 35q5 8 12.5 16t12.5 17q11 16 23.5 38
t12.5 42q0 13 -7 23.5t-27 16.5zM463 215q-15 9 -29.5 23.5t-31.5 20.5q-18 6 -30.5 0.5t-20.5 -17t-12 -27t-6 -30.5q-2 -17 -2.5 -33t-2.5 -33q-1 -12 -3.5 -24.5t-2.5 -25.5q0 -10 2.5 -19.5t10.5 -17.5q12 -14 29 -14q16 0 26 16q5 7 6 15.5t1 17.5q0 12 -1.5 24
t-1.5 24t3 23.5t11 20.5q12 4 20.5 -4.5t16.5 -14.5t17 -9.5t20 -6.5q13 -3 24 0.5t18 11t8.5 18.5t-5.5 24q-9 16 -29 22t-35 15z" />
    <glyph glyph-name="bar" unicode="|" horiz-adv-x="202" 
d="M67 308q-5 35 -7 69.5t-4 69.5q-2 33 -7.5 67t-10.5 66q-5 24 -11.5 55t-4.5 56q2 24 17.5 35.5t30.5 5.5q9 -3 14 -11.5t8 -19.5t4.5 -23t2.5 -24q6 -62 12 -123.5t14 -123.5q11 -74 15 -147.5t12 -147.5q3 -32 5.5 -62t5.5 -61q2 -25 6.5 -51t3.5 -49q-2 -26 -19 -34.5
t-32 5.5q-17 17 -17.5 40t-0.5 46q0 48 -6 95.5t-11 95.5q-5 43 -9.5 85.5t-10.5 85.5z" />
    <glyph glyph-name="braceright" unicode="}" horiz-adv-x="710" 
d="M454 390q-17 -9 -32 -9q-21 0 -34 17q-7 8 -9 17.5t-2 19.5q0 9 1 18t1 19q2 22 -1 42t-8 41q-5 18 -4 33.5t24 23.5q17 5 37 0.5t28 -21.5q3 -7 3 -16.5t-1.5 -20t-4 -20t-3.5 -16.5q-2 -7 -5 -16.5t1 -15.5q6 -8 15.5 -5t15.5 8q17 10 31.5 23t28.5 24q16 13 28.5 21
t35.5 1q7 -2 13 -8.5t9.5 -15t4 -17.5t-3.5 -16q-6 -10 -20.5 -12t-24.5 -7q-17 -9 -30.5 -21t-27.5 -23q-17 -11 -32 -24.5t-34 -23.5zM569 112q8 7 10 15t0 15.5t-7 15t-10 13.5q-4 4 -10.5 12.5t-13.5 18t-11.5 18.5t-4.5 14q1 10 9 14t18.5 5.5t21.5 1.5t18 1q9 1 18 0
t19 -1t19.5 2t17.5 9q7 6 9 14t0 17t-6.5 16.5t-10.5 12.5q-18 14 -34 8.5t-35 -9.5q-17 -2 -32.5 -3.5t-32.5 -1.5q-8 0 -15 0.5t-15 0.5q-16 0 -33.5 -8t-25.5 -23q-8 -14 -1 -28t12 -28q11 -29 25 -59t33 -54q15 -20 39 -20q17 0 29 11zM325 385q-7 21 -23.5 37.5
t-27.5 34.5q-11 17 -23 36.5t-31 25.5q-22 7 -34.5 -5t-14.5 -35q-1 -13 3.5 -21.5t11.5 -15t15 -13t13 -16.5q6 -11 2 -17t-13 -9t-20 -3.5t-18 -0.5q-10 1 -22.5 3t-25.5 2q-11 0 -19.5 -2.5t-14.5 -10.5q-14 -17 -6 -35t26 -23q15 -4 35 -4q12 0 24 1t23 2t21 0t21 0
q16 1 36 2.5t36.5 8.5t25 20.5t0.5 37.5zM383 154q-2 17 1.5 37.5t-2.5 37.5t-16.5 24.5t-24.5 7.5t-29.5 -6t-29.5 -14t-28 -17l-28 -18q-9 -6 -19.5 -11t-20.5 -11t-17 -14.5t-10 -20.5q-3 -17 6 -31t29 -12q15 1 28 11.5t26 21.5t26.5 19.5t30.5 6.5q11 -8 9 -19t-2 -21
q0 -11 2.5 -20.5t7.5 -19.5q5 -13 15.5 -20t21.5 -7q22 0 32 23q4 8 3.5 17.5t-2.5 19t-5 18.5t-4 18z" />
    <glyph glyph-name="asciitilde" unicode="~" horiz-adv-x="376" 
d="M113 372q28 8 48 -1t37 -32q8 -11 24 -21.5t31 -10.5q16 0 27 16q3 5 5 10t4 9.5t6.5 7t12.5 2.5q12 0 25 -14.5t14 -26.5q1 -14 -5 -27.5t-16.5 -25t-23.5 -20t-25 -12.5q-25 -8 -53 0t-48 25q-9 7 -16.5 17t-18.5 15q-7 3 -14.5 1t-13 -7t-9 -11.5t-2.5 -13.5
q1 -12 -7.5 -20.5t-22.5 -5.5l-17.5 5t-12.5 10q-2 4 -3.5 12.5t-3 17.5t-2 17.5t-0.5 13.5q0 14 8 25.5t20 20.5t26 15t26 9z" />
    <glyph glyph-name="exclamdown" unicode="&#xa1;" horiz-adv-x="219" 
d="M56.0107 -26.9609q3 14.999 7 44.4971q3.99902 29.498 7.99902 65.4961q4 35.9971 8.5 75.4951q4.49902 39.498 7.99902 75.4951q3.5 35.998 6 65.4961q2.49902 29.498 2.49902 44.4971q0 11 -1.49902 23.499q-1.5 12.499 -1.5 24.498q0 11 2 20.999
q1.99902 10 8.99902 17.999t18.499 13.999t22.498 4q19.999 -4 26.999 -22.999q6.99902 -18.999 6.99902 -43.9971q0 -28.998 -4.99902 -58.4961q-5 -29.498 -7 -43.498q-1 -9.99902 -2.5 -33.9971q-1.5 -23.999 -3.5 -54.9971q-1.99902 -30.998 -3.49902 -64.9961
t-3.5 -64.9961t-3 -54.4961q-1 -23.499 -1 -33.498q0 -11 -2 -23.999t-6.99902 -24.498q-5 -11.5 -14.499 -17.999q-9.5 -6.5 -23.499 -5.5q-13.999 2 -23.498 9q-9.5 6.99902 -15.5 17.498q-5.99902 10.5 -7.99902 22.499t0 22.999zM170.004 592.001
q8.99902 24.998 -6.5 33.998q-15.499 8.99902 -37.4971 9.99902q-20.999 0 -34.998 -8.99902q-13.999 -9 -27.998 -26.999q-7 -8.99902 -9.5 -17.998q-2.5 -9 1.5 -19.999q8 -22.999 32.998 -22.999q11.999 0 24.498 5q12.5 5 23.999 12.999q11.499 8 20.499 16.999
q8.99902 9 12.999 17.999z" />
    <glyph glyph-name="cent" unicode="&#xa2;" horiz-adv-x="297" 
d="M247 133q-8 -5 -17.5 -6.5t-19.5 -3.5q2 -11 4.5 -22t2.5 -22t-3.5 -20t-14.5 -11q-12 -2 -25.5 1.5t-21.5 14.5q-9 14 -14 52q-15 1 -30 6q-21 6 -36 19t-24.5 31t-15 39t-8.5 41q-2 12 -3 23.5t-1 22.5q0 10 0.5 19.5t1.5 19.5q1 18 5 35.5t16 31.5q13 13 29 24t33 18
q-2 17 -4 32t3 29q4 14 12.5 24.5t23.5 4.5q12 -5 22.5 -15.5t12.5 -24.5q2 -11 1.5 -22t-0.5 -23q20 -6 38 -22t27 -34q7 -16 7 -31q0 -12 -5 -23t-16 -16q-10 -5 -16.5 -2.5t-17.5 4.5q-7 2 -12 3t-8 8q-2 6 -1.5 13t-2.5 13q-3 7 -10 10t-15 3t-15.5 -2.5t-11.5 -7.5
q-12 -14 -17.5 -32t-5.5 -37q0 -9 1 -17.5t3 -16.5q6 -29 20.5 -50t46.5 -24q13 -2 27.5 -0.5t25.5 8.5q12 6 22 12t24 0q20 -9 20 -26q0 -15 -12 -29.5t-25 -21.5z" />
    <glyph glyph-name="sterling" unicode="&#xa3;" horiz-adv-x="395" 
d="M304 6q-17 -5 -29.5 -1.5t-27.5 11.5q-16 8 -31 11.5t-32 5.5q-31 4 -58 -13q-13 -8 -24.5 -16t-27.5 -3q-12 3 -25 13t-15 23q-2 14 5 26t17 21q10 10 24.5 35t26 54.5t18 58.5t1.5 47q2 1 -3 0.5t-7 -1.5q-16 -2 -32 -7t-32 -2q-11 2 -20 6t-14 14q-5 8 -6.5 18t3.5 19
q8 16 28 20t37 5q10 1 20 1h20q-3 5 -4 15t-2 14q-5 23 -13 45.5t-15 33.5q-8 11 -12.5 23.5t-5.5 24.5q-3 26 12 53.5t33 45.5q15 14 35 20.5t41 6.5q10 0 20 -1t20 -4q16 -5 30 -12.5t25 -20.5q19 -24 19 -52q0 -12 -4 -23.5t-15 -20.5q-7 -6 -17 -8.5t-20 -0.5
q-9 2 -12.5 6t-4 9.5t0.5 12t0 13.5q-2 16 -11 25t-25 5q-15 -3 -26.5 -12t-16.5 -23t-1 -30.5t11 -30.5q14 -26 19.5 -54.5t14.5 -54.5q16 1 30 3q17 2 35 3t35 1q14 0 27.5 -3t22.5 -15q20 -28 -1 -49q-11 -11 -23 -12.5t-28 -0.5q-20 1 -39 1h-39h-12q-1 -6 -0.5 -14.5
t0.5 -18.5v-16t-2 -17q-2 -17 -9.5 -35.5t-15.5 -35t-15.5 -29.5t-10.5 -19q8 -1 24.5 0t23.5 0q15 -1 27 -3t25 -7t24 -10t25 0q12 5 18 14.5t18 14.5q14 5 24.5 -1t14.5 -20q4 -18 -1 -31t-16 -23t-25.5 -17t-28.5 -11z" />
    <glyph glyph-name="yen" unicode="&#xa5;" horiz-adv-x="445" 
d="M436 342q2 -17 -10.5 -30t-26.5 -13q-14 -1 -36 -1t-48 -1q-2 -7 -3.5 -13t-3.5 -13q-4 -11 -6.5 -21t-4.5 -21q18 2 33.5 3t30.5 1q12 0 23.5 -3t18.5 -15q17 -28 -3 -49q-10 -11 -20 -12.5t-24 -0.5q-18 1 -35.5 1h-34.5q-1 -10 -1 -19.5v-19.5q0 -9 -0.5 -18t-0.5 -18
q0 -8 2.5 -16.5t3.5 -16.5q2 -12 -4.5 -23t-17 -18t-23 -7.5t-22.5 7.5q-15 11 -19 31t-4 40q0 8 0.5 16t0.5 16q0 10 0.5 19.5t1.5 19.5q-14 -2 -27.5 -7t-27.5 -2q-10 2 -17.5 6t-10.5 13q-4 9 -5 19t3 19q8 16 25.5 20t31.5 5q9 1 18.5 1t18.5 1q2 7 3 14t3 15l6 22t5 22
q-14 -1 -26 -1t-21 -1t-16.5 -1t-15.5 -4t-14.5 -7.5t-15.5 -3.5q-7 0 -15.5 3t-15 9t-8.5 14t3 19q6 11 11 17.5t10.5 10t12 6t16.5 5.5q14 5 31 5t34 -1q-8 6 -16 11.5t-16 13.5q-13 12 -28.5 22t-29.5 21q-13 10 -24 22t-23 23l-23 23t-16 28q-5 13 -11 30t-1 31
q7 16 20.5 22t28.5 4q14 -3 22 -12q4 -5 6.5 -11.5t4.5 -11.5q5 -14 13.5 -26.5t22.5 -22.5q10 -8 15.5 -13t13.5 -13q12 -13 25 -21t27 -19q11 -9 26 -14q5 -2 11.5 -5.5t11.5 -1.5t8.5 8t6.5 13.5t5 15t4 12.5q11 27 20 56t23 56q5 10 10.5 25t13 28t17.5 22t25 8
q12 -1 24.5 -7.5t18.5 -17.5q7 -12 2 -24t-12 -22q-17 -26 -28.5 -53t-21.5 -56q-6 -17 -11.5 -33.5t-9.5 -34.5q-2 -11 -5.5 -20.5t-6.5 -20.5q-2 -7 -3 -13t-3 -13q18 2 32.5 3.5t21.5 2.5q14 0 29 -9t17 -29z" />
    <glyph glyph-name="dieresis" unicode="&#xa8;" horiz-adv-x="303" 
d="M134 771q7 -12 4.5 -22t-11 -17.5t-21 -11.5t-24.5 -4q-21 0 -31 11q-26 25 -1 50q7 7 18 10.5t22 3.5q14 0 25.5 -5t18.5 -15zM264 776q-4 3 -9 2.5t-10 1.5q-11 2 -21 5.5t-22 -1.5q-10 -5 -16 -14t-8 -20q-1 -8 -1.5 -15t7.5 -12q7 -5 18.5 -8t19.5 -2q16 1 32.5 11
t17.5 27q0 5 -1.5 13t-6.5 12z" />
    <glyph glyph-name="copyright" unicode="&#xa9;" horiz-adv-x="631" 
d="M590 333q15 -47 15 -100q0 -33 -6 -63q-9 -41 -34.5 -65t-62.5 -42q-39 -19 -78.5 -38t-81.5 -31q-21 -6 -44 -6q-27 0 -54.5 7t-49.5 21q-35 21 -65.5 50t-53.5 63t-37 72.5t-16 80.5q-2 40 10 74t24 71q14 42 39.5 67t61.5 46q19 11 39.5 22.5t42.5 17.5q20 6 42.5 7.5
t44.5 1.5q17 0 34 -1t34 -6q11 -4 22 -9.5t22 -9.5q13 -5 23.5 -13.5t21.5 -16.5q14 -12 24.5 -26t20.5 -30q9 -16 15 -32.5t14 -33.5q9 -20 17.5 -39t15.5 -39zM530 213q4 19 -1.5 38.5t-7.5 38.5q-3 24 -13 45.5t-20 43.5q-6 13 -11 27t-12 27t-16 24t-23 17q-11 5 -22 5
t-20 7q-8 6 -11 16t-11 14t-20 4h-20q-8 -1 -15 -0.5t-15 -1.5q-24 -3 -50 -12t-47 -22q-17 -11 -29.5 -27.5t-24.5 -31.5q-25 -30 -34.5 -71t-6.5 -79q4 -39 23 -72.5t45 -62.5q12 -14 27 -28.5t31.5 -26.5t35 -19t38.5 -6q16 1 33.5 6t32.5 10q21 6 40 16.5t36 22.5
q14 10 29 19.5t28 20.5q6 5 13 11.5t10 14.5q3 7 5 15.5t3 16.5zM408 137q-14 -7 -30 -9t-31 -6q-17 -3 -32 -3q-26 0 -48 7q-21 6 -36 19.5t-25 31.5t-15.5 39t-8.5 42q-2 12 -3 23.5t-1 22.5q0 10 0.5 20t1.5 20q1 18 5 35.5t17 31.5q12 13 27 23.5t31.5 18t34.5 10
t36 -1.5q22 -5 41.5 -22t28.5 -36q8 -16 8 -34q0 -12 -5 -22.5t-16 -15.5t-17.5 -2.5t-17.5 4.5q-7 2 -12 3.5t-8 8.5q-2 6 -1.5 13t-2.5 13q-3 7 -10.5 10t-15.5 3q-19 0 -27 -10q-12 -14 -17.5 -32t-5.5 -37q0 -9 1 -18t3 -17q6 -29 21 -50.5t47 -24.5q13 -2 27.5 -0.5
t26.5 8.5t22 12.5t24 -0.5q20 -9 20 -26q0 -15 -12 -30t-25 -22z" />
    <glyph glyph-name="registered" unicode="&#xae;" horiz-adv-x="634" 
d="M592 329q15 -47 15 -100q0 -34 -6 -62q-8 -41 -34 -65t-62 -42q-39 -20 -78.5 -38.5t-81.5 -30.5q-21 -6 -45 -6q-28 0 -55 7t-49 21q-35 21 -65.5 49.5t-53 63t-36.5 73t-16 80.5q-2 40 10 74t24 71q13 42 39 67t61 46q20 11 40.5 22t41.5 17t43.5 8t43.5 2
q17 0 34.5 -1.5t33.5 -6.5q12 -4 22.5 -9t21.5 -10q13 -5 24 -13t21 -17q14 -11 25 -25.5t20 -29.5q9 -16 15.5 -32.5t14.5 -33.5q9 -20 17.5 -39t14.5 -40zM533 210q4 19 -2 38t-8 38q-3 24 -13 46l-20 44q-6 13 -11 27t-12 26.5t-16 23.5t-23 17q-10 5 -21 5.5t-20 7.5
q-8 6 -11 16t-12 14q-8 3 -19.5 3.5t-20.5 0.5q-8 -1 -14.5 -1t-14.5 -1q-25 -3 -51 -12t-47 -22q-17 -11 -29 -28t-24 -31q-26 -30 -35.5 -71t-5.5 -79q4 -39 23 -73t45 -63q12 -14 26.5 -28.5t31 -26t35 -18.5t39.5 -6q16 1 33 6t33 10q20 5 39 16t36 23q14 10 29 19.5
t28 20.5q7 5 14 11t10 14t4.5 16.5t3.5 16.5zM438 230q11 -8 17.5 -18.5t6.5 -21.5q0 -8 -4 -15.5t-15 -13.5q-14 -8 -24 -7t-18.5 7t-16 14.5t-16.5 15.5q-18 13 -37 13q-13 0 -22 -7t-8 -24q0 -5 0.5 -13t0.5 -16q0 -17 -6.5 -29t-31.5 -6q-14 3 -20.5 12.5t-9 21.5t-2 25
t1.5 23q1 29 -2 56t-7 56q-2 25 -6 48t-9 47q-6 29 6.5 43t43.5 19q16 3 30 3q38 0 69 -20q23 -14 41 -27.5t26 -40.5q5 -18 5 -35q0 -14 -3.5 -27.5t-12.5 -24.5q-8 -11 -12.5 -16t3.5 -19q6 -8 15 -13t17 -10zM324 293q14 5 25 17.5t12 27.5q0 17 -15.5 30t-30.5 21
q-4 2 -10.5 3.5t-10.5 -0.5q-5 -2 -5 -7t-1 -10q0 -12 1.5 -23.5t2.5 -23.5q0 -8 -1 -18.5t6 -18.5q5 -5 13.5 -2.5t13.5 4.5z" />
    <glyph glyph-name="acute" unicode="&#xb4;" horiz-adv-x="279" 
d="M181 762q-9 -5 -18 -11.5t-18 -12.5q-11 -8 -22 -14t-23 -12q-9 -5 -19 -6t-21 7q-25 19 -19 45q3 14 10.5 19t18.5 10q13 5 25.5 11t26.5 12q16 8 32.5 17.5t31.5 20.5q9 7 17.5 17t21.5 12q8 2 15 1.5t15 -8.5q7 -7 11.5 -15.5t5.5 -18.5q1 -17 -10.5 -27t-22.5 -16
q-14 -8 -29 -15.5t-29 -15.5z" />
    <glyph glyph-name="cedilla" unicode="&#xb8;" horiz-adv-x="241" 
d="M195 -10q6 -18 15.5 -34.5t8.5 -36.5q0 -19 -11 -33.5t-26 -25.5q-18 -13 -34.5 -14t-36.5 1q-19 2 -35.5 6t-30.5 18q-11 11 -16 27.5t8 29.5t30.5 7t31.5 -12q6 -3 15 -6.5t17 -3.5t13 4t3 16q-2 14 -12 22.5t-15 20.5q-5 11 -4 25t2 26q2 16 6.5 25.5t19.5 17.5
q8 5 21.5 8.5t21.5 -4.5q5 -5 6 -13.5t1 -18.5q0 -14 -1 -28.5t2 -23.5z" />
    <glyph glyph-name="questiondown" unicode="&#xbf;" horiz-adv-x="429" 
d="M171 654q-3 12 2 19.5t14 12.5t20.5 8t21.5 6q14 4 28.5 9t28.5 5q18 0 29 -11q19 -17 19 -32t-21 -28q-10 -6 -19.5 -9.5t-22.5 -5.5q-8 -1 -18 -1.5t-21 -0.5q-20 0 -38 5.5t-23 22.5zM47 112q3 -14 6 -28.5t8 -28.5q3 -13 13 -23t19 -20q17 -19 41 -30t49 -16
q17 -3 32.5 -1.5t32.5 4.5q10 2 20 4.5t19 6.5t16.5 9t16.5 8q20 8 38 17.5t34 23.5q14 14 21 25.5t6 31.5q-1 8 -1.5 13t-5.5 12q-4 5 -6 11t-6 11q-9 11 -24.5 7.5t-24.5 -11.5q-6 -5 -8.5 -10.5t-4.5 -11.5l-4 -12t-7 -10q-12 -12 -27 -19.5t-32 -12.5q-20 -6 -40 -6
q-21 0 -40.5 7t-36.5 23q-16 15 -16 33q0 17 11.5 33t25.5 29q22 21 47.5 41t48 42t37.5 48t17 59q1 25 -2 52t-15 49q-6 13 -14.5 22.5t-19.5 18.5q-11 10 -23 11.5t-26 3.5q-13 2 -23 0.5t-21 -11.5q-10 -9 -16 -20.5t-4 -25.5q3 -16 13 -16.5t24 -2.5q25 -3 37 -24
q9 -15 9 -31q0 -15 -6.5 -29t-16.5 -28q-20 -27 -46 -50l-52 -46q-12 -11 -26.5 -26t-26.5 -32.5t-18 -36t-2 -37.5z" />
    <glyph glyph-name="Agrave" unicode="&#xc0;" horiz-adv-x="387" 
d="M386 72q2 -18 -4 -30.5t-24 -20.5q-16 -6 -30.5 -1t-19.5 22t-5.5 34.5t-4.5 34.5q-4 15 -4.5 33.5t-7.5 32.5q-3 5 -10 7t-15 2t-16 -1t-13 -1q-16 -1 -32 -1t-31 -1q-17 -1 -33.5 -6.5t-21.5 -25.5q-4 -22 -8 -43.5t-9 -43.5q-3 -17 -8 -32.5t-20 -26.5
q-14 -11 -29 -5.5t-24 18.5q-11 17 -4 33t11 34q10 48 15.5 96t14.5 97q6 34 12 69.5t11 70.5q3 26 3 50.5t5 50.5q3 20 5 38.5t5 38.5q3 17 5 32.5t14 28.5q13 14 30 17.5t32 0.5q19 -3 27 -16t16 -29q10 -18 20.5 -35t18.5 -37q20 -52 38.5 -104.5t34.5 -106.5
q9 -28 16 -57t13 -59q2 -14 4 -26.5t6 -25.5q2 -9 5 -19t5 -19q4 -17 4.5 -34t2.5 -34zM215 257h14.5t16.5 2t13.5 6.5t5.5 14.5q-8 29 -14 58t-15 57q-13 38 -32 74q-7 14 -14.5 33t-21.5 27q-4 -5 -7 -13t-5 -18t-3 -19.5t-1 -15.5q-1 -18 -1 -35.5t-2 -36.5
q-1 -5 -3.5 -24t-4.5 -40.5t-3.5 -39.5t0.5 -20q4 -8 9.5 -8h13.5q13 -1 26.5 -1.5t27.5 -0.5zM127 852q10 -5 19.5 -10t19.5 -10q22 -10 45 -26q8 -5 14.5 -13.5t4.5 -22.5q-3 -30 -29 -38q-14 -5 -22 -1t-17 11q-11 9 -23 17.5t-23 16.5q-16 10 -32.5 19t-33.5 17
q-11 5 -23.5 7.5t-20.5 11.5q-6 7 -9 13.5t0 16.5q3 9 8 18t13 14q14 9 28.5 4.5t25.5 -11.5q14 -8 27.5 -17t27.5 -17z" />
    <glyph glyph-name="Aacute" unicode="&#xc1;" horiz-adv-x="387" 
d="M386 72q2 -18 -4 -30.5t-24 -20.5q-16 -6 -30.5 -1t-19.5 22t-5.5 34.5t-4.5 34.5q-4 15 -4.5 33.5t-7.5 32.5q-3 5 -10 7t-15 2t-16 -1t-13 -1q-16 -1 -32 -1t-31 -1q-17 -1 -33.5 -6.5t-21.5 -25.5q-4 -22 -8 -43.5t-9 -43.5q-3 -17 -8 -32.5t-20 -26.5
q-14 -11 -29 -5.5t-24 18.5q-11 17 -4 33t11 34q10 48 15.5 96t14.5 97q6 34 12 69.5t11 70.5q3 26 3 50.5t5 50.5q3 20 5 38.5t5 38.5q3 17 5 32.5t14 28.5q13 14 30 17.5t32 0.5q19 -3 27 -16t16 -29q10 -18 20.5 -35t18.5 -37q20 -52 38.5 -104.5t34.5 -106.5
q9 -28 16 -57t13 -59q2 -14 4 -26.5t6 -25.5q2 -9 5 -19t5 -19q4 -17 4.5 -34t2.5 -34zM215 257h14.5t16.5 2t13.5 6.5t5.5 14.5q-8 29 -14 58t-15 57q-13 38 -32 74q-7 14 -14.5 33t-21.5 27q-4 -5 -7 -13t-5 -18t-3 -19.5t-1 -15.5q-1 -18 -1 -35.5t-2 -36.5
q-1 -5 -3.5 -24t-4.5 -40.5t-3.5 -39.5t0.5 -20q4 -8 9.5 -8h13.5q13 -1 26.5 -1.5t27.5 -0.5zM250 772q-9 -5 -18 -11.5t-18 -12.5q-11 -8 -22 -14t-23 -12q-9 -5 -19 -6t-21 7q-25 19 -19 45q3 14 10.5 19t18.5 10q13 5 25.5 11t26.5 12q16 8 32.5 17.5t31.5 20.5
q9 7 17.5 17t21.5 12q8 2 15 1.5t15 -8.5q7 -7 11.5 -15.5t5.5 -18.5q1 -17 -10.5 -27t-22.5 -16q-14 -8 -29 -15.5t-29 -15.5z" />
    <glyph glyph-name="Acircumflex" unicode="&#xc2;" horiz-adv-x="387" 
d="M386 72q2 -18 -4 -30.5t-24 -20.5q-16 -6 -30.5 -1t-19.5 22t-5.5 34.5t-4.5 34.5q-4 15 -4.5 33.5t-7.5 32.5q-3 5 -10 7t-15 2t-16 -1t-13 -1q-16 -1 -32 -1t-31 -1q-17 -1 -33.5 -6.5t-21.5 -25.5q-4 -22 -8 -43.5t-9 -43.5q-3 -17 -8 -32.5t-20 -26.5
q-14 -11 -29 -5.5t-24 18.5q-11 17 -4 33t11 34q10 48 15.5 96t14.5 97q6 34 12 69.5t11 70.5q3 26 3 50.5t5 50.5q3 20 5 38.5t5 38.5q3 17 5 32.5t14 28.5q13 14 30 17.5t32 0.5q19 -3 27 -16t16 -29q10 -18 20.5 -35t18.5 -37q20 -52 38.5 -104.5t34.5 -106.5
q9 -28 16 -57t13 -59q2 -14 4 -26.5t6 -25.5q2 -9 5 -19t5 -19q4 -17 4.5 -34t2.5 -34zM215 257h14.5t16.5 2t13.5 6.5t5.5 14.5q-8 29 -14 58t-15 57q-13 38 -32 74q-7 14 -14.5 33t-21.5 27q-4 -5 -7 -13t-5 -18t-3 -19.5t-1 -15.5q-1 -18 -1 -35.5t-2 -36.5
q-1 -5 -3.5 -24t-4.5 -40.5t-3.5 -39.5t0.5 -20q4 -8 9.5 -8h13.5q13 -1 26.5 -1.5t27.5 -0.5zM75 803q5 12 12 29t14 28q8 11 26 12.5t29 -5.5t17 -17t14 -19q10 -12 20.5 -22.5t21.5 -23.5q4 -5 8.5 -10.5t8.5 -11.5t5.5 -12.5t-0.5 -13.5q-2 -6 -8.5 -10t-14.5 -6
t-16.5 -1.5t-13.5 3.5q-11 6 -17.5 20.5t-14.5 23.5q-2 3 -7.5 8.5t-10.5 6.5q-6 0 -9.5 -4.5t-6.5 -9.5q-8 -10 -15 -21t-12 -22q-2 -5 -6 -12t-10 -12.5t-13 -8.5t-15 1q-9 5 -17 20.5t-4 26.5q2 6 8 12.5t10 12.5q5 9 9.5 18.5t7.5 19.5z" />
    <glyph glyph-name="Atilde" unicode="&#xc3;" horiz-adv-x="387" 
d="M386 72q2 -18 -4 -30.5t-24 -20.5q-16 -6 -30.5 -1t-19.5 22t-5.5 34.5t-4.5 34.5q-4 15 -4.5 33.5t-7.5 32.5q-3 5 -10 7t-15 2t-16 -1t-13 -1q-16 -1 -32 -1t-31 -1q-17 -1 -33.5 -6.5t-21.5 -25.5q-4 -22 -8 -43.5t-9 -43.5q-3 -17 -8 -32.5t-20 -26.5
q-14 -11 -29 -5.5t-24 18.5q-11 17 -4 33t11 34q10 48 15.5 96t14.5 97q6 34 12 69.5t11 70.5q3 26 3 50.5t5 50.5q3 20 5 38.5t5 38.5q3 17 5 32.5t14 28.5q13 14 30 17.5t32 0.5q19 -3 27 -16t16 -29q10 -18 20.5 -35t18.5 -37q20 -52 38.5 -104.5t34.5 -106.5
q9 -28 16 -57t13 -59q2 -14 4 -26.5t6 -25.5q2 -9 5 -19t5 -19q4 -17 4.5 -34t2.5 -34zM215 257h14.5t16.5 2t13.5 6.5t5.5 14.5q-8 29 -14 58t-15 57q-13 38 -32 74q-7 14 -14.5 33t-21.5 27q-4 -5 -7 -13t-5 -18t-3 -19.5t-1 -15.5q-1 -18 -1 -35.5t-2 -36.5
q-1 -5 -3.5 -24t-4.5 -40.5t-3.5 -39.5t0.5 -20q4 -8 9.5 -8h13.5q13 -1 26.5 -1.5t27.5 -0.5zM0 818q3 7 11 12t17.5 9t19 7t16.5 5q32 8 54 -2t42 -35q10 -13 27.5 -25t34.5 -12q19 0 30 18q4 6 6 11.5t4.5 10.5t7.5 8t14 3q14 0 24.5 -10t11.5 -24q1 -15 -5 -28
t-17 -23.5t-24.5 -18t-26.5 -11.5q-28 -9 -59.5 0.5t-54.5 27.5q-10 8 -18.5 19.5t-20.5 16.5q-8 3 -16.5 1t-14.5 -7t-10 -13t-3 -15q1 -14 -8 -23.5t-26 -6.5q-13 3 -19 18q-8 21 -8 42q0 23 11 45z" />
    <glyph glyph-name="Adieresis" unicode="&#xc4;" horiz-adv-x="377" 
d="M386 72q2 -18 -4 -30.5t-24 -20.5q-16 -6 -30.5 -1t-19.5 22t-5.5 34.5t-4.5 34.5q-4 15 -4.5 33.5t-7.5 32.5q-3 5 -10 7t-15 2t-16 -1t-13 -1q-16 -1 -32 -1t-31 -1q-17 -1 -33.5 -6.5t-21.5 -25.5q-4 -22 -8 -43.5t-9 -43.5q-3 -17 -8 -32.5t-20 -26.5
q-14 -11 -29 -5.5t-24 18.5q-11 17 -4 33t11 34q10 48 15.5 96t14.5 97q6 34 12 69.5t11 70.5q3 26 3 50.5t5 50.5q3 20 5 38.5t5 38.5q3 17 5 32.5t14 28.5q13 14 30 17.5t32 0.5q19 -3 27 -16t16 -29q10 -18 20.5 -35t18.5 -37q20 -52 38.5 -104.5t34.5 -106.5
q9 -28 16 -57t13 -59q2 -14 4 -26.5t6 -25.5q2 -9 5 -19t5 -19q4 -17 4.5 -34t2.5 -34zM215 257h14.5t16.5 2t13.5 6.5t5.5 14.5q-8 29 -14 58t-15 57q-13 38 -32 74q-7 14 -14.5 33t-21.5 27q-4 -5 -7 -13t-5 -18t-3 -19.5t-1 -15.5q-1 -18 -1 -35.5t-2 -36.5
q-1 -5 -3.5 -24t-4.5 -40.5t-3.5 -39.5t0.5 -20q4 -8 9.5 -8h13.5q13 -1 26.5 -1.5t27.5 -0.5zM147 767q7 -12 4.5 -22t-11 -17.5t-21 -11.5t-24.5 -4q-21 0 -31 11q-26 25 -1 50q7 7 18 10.5t22 3.5q14 0 25.5 -5t18.5 -15zM277 772q-4 3 -9 2.5t-10 1.5q-11 2 -21 5.5
t-22 -1.5q-10 -5 -16 -14t-8 -20q-1 -8 -1.5 -15t7.5 -12q7 -5 18.5 -8t19.5 -2q16 1 32.5 11t17.5 27q0 5 -1.5 13t-6.5 12z" />
    <glyph glyph-name="Aring" unicode="&#xc5;" horiz-adv-x="376" 
d="M386 72q2 -18 -4 -30.5t-24 -20.5q-16 -6 -30.5 -1t-19.5 22t-5.5 34.5t-4.5 34.5q-4 15 -4.5 33.5t-7.5 32.5q-3 5 -10 7t-15 2t-16 -1t-13 -1q-16 -1 -32 -1t-31 -1q-17 -1 -33.5 -6.5t-21.5 -25.5q-4 -22 -8 -43.5t-9 -43.5q-3 -17 -8 -32.5t-20 -26.5
q-14 -11 -29 -5.5t-24 18.5q-11 17 -4 33t11 34q10 48 15.5 96t14.5 97q6 34 12 69.5t11 70.5q3 26 3 50.5t5 50.5q3 20 5 38.5t5 38.5q3 17 5 32.5t14 28.5q13 14 30 17.5t32 0.5q19 -3 27 -16t16 -29q10 -18 20.5 -35t18.5 -37q20 -52 38.5 -104.5t34.5 -106.5
q9 -28 16 -57t13 -59q2 -14 4 -26.5t6 -25.5q2 -9 5 -19t5 -19q4 -17 4.5 -34t2.5 -34zM215 257h14.5t16.5 2t13.5 6.5t5.5 14.5q-8 29 -14 58t-15 57q-13 38 -32 74q-7 14 -14.5 33t-21.5 27q-4 -5 -7 -13t-5 -18t-3 -19.5t-1 -15.5q-1 -18 -1 -35.5t-2 -36.5
q-1 -5 -3.5 -24t-4.5 -40.5t-3.5 -39.5t0.5 -20q4 -8 9.5 -8h13.5q13 -1 26.5 -1.5t27.5 -0.5zM257 860q10 -14 17 -31.5t2 -34.5q-4 -14 -14 -28.5t-24 -25.5t-30.5 -17t-32.5 -3q-19 3 -36.5 14t-29.5 27t-17 35t0 39q6 22 17.5 39t31.5 28q19 11 38 11q23 0 42.5 -15
t35.5 -38zM204 796q10 10 5 25.5t-17 23.5q-11 7 -23.5 -0.5t-15.5 -17.5q-5 -11 0 -20t16 -15q20 -12 35 4z" />
    <glyph glyph-name="AE" unicode="&#xc6;" horiz-adv-x="601" 
d="M591 52q8 -14 -0.5 -24.5t-18.5 -17.5q-10 -8 -22 -10.5t-24 -2.5q-15 0 -30 2.5t-29 4.5q-25 3 -52.5 -1t-53.5 -4q-25 0 -44.5 8t-29.5 33q-1 17 1.5 34.5t1.5 34.5q-1 15 -0.5 30.5t1.5 30.5q0 3 -1 5q-3 5 -9.5 7t-14.5 2t-16 -1t-13 -1q-16 -1 -37 -1t-36 -1
q-14 -1 -29 -3.5t-26 -17.5q-2 -3 -3 -5.5t-3 -5.5q-8 -22 -16 -43.5t-16 -43.5q-6 -17 -14 -32.5t-25 -26.5q-16 -11 -30 -5.5t-21 18.5q-8 17 2 33t17 33q19 49 33 97t31 97q13 34 25.5 69.5t22.5 70.5q8 26 13 50.5t13 50.5q7 19 12.5 38t11.5 38q6 17 11 33t20 29
t32.5 16.5t32.5 1.5q18 -3 35.5 0t41.5 -2q28 -5 57 -8t57 -8q25 -5 53 -5.5t49 -14.5q14 -11 14 -30q0 -17 -10.5 -32t-29.5 -16q-12 -1 -25 2t-26.5 7l-27 8t-26.5 5q-20 2 -38 3t-38 1q-7 -17 -7 -40q0 -20 3.5 -39t5.5 -36q2 -20 2 -40t1 -41q2 -11 3 -21t2 -21
q2 -9 2 -19t3 -19q4 -14 13.5 -17t25.5 -3q17 0 32.5 1t31.5 2q17 1 33 -0.5t32 0.5q15 2 26.5 -1t17.5 -21q6 -17 -2.5 -30.5t-24.5 -21.5q-19 -10 -42 -10q-19 0 -37.5 3.5t-35.5 3.5q-5 0 -13 0.5t-16 0.5t-14.5 -2t-7.5 -7q-6 -20 -6 -45q0 -16 3.5 -31t11 -26.5t20 -18
t30.5 -4.5q30 2 54.5 3t54.5 1q10 0 24 -9t21 -22zM276 273q0 17 -1 35.5t-2 40.5q-2 16 -4 31.5t-4 31.5q-6 27 -15 55q-5 14 -9 33t-17 27q-5 -5 -9 -13t-7.5 -18t-6.5 -19.5t-4 -15.5q-5 -18 -8 -35.5t-9 -36.5l-16 -60t-17 -60q0 -3 1 -5q2 -7 7.5 -7t13.5 -1
q13 0 26.5 -0.5t27.5 -0.5q13 0 30 1.5t23 16.5z" />
    <glyph glyph-name="Ccedilla" unicode="&#xc7;" horiz-adv-x="476" 
d="M311 -49q6 -18 15.5 -34.5t8.5 -36.5q0 -19 -11 -33.5t-26 -25.5q-18 -13 -34.5 -14t-36.5 1q-19 2 -35.5 6t-30.5 18q-11 11 -16 27.5t8 29.5t30.5 7t31.5 -12q6 -3 15 -6.5t17 -3.5t13 4t3 16q-2 14 -12 22.5t-15 20.5q-4 11 -4 27h-2q-14 0 -28 1t-29 5
q-14 4 -25.5 12t-22.5 17q-12 8 -22.5 15.5t-17.5 20.5q-13 25 -20 52.5t-12 54.5q-3 17 -9.5 34t-8.5 34q-2 18 -4.5 35t-3.5 35q0 8 -0.5 16.5t-0.5 18.5q0 38 1.5 81t0.5 73q-1 27 3 54.5t14 54t24.5 50t34.5 41.5q8 7 19 13q20 14 44 20.5t49 6.5q47 0 86 -21
q20 -11 37 -27t28 -37q8 -15 13.5 -37t5.5 -43q0 -17 -4 -28q-7 -16 -20.5 -25.5t-31.5 -7.5q-14 2 -23 13q-6 7 -4.5 15t-0.5 16q-2 18 -5 34.5t-16 29.5q-10 11 -22 21.5t-27 10.5q-9 0 -20 -2t-22 -5t-20.5 -8.5t-14.5 -12.5q-12 -17 -24 -42.5t-16 -45.5
q-3 -15 -4 -32.5t-1 -37.5q0 -47 4 -96t6 -86q1 -19 2.5 -41.5t6 -45.5t12 -44t19.5 -36q17 -23 41.5 -30t50.5 -7q10 0 19.5 0.5t19.5 1.5q16 2 36.5 6.5t33.5 14.5q6 5 9 13t4 17.5t1 19t1 17.5l3 33q0 8 -1 16.5t4 16.5q8 13 25.5 15.5t29.5 -5.5q13 -9 15 -27.5t4 -32.5
q1 -10 1.5 -19t0.5 -18q0 -17 -3 -33q-4 -17 -7.5 -33t-15.5 -30q-11 -13 -28 -23t-33 -18q-15 -8 -30.5 -11.5t-31.5 -5.5v-8t2 -7z" />
    <glyph glyph-name="Egrave" unicode="&#xc8;" horiz-adv-x="378" 
d="M343 12q-10 -8 -21.5 -10.5t-23.5 -2.5q-15 0 -30.5 2.5t-29.5 4.5q-17 2 -46 -3t-56 -5q-20 0 -34 5.5t-19 20.5q-2 9 0 21t2 20q0 11 -1 20.5t-3 20.5q-6 51 -14.5 102.5t-16.5 103t-14 103.5t-6 104q0 29 -4 58.5t0 55.5t17.5 34t31.5 8q16 0 31 -3q28 -5 57.5 -8
t56.5 -8q26 -5 53.5 -5.5t48.5 -14.5q14 -10 14 -30q0 -17 -10.5 -31.5t-29.5 -16.5q-12 -1 -24.5 2t-26 7l-27 8t-26.5 5q-20 2 -38.5 3t-38.5 1q-7 -17 -7 -39q0 -20 3.5 -39.5t5.5 -36.5q3 -29 2 -59.5t4 -59.5q2 -11 3.5 -21t3.5 -21q5 -14 14 -17t25 -3q17 0 32.5 1
t32.5 2q16 1 32 -0.5t32 0.5q15 2 27 -1t18 -21q6 -17 -3 -30.5t-24 -21.5q-19 -10 -42 -10q-19 0 -38 3.5t-36 3.5q-5 0 -12 0.5t-15 0t-14.5 -2.5t-9.5 -6q-5 -14 -1.5 -30.5t4.5 -30.5q2 -17 3.5 -29t6.5 -20.5t16 -12t31 -2.5q30 2 54 3t54 1q10 0 24 -8.5t21 -22.5
q8 -14 -0.5 -24.5t-18.5 -17.5zM157 825q10 -5 19.5 -10t19.5 -10q22 -10 45 -26q8 -5 14.5 -13.5t4.5 -22.5q-3 -30 -29 -38q-14 -5 -22 -1t-17 11q-11 9 -23 17.5t-23 16.5q-16 10 -32.5 19t-33.5 17q-11 5 -23.5 7.5t-20.5 11.5q-6 7 -9 13.5t0 16.5q3 9 8 18t13 14
q14 9 28.5 4.5t25.5 -11.5q14 -8 27.5 -17t27.5 -17z" />
    <glyph glyph-name="Eacute" unicode="&#xc9;" horiz-adv-x="378" 
d="M343 12q-10 -8 -21.5 -10.5t-23.5 -2.5q-15 0 -30.5 2.5t-29.5 4.5q-17 2 -46 -3t-56 -5q-20 0 -34 5.5t-19 20.5q-2 9 0 21t2 20q0 11 -1 20.5t-3 20.5q-6 51 -14.5 102.5t-16.5 103t-14 103.5t-6 104q0 29 -4 58.5t0 55.5t17.5 34t31.5 8q16 0 31 -3q28 -5 57.5 -8
t56.5 -8q26 -5 53.5 -5.5t48.5 -14.5q14 -10 14 -30q0 -17 -10.5 -31.5t-29.5 -16.5q-12 -1 -24.5 2t-26 7l-27 8t-26.5 5q-20 2 -38.5 3t-38.5 1q-7 -17 -7 -39q0 -20 3.5 -39.5t5.5 -36.5q3 -29 2 -59.5t4 -59.5q2 -11 3.5 -21t3.5 -21q5 -14 14 -17t25 -3q17 0 32.5 1
t32.5 2q16 1 32 -0.5t32 0.5q15 2 27 -1t18 -21q6 -17 -3 -30.5t-24 -21.5q-19 -10 -42 -10q-19 0 -38 3.5t-36 3.5q-5 0 -12 0.5t-15 0t-14.5 -2.5t-9.5 -6q-5 -14 -1.5 -30.5t4.5 -30.5q2 -17 3.5 -29t6.5 -20.5t16 -12t31 -2.5q30 2 54 3t54 1q10 0 24 -8.5t21 -22.5
q8 -14 -0.5 -24.5t-18.5 -17.5zM280 765q-9 -5 -18 -11.5t-18 -12.5q-11 -8 -22 -14t-23 -12q-9 -5 -19 -6t-21 7q-25 19 -19 45q3 14 10.5 19t18.5 10q13 5 25.5 11t26.5 12q16 8 32.5 17.5t31.5 20.5q9 7 17.5 17t21.5 12q8 2 15 1.5t15 -8.5q7 -7 11.5 -15.5t5.5 -18.5
q1 -17 -10.5 -27t-22.5 -16q-14 -8 -29 -15.5t-29 -15.5z" />
    <glyph glyph-name="Ecircumflex" unicode="&#xca;" horiz-adv-x="378" 
d="M343 12q-10 -8 -21.5 -10.5t-23.5 -2.5q-15 0 -30.5 2.5t-29.5 4.5q-17 2 -46 -3t-56 -5q-20 0 -34 5.5t-19 20.5q-2 9 0 21t2 20q0 11 -1 20.5t-3 20.5q-6 51 -14.5 102.5t-16.5 103t-14 103.5t-6 104q0 29 -4 58.5t0 55.5t17.5 34t31.5 8q16 0 31 -3q28 -5 57.5 -8
t56.5 -8q26 -5 53.5 -5.5t48.5 -14.5q14 -10 14 -30q0 -17 -10.5 -31.5t-29.5 -16.5q-12 -1 -24.5 2t-26 7l-27 8t-26.5 5q-20 2 -38.5 3t-38.5 1q-7 -17 -7 -39q0 -20 3.5 -39.5t5.5 -36.5q3 -29 2 -59.5t4 -59.5q2 -11 3.5 -21t3.5 -21q5 -14 14 -17t25 -3q17 0 32.5 1
t32.5 2q16 1 32 -0.5t32 0.5q15 2 27 -1t18 -21q6 -17 -3 -30.5t-24 -21.5q-19 -10 -42 -10q-19 0 -38 3.5t-36 3.5q-5 0 -12 0.5t-15 0t-14.5 -2.5t-9.5 -6q-5 -14 -1.5 -30.5t4.5 -30.5q2 -17 3.5 -29t6.5 -20.5t16 -12t31 -2.5q30 2 54 3t54 1q10 0 24 -8.5t21 -22.5
q8 -14 -0.5 -24.5t-18.5 -17.5zM131 822q5 12 12 29t14 28q8 11 26 12.5t29 -5.5t17 -17t14 -19q10 -12 20.5 -22.5t21.5 -23.5q4 -5 8.5 -10.5t8.5 -11.5t5.5 -12.5t-0.5 -13.5q-2 -6 -8.5 -10t-14.5 -6t-16.5 -1.5t-13.5 3.5q-11 6 -17.5 20.5t-14.5 23.5q-2 3 -7.5 8.5
t-10.5 6.5q-6 0 -9.5 -4.5t-6.5 -9.5q-8 -10 -15 -21t-12 -22q-2 -5 -6 -12t-10 -12.5t-13 -8.5t-15 1q-9 5 -17 20.5t-4 26.5q2 6 8 12.5t10 12.5q5 9 9.5 18.5t7.5 19.5z" />
    <glyph glyph-name="Edieresis" unicode="&#xcb;" horiz-adv-x="378" 
d="M343 12q-10 -8 -21.5 -10.5t-23.5 -2.5q-15 0 -30.5 2.5t-29.5 4.5q-17 2 -46 -3t-56 -5q-20 0 -34 5.5t-19 20.5q-2 9 0 21t2 20q0 11 -1 20.5t-3 20.5q-6 51 -14.5 102.5t-16.5 103t-14 103.5t-6 104q0 29 -4 58.5t0 55.5t17.5 34t31.5 8q16 0 31 -3q28 -5 57.5 -8
t56.5 -8q26 -5 53.5 -5.5t48.5 -14.5q14 -10 14 -30q0 -17 -10.5 -31.5t-29.5 -16.5q-12 -1 -24.5 2t-26 7l-27 8t-26.5 5q-20 2 -38.5 3t-38.5 1q-7 -17 -7 -39q0 -20 3.5 -39.5t5.5 -36.5q3 -29 2 -59.5t4 -59.5q2 -11 3.5 -21t3.5 -21q5 -14 14 -17t25 -3q17 0 32.5 1
t32.5 2q16 1 32 -0.5t32 0.5q15 2 27 -1t18 -21q6 -17 -3 -30.5t-24 -21.5q-19 -10 -42 -10q-19 0 -38 3.5t-36 3.5q-5 0 -12 0.5t-15 0t-14.5 -2.5t-9.5 -6q-5 -14 -1.5 -30.5t4.5 -30.5q2 -17 3.5 -29t6.5 -20.5t16 -12t31 -2.5q30 2 54 3t54 1q10 0 24 -8.5t21 -22.5
q8 -14 -0.5 -24.5t-18.5 -17.5zM171 769q7 -12 4.5 -22t-11 -17.5t-21 -11.5t-24.5 -4q-21 0 -31 11q-26 25 -1 50q7 7 18 10.5t22 3.5q14 0 25.5 -5t18.5 -15zM301 774q-4 3 -9 2.5t-10 1.5q-11 2 -21 5.5t-22 -1.5q-10 -5 -16 -14t-8 -20q-1 -8 -1.5 -15t7.5 -12
q7 -5 18.5 -8t19.5 -2q16 1 32.5 11t17.5 27q0 5 -1.5 13t-6.5 12z" />
    <glyph glyph-name="Igrave" unicode="&#xcc;" horiz-adv-x="443" 
d="M301 19q-16 2 -33.5 3.5t-33.5 0.5q-17 0 -32.5 1.5t-32.5 1.5q-14 0 -26 -4.5t-26 -9.5t-24.5 -4t-23.5 8t-21 16.5t-6 26.5q2 14 10.5 26.5t23.5 13.5q14 1 28 -1.5t28 -2.5q10 0 25.5 1.5t22.5 10.5q6 8 4 24t-1 27q1 14 -3 27.5t-6 27.5q-6 34 -8 68t-2 68v68.5
t-4 68.5q-2 12 -1 27.5t-4 27.5q-5 13 -12.5 18.5t-21.5 7.5q-12 2 -22.5 5.5t-23.5 3.5q-7 1 -16 1t-17 1q-7 1 -14 -1.5t-13 -0.5q-11 2 -15.5 11.5t-4.5 20.5q0 15 6.5 30t16.5 20q11 5 26 6.5t26 -0.5q19 -3 38.5 -5t38.5 -4q33 -3 65.5 -7t65.5 -6q15 -1 29.5 -2.5
t26.5 -6t21.5 -14t14.5 -25.5q4 -11 0 -24t-16 -18q-12 -6 -25 -4t-27 3q-11 1 -28.5 2t-27.5 -4q-13 -7 -12.5 -20.5t2.5 -25.5q8 -77 11 -154t14 -154q2 -14 2 -29t2 -29q2 -15 7 -25.5t20 -11.5q15 0 29 -2t28 -2q15 -1 26.5 -1t22.5 -14q8 -10 9 -25t-4 -26
q-7 -15 -19.5 -18.5t-26.5 -3.5q-16 0 -28.5 4.5t-27.5 6.5zM159 822q10 -5 19.5 -10t19.5 -10q22 -10 45 -26q8 -5 14.5 -13.5t4.5 -22.5q-3 -30 -29 -38q-14 -5 -22 -1t-17 11q-11 9 -23 17.5t-23 16.5q-16 10 -32.5 19t-33.5 17q-11 5 -23.5 7.5t-20.5 11.5q-6 7 -9 13.5
t0 16.5q3 9 8 18t13 14q14 9 28.5 4.5t25.5 -11.5q14 -8 27.5 -17t27.5 -17z" />
    <glyph glyph-name="Iacute" unicode="&#xcd;" horiz-adv-x="443" 
d="M301 19q-16 2 -33.5 3.5t-33.5 0.5q-17 0 -32.5 1.5t-32.5 1.5q-14 0 -26 -4.5t-26 -9.5t-24.5 -4t-23.5 8t-21 16.5t-6 26.5q2 14 10.5 26.5t23.5 13.5q14 1 28 -1.5t28 -2.5q10 0 25.5 1.5t22.5 10.5q6 8 4 24t-1 27q1 14 -3 27.5t-6 27.5q-6 34 -8 68t-2 68v68.5
t-4 68.5q-2 12 -1 27.5t-4 27.5q-5 13 -12.5 18.5t-21.5 7.5q-12 2 -22.5 5.5t-23.5 3.5q-7 1 -16 1t-17 1q-7 1 -14 -1.5t-13 -0.5q-11 2 -15.5 11.5t-4.5 20.5q0 15 6.5 30t16.5 20q11 5 26 6.5t26 -0.5q19 -3 38.5 -5t38.5 -4q33 -3 65.5 -7t65.5 -6q15 -1 29.5 -2.5
t26.5 -6t21.5 -14t14.5 -25.5q4 -11 0 -24t-16 -18q-12 -6 -25 -4t-27 3q-11 1 -28.5 2t-27.5 -4q-13 -7 -12.5 -20.5t2.5 -25.5q8 -77 11 -154t14 -154q2 -14 2 -29t2 -29q2 -15 7 -25.5t20 -11.5q15 0 29 -2t28 -2q15 -1 26.5 -1t22.5 -14q8 -10 9 -25t-4 -26
q-7 -15 -19.5 -18.5t-26.5 -3.5q-16 0 -28.5 4.5t-27.5 6.5zM273 758q-9 -5 -18 -11.5t-18 -12.5q-11 -8 -22 -14t-23 -12q-9 -5 -19 -6t-21 7q-25 19 -19 45q3 14 10.5 19t18.5 10q13 5 25.5 11t26.5 12q16 8 32.5 17.5t31.5 20.5q9 7 17.5 17t21.5 12q8 2 15 1.5t15 -8.5
q7 -7 11.5 -15.5t5.5 -18.5q1 -17 -10.5 -27t-22.5 -16q-14 -8 -29 -15.5t-29 -15.5z" />
    <glyph glyph-name="Icircumflex" unicode="&#xce;" horiz-adv-x="443" 
d="M301 19q-16 2 -33.5 3.5t-33.5 0.5q-17 0 -32.5 1.5t-32.5 1.5q-14 0 -26 -4.5t-26 -9.5t-24.5 -4t-23.5 8t-21 16.5t-6 26.5q2 14 10.5 26.5t23.5 13.5q14 1 28 -1.5t28 -2.5q10 0 25.5 1.5t22.5 10.5q6 8 4 24t-1 27q1 14 -3 27.5t-6 27.5q-6 34 -8 68t-2 68v68.5
t-4 68.5q-2 12 -1 27.5t-4 27.5q-5 13 -12.5 18.5t-21.5 7.5q-12 2 -22.5 5.5t-23.5 3.5q-7 1 -16 1t-17 1q-7 1 -14 -1.5t-13 -0.5q-11 2 -15.5 11.5t-4.5 20.5q0 15 6.5 30t16.5 20q11 5 26 6.5t26 -0.5q19 -3 38.5 -5t38.5 -4q33 -3 65.5 -7t65.5 -6q15 -1 29.5 -2.5
t26.5 -6t21.5 -14t14.5 -25.5q4 -11 0 -24t-16 -18q-12 -6 -25 -4t-27 3q-11 1 -28.5 2t-27.5 -4q-13 -7 -12.5 -20.5t2.5 -25.5q8 -77 11 -154t14 -154q2 -14 2 -29t2 -29q2 -15 7 -25.5t20 -11.5q15 0 29 -2t28 -2q15 -1 26.5 -1t22.5 -14q8 -10 9 -25t-4 -26
q-7 -15 -19.5 -18.5t-26.5 -3.5q-16 0 -28.5 4.5t-27.5 6.5zM156 815q5 12 12 29t14 28q8 11 26 12.5t29 -5.5t17 -17t14 -19q10 -12 20.5 -22.5t21.5 -23.5q4 -5 8.5 -10.5t8.5 -11.5t5.5 -12.5t-0.5 -13.5q-2 -6 -8.5 -10t-14.5 -6t-16.5 -1.5t-13.5 3.5q-11 6 -17.5 20.5
t-14.5 23.5q-2 3 -7.5 8.5t-10.5 6.5q-6 0 -9.5 -4.5t-6.5 -9.5q-8 -10 -15 -21t-12 -22q-2 -5 -6 -12t-10 -12.5t-13 -8.5t-15 1q-9 5 -17 20.5t-4 26.5q2 6 8 12.5t10 12.5q5 9 9.5 18.5t7.5 19.5z" />
    <glyph glyph-name="Idieresis" unicode="&#xcf;" horiz-adv-x="443" 
d="M301 19q-16 2 -33.5 3.5t-33.5 0.5q-17 0 -32.5 1.5t-32.5 1.5q-14 0 -26 -4.5t-26 -9.5t-24.5 -4t-23.5 8t-21 16.5t-6 26.5q2 14 10.5 26.5t23.5 13.5q14 1 28 -1.5t28 -2.5q10 0 25.5 1.5t22.5 10.5q6 8 4 24t-1 27q1 14 -3 27.5t-6 27.5q-6 34 -8 68t-2 68v68.5
t-4 68.5q-2 12 -1 27.5t-4 27.5q-5 13 -12.5 18.5t-21.5 7.5q-12 2 -22.5 5.5t-23.5 3.5q-7 1 -16 1t-17 1q-7 1 -14 -1.5t-13 -0.5q-11 2 -15.5 11.5t-4.5 20.5q0 15 6.5 30t16.5 20q11 5 26 6.5t26 -0.5q19 -3 38.5 -5t38.5 -4q33 -3 65.5 -7t65.5 -6q15 -1 29.5 -2.5
t26.5 -6t21.5 -14t14.5 -25.5q4 -11 0 -24t-16 -18q-12 -6 -25 -4t-27 3q-11 1 -28.5 2t-27.5 -4q-13 -7 -12.5 -20.5t2.5 -25.5q8 -77 11 -154t14 -154q2 -14 2 -29t2 -29q2 -15 7 -25.5t20 -11.5q15 0 29 -2t28 -2q15 -1 26.5 -1t22.5 -14q8 -10 9 -25t-4 -26
q-7 -15 -19.5 -18.5t-26.5 -3.5q-16 0 -28.5 4.5t-27.5 6.5zM199 759q7 -12 4.5 -22t-11 -17.5t-21 -11.5t-24.5 -4q-21 0 -31 11q-26 25 -1 50q7 7 18 10.5t22 3.5q14 0 25.5 -5t18.5 -15zM329 764q-4 3 -9 2.5t-10 1.5q-11 2 -21 5.5t-22 -1.5q-10 -5 -16 -14t-8 -20
q-1 -8 -1.5 -15t7.5 -12q7 -5 18.5 -8t19.5 -2q16 1 32.5 11t17.5 27q0 5 -1.5 13t-6.5 12z" />
    </font>
</defs>
</svg>
