<?xml version="1.0" standalone="no"?>
<!DOCTYPE svg PUBLIC "-//W3C//DTD SVG 20010904//EN"
 "http://www.w3.org/TR/2001/REC-SVG-20010904/DTD/svg10.dtd">
<svg version="1.0" xmlns="http://www.w3.org/2000/svg"
 width="600.000000pt" height="600.000000pt" viewBox="0 0 600.000000 600.000000"
 preserveAspectRatio="xMidYMid meet">
<metadata>
Created by potrace 1.14, written by Peter Selinger 2001-2017
</metadata>
<g transform="translate(0.000000,600.000000) scale(0.100000,-0.100000)"
fill="#000000" stroke="none">
<path d="M0 3000 l0 -3000 3000 0 3000 0 0 3000 0 3000 -3000 0 -3000 0 0
-3000z m2067 1715 c134 -43 235 -107 353 -225 117 -117 194 -234 232 -351 l21
-67 306 205 c168 114 388 262 489 331 101 68 185 122 187 120 1 -1 175 -246
385 -543 261 -368 379 -544 374 -552 -5 -7 -171 -124 -369 -259 -198 -135
-365 -251 -371 -258 -9 -8 45 -60 214 -206 199 -172 235 -208 307 -305 84
-114 138 -202 168 -270 9 -22 82 -212 161 -423 142 -377 145 -384 202 -450 32
-37 59 -69 61 -71 1 -2 32 17 69 42 l67 46 42 -47 c24 -26 41 -50 39 -54 -3
-4 -128 -115 -280 -248 l-275 -242 -49 12 c-70 17 -124 57 -191 141 -94 117
-147 239 -260 589 -111 348 -150 439 -237 556 -201 271 -421 414 -675 440
l-67 7 2 -488 3 -487 282 -113 281 -112 53 53 c29 30 56 54 60 54 3 0 26 -18
50 -39 l44 -39 -70 -73 c-38 -40 -73 -72 -77 -71 -5 1 -7 -2 -5 -6 1 -5 -92
-108 -208 -230 -198 -209 -212 -222 -246 -222 -22 0 -42 7 -50 17 -32 39 -175
135 -271 181 -109 54 -307 119 -448 149 -117 25 -433 24 -570 -1 -232 -42
-428 -103 -619 -192 -101 -47 -176 -59 -187 -29 -13 32 63 171 131 239 17 17
91 83 164 146 l133 115 287 136 286 136 3 54 c9 147 -41 354 -118 494 -83 150
-239 334 -378 447 -103 82 -167 123 -291 184 l-104 52 40 28 c22 16 223 155
446 309 l407 279 0 257 0 256 -30 61 c-65 129 -227 237 -380 253 -70 7 -89 5
-130 -11 -100 -39 -300 -66 -300 -40 0 18 51 94 94 138 58 61 114 98 217 143
114 50 184 67 311 78 131 12 188 7 285 -24z"/>
<path d="M3093 4173 l-113 -76 0 -653 0 -653 215 145 c118 79 218 144 224 144
5 0 11 4 13 8 2 5 94 69 204 143 l202 134 -308 440 c-169 242 -312 440 -317
441 -4 2 -59 -32 -120 -73z"/>
<path d="M2733 3967 l-72 -52 -1 -1106 0 -1106 65 -11 c35 -7 71 -15 80 -18
13 -6 15 117 15 1170 0 647 -3 1176 -7 1175 -5 0 -40 -24 -80 -52z"/>
<path d="M1800 3314 c-102 -68 -186 -128 -188 -133 -2 -5 48 -48 111 -95 62
-47 150 -120 195 -162 l82 -76 0 296 c0 163 -3 296 -7 295 -5 0 -91 -56 -193
-125z"/>
</g>
</svg>
